<svg width="1920" height="28" viewBox="0 0 1920 28" fill="none" xmlns="http://www.w3.org/2000/svg"><g opacity=".2" fill="#fff"><path d="M9.123 27.104c20.12 0 37.691-10.897 47.124-27.104h-3.772c-9.078 14.351-25.1 23.882-43.352 23.882-18.25 0-34.273-9.531-43.351-23.882H-38c9.433 16.207 27.004 27.104 47.123 27.104z"/><path d="M99.674 27.104c20.119 0 37.691-10.897 47.123-27.104h-3.771c-9.079 14.351-25.101 23.882-43.352 23.882-18.25 0-34.273-9.531-43.352-23.882h-3.771c9.432 16.207 27.004 27.104 47.123 27.104z"/><path d="M190.225 27.104c20.119 0 37.691-10.897 47.123-27.104h-3.771c-9.079 14.351-25.101 23.882-43.352 23.882-18.251 0-34.274-9.531-43.352-23.882h-3.771c9.432 16.207 27.004 27.104 47.123 27.104z"/><path d="M280.776 27.104c20.119 0 37.69-10.897 47.123-27.104h-3.772c-9.078 14.351-25.1 23.882-43.351 23.882-18.251 0-34.274-9.531-43.352-23.882h-3.772c9.433 16.207 27.004 27.104 47.124 27.104z"/><path d="M371.326 27.104c20.12 0 37.691-10.897 47.124-27.104h-3.772c-9.078 14.351-25.101 23.882-43.352 23.882-18.25 0-34.273-9.531-43.351-23.882h-3.772c9.433 16.207 27.004 27.104 47.123 27.104z"/><path d="M461.877 27.104c20.119 0 37.691-10.897 47.124-27.104h-3.772c-9.078 14.351-25.101 23.882-43.352 23.882-18.251 0-34.273-9.531-43.351-23.882h-3.772c9.432 16.207 27.004 27.104 47.123 27.104z"/><path d="M552.428 27.104c20.119 0 37.691-10.897 47.123-27.104h-3.771c-9.079 14.351-25.101 23.882-43.352 23.882-18.251 0-34.273-9.531-43.352-23.882h-3.771c9.432 16.207 27.004 27.104 47.123 27.104z"/><path d="M642.979 27.104c20.119 0 37.691-10.897 47.123-27.104h-3.772c-9.078 14.351-25.1 23.882-43.351 23.882-18.251 0-34.274-9.531-43.352-23.882h-3.772c9.433 16.207 27.005 27.104 47.124 27.104z"/><path d="M733.53 27.104c20.119 0 37.69-10.897 47.123-27.104h-3.772c-9.078 14.351-25.101 23.882-43.351 23.882-18.251 0-34.274-9.531-43.352-23.882h-3.772c9.433 16.207 27.004 27.104 47.124 27.104z"/><path d="M824.08 27.104c20.12 0 37.691-10.897 47.124-27.104h-3.772c-9.078 14.351-25.101 23.882-43.352 23.882-18.251 0-34.273-9.531-43.351-23.882h-3.772c9.433 16.207 27.004 27.104 47.123 27.104z"/><path d="M914.631 27.104c20.119 0 37.691-10.897 47.123-27.104h-3.771c-9.079 14.351-25.101 23.882-43.352 23.882-18.251 0-34.273-9.531-43.352-23.882h-3.771c9.432 16.207 27.004 27.104 47.123 27.104z"/><path d="M1005.18 27.104c20.12 0 37.69-10.897 47.13-27.104h-3.78c-9.07 14.351-25.1 23.882-43.35 23.882-18.249 0-34.271-9.531-43.35-23.882h-3.771c9.432 16.207 27.004 27.104 47.121 27.104z"/><path d="M1095.73 27.104c20.12 0 37.69-10.897 47.13-27.104h-3.78c-9.07 14.351-25.1 23.882-43.35 23.882S1061.46 14.35 1052.38 0h-3.77c9.43 16.207 27 27.104 47.12 27.104z"/><path d="M1186.28 27.104c20.12 0 37.69-10.897 47.13-27.104h-3.77c-9.08 14.351-25.11 23.882-43.36 23.882S1152.01 14.35 1142.93 0h-3.77c9.43 16.207 27 27.104 47.12 27.104z"/><path d="M1276.83 27.104c20.12 0 37.7-10.897 47.13-27.104h-3.77c-9.08 14.351-25.1 23.882-43.36 23.882-18.25 0-34.27-9.531-43.35-23.882h-3.77c9.43 16.207 27 27.104 47.12 27.104z"/><path d="M1367.39 27.104c20.11 0 37.69-10.897 47.12-27.104h-3.77c-9.08 14.351-25.1 23.882-43.35 23.882-18.26 0-34.28-9.531-43.36-23.882h-3.77c9.43 16.207 27.01 27.104 47.13 27.104z"/><path d="M1457.94 27.104c20.12 0 37.69-10.897 47.12-27.104h-3.77c-9.08 14.351-25.1 23.882-43.35 23.882-18.26 0-34.28-9.531-43.36-23.882h-3.77c9.43 16.207 27.01 27.104 47.13 27.104z"/><path d="M1548.48 27.104c20.12 0 37.69-10.897 47.13-27.104h-3.78c-9.07 14.351-25.1 23.882-43.35 23.882S1514.21 14.35 1505.13 0h-3.77c9.43 16.207 27 27.104 47.12 27.104z"/><path d="M1639.03 27.104c20.12 0 37.69-10.897 47.13-27.104h-3.77c-9.08 14.351-25.11 23.882-43.36 23.882S1604.76 14.35 1595.68 0h-3.77c9.43 16.207 27 27.104 47.12 27.104z"/><path d="M1729.58 27.104c20.12 0 37.7-10.897 47.13-27.104h-3.77c-9.08 14.351-25.1 23.882-43.36 23.882-18.25 0-34.27-9.531-43.35-23.882h-3.77c9.43 16.207 27 27.104 47.12 27.104z"/><path d="M1820.14 27.104c20.11 0 37.69-10.897 47.12-27.104h-3.77c-9.08 14.351-25.1 23.882-43.35 23.882-18.26 0-34.28-9.531-43.36-23.882h-3.77c9.43 16.207 27.01 27.104 47.13 27.104z"/><path d="M1910.69 27.104c20.12 0 37.69-10.897 47.12-27.104h-3.77c-9.08 14.351-25.1 23.882-43.35 23.882-18.26 0-34.28-9.531-43.36-23.882h-3.77c9.43 16.207 27.01 27.104 47.13 27.104z"/></g></svg>