<svg width="858" height="284" viewBox="0 0 858 284" fill="none" xmlns="http://www.w3.org/2000/svg"><g opacity=".1" fill="#07171D"><path d="M-8.573 27.104c20.12 0 37.69-10.897 47.123-27.104h-3.77C25.7 14.351 9.678 23.882-8.573 23.882c-18.25 0-34.273-9.531-43.352-23.882h-3.771c9.432 16.207 27.004 27.104 47.123 27.104z"/><path d="M81.978 27.104c20.119 0 37.691-10.897 47.123-27.104h-3.772c-9.078 14.351-25.1 23.882-43.351 23.882-18.251 0-34.274-9.531-43.352-23.882h-3.771c9.432 16.207 27.004 27.104 47.123 27.104z"/></g><g opacity=".1" fill="#07171D"><path d="M-8.573 59.21c20.12 0 37.69-10.897 47.123-27.105h-3.77C25.7 46.457 9.678 55.987-8.573 55.987c-18.25 0-34.273-9.53-43.352-23.882h-3.771C-46.264 48.313-28.692 59.21-8.573 59.21z"/><path d="M81.978 59.21c20.119 0 37.691-10.897 47.123-27.105h-3.772c-9.078 14.352-25.1 23.882-43.351 23.882-18.251 0-34.274-9.53-43.352-23.882h-3.771C44.287 48.313 61.859 59.21 81.977 59.21z"/></g><g opacity=".1" fill="#07171D"><path d="M-8.573 91.31c20.12 0 37.69-10.896 47.123-27.103h-3.77C25.7 78.558 9.678 88.089-8.573 88.089c-18.25 0-34.273-9.53-43.352-23.882h-3.771c9.432 16.207 27.004 27.104 47.123 27.104z"/><path d="M81.978 91.31c20.119 0 37.691-10.896 47.123-27.103h-3.772c-9.078 14.351-25.1 23.882-43.351 23.882-18.251 0-34.274-9.53-43.352-23.882h-3.771c9.432 16.207 27.004 27.104 47.123 27.104z"/></g><g opacity=".1" fill="#07171D"><path d="M-8.573 123.416c20.12 0 37.69-10.896 47.123-27.103h-3.77c-9.08 14.35-25.102 23.881-43.353 23.881-18.25 0-34.273-9.53-43.352-23.882h-3.771c9.432 16.208 27.004 27.104 47.123 27.104z"/><path d="M81.978 123.416c20.119 0 37.691-10.896 47.123-27.103h-3.772c-9.078 14.351-25.1 23.881-43.351 23.881-18.251 0-34.274-9.53-43.352-23.882h-3.771c9.432 16.208 27.004 27.104 47.123 27.104z"/></g><g opacity=".1" fill="#07171D"><path d="M-8.573 155.518c20.12 0 37.69-10.897 47.123-27.104h-3.77c-9.08 14.351-25.102 23.882-43.353 23.882-18.25 0-34.273-9.531-43.352-23.882h-3.771c9.432 16.207 27.004 27.104 47.123 27.104z"/><path d="M81.978 155.518c20.119 0 37.691-10.897 47.123-27.104h-3.772c-9.078 14.351-25.1 23.882-43.351 23.882-18.251 0-34.274-9.531-43.352-23.882h-3.771c9.432 16.207 27.004 27.104 47.123 27.104z"/></g><g opacity=".1" fill="#07171D"><path d="M-8.573 187.623c20.12 0 37.69-10.896 47.123-27.103h-3.77c-9.08 14.351-25.102 23.881-43.353 23.881-18.25 0-34.273-9.53-43.352-23.881h-3.771c9.432 16.207 27.004 27.103 47.123 27.103z"/><path d="M81.978 187.623c20.119 0 37.691-10.896 47.123-27.103h-3.772c-9.078 14.351-25.1 23.881-43.351 23.881-18.251 0-34.274-9.53-43.352-23.881h-3.771c9.432 16.207 27.004 27.103 47.123 27.103z"/></g><g opacity=".1" fill="#07171D"><path d="M-8.573 219.725c20.12 0 37.69-10.897 47.123-27.104h-3.77c-9.08 14.351-25.102 23.882-43.353 23.882-18.25 0-34.273-9.531-43.352-23.882h-3.771c9.432 16.207 27.004 27.104 47.123 27.104z"/><path d="M81.978 219.725c20.119 0 37.691-10.897 47.123-27.104h-3.772c-9.078 14.351-25.1 23.882-43.351 23.882-18.251 0-34.274-9.531-43.352-23.882h-3.771c9.432 16.207 27.004 27.104 47.123 27.104z"/></g><g opacity=".1" fill="#07171D"><path d="M-8.573 251.83c20.12 0 37.69-10.896 47.123-27.103h-3.77c-9.08 14.351-25.102 23.881-43.353 23.881-18.25 0-34.273-9.53-43.352-23.881h-3.771c9.432 16.207 27.004 27.103 47.123 27.103z"/><path d="M81.978 251.83c20.119 0 37.691-10.896 47.123-27.103h-3.772c-9.078 14.351-25.1 23.881-43.351 23.881-18.251 0-34.274-9.53-43.352-23.881h-3.771c9.432 16.207 27.004 27.103 47.123 27.103z"/></g><g opacity=".1" fill="#07171D"><path d="M-8.573 283.932c20.12 0 37.69-10.897 47.123-27.104h-3.77C25.7 271.179 9.678 280.71-8.573 280.71c-18.25 0-34.273-9.531-43.352-23.882h-3.771c9.432 16.207 27.004 27.104 47.123 27.104z"/><path d="M81.978 283.932c20.119 0 37.691-10.897 47.123-27.104h-3.772c-9.078 14.351-25.1 23.882-43.351 23.882-18.251 0-34.274-9.531-43.352-23.882h-3.771c9.432 16.207 27.004 27.104 47.123 27.104z"/></g><g opacity=".1" fill="#07171D"><path d="M176.123 27.104c20.12 0 37.691-10.897 47.124-27.104h-3.772c-9.078 14.351-25.101 23.882-43.352 23.882-18.251 0-34.273-9.531-43.351-23.882H129c9.432 16.207 27.004 27.104 47.123 27.104z"/><path d="M266.674 27.104c20.119 0 37.691-10.897 47.123-27.104h-3.771c-9.079 14.351-25.101 23.882-43.352 23.882-18.251 0-34.273-9.531-43.352-23.882h-3.771c9.432 16.207 27.004 27.104 47.123 27.104z"/><path d="M357.225 27.104c20.119 0 37.691-10.897 47.123-27.104h-3.771c-9.079 14.351-25.101 23.882-43.352 23.882-18.251 0-34.274-9.531-43.352-23.882h-3.771c9.432 16.207 27.004 27.104 47.123 27.104z"/><path d="M447.776 27.104c20.119 0 37.69-10.897 47.123-27.104h-3.772c-9.078 14.351-25.1 23.882-43.351 23.882-18.251 0-34.274-9.531-43.352-23.882h-3.772c9.433 16.207 27.004 27.104 47.124 27.104z"/><path d="M538.326 27.104c20.12 0 37.691-10.897 47.124-27.104h-3.772c-9.078 14.351-25.101 23.882-43.352 23.882-18.25 0-34.273-9.531-43.351-23.882h-3.772c9.433 16.207 27.004 27.104 47.123 27.104z"/><path d="M628.876 27.104c20.12 0 37.691-10.897 47.124-27.104h-3.772c-9.078 14.351-25.101 23.882-43.352 23.882-18.251 0-34.273-9.531-43.351-23.882h-3.772c9.432 16.207 27.004 27.104 47.123 27.104z"/><path d="M719.427 27.104c20.119 0 37.691-10.897 47.123-27.104h-3.771c-9.079 14.351-25.101 23.882-43.352 23.882-18.251 0-34.273-9.531-43.352-23.882h-3.771c9.432 16.207 27.004 27.104 47.123 27.104z"/><path d="M809.978 27.104c20.119 0 37.691-10.897 47.123-27.104h-3.772c-9.078 14.351-25.1 23.882-43.351 23.882-18.251 0-34.274-9.531-43.352-23.882h-3.772c9.433 16.207 27.005 27.104 47.124 27.104z"/></g><g opacity=".1" fill="#07171D"><path d="M176.123 59.21c20.12 0 37.691-10.897 47.124-27.105h-3.772c-9.078 14.352-25.101 23.882-43.352 23.882-18.251 0-34.273-9.53-43.351-23.882H129c9.432 16.208 27.004 27.104 47.123 27.104z"/><path d="M266.674 59.21c20.119 0 37.691-10.897 47.123-27.105h-3.771c-9.079 14.352-25.101 23.882-43.352 23.882-18.251 0-34.273-9.53-43.352-23.882h-3.771c9.432 16.208 27.004 27.104 47.123 27.104z"/><path d="M357.225 59.21c20.119 0 37.691-10.897 47.123-27.105h-3.771c-9.079 14.352-25.101 23.882-43.352 23.882-18.251 0-34.274-9.53-43.352-23.882h-3.771c9.432 16.208 27.004 27.104 47.123 27.104z"/><path d="M447.776 59.21c20.119 0 37.69-10.897 47.123-27.105h-3.772c-9.078 14.352-25.1 23.882-43.351 23.882-18.251 0-34.274-9.53-43.352-23.882h-3.772c9.433 16.208 27.004 27.104 47.124 27.104z"/><path d="M538.326 59.21c20.12 0 37.691-10.897 47.124-27.105h-3.772c-9.078 14.352-25.101 23.882-43.352 23.882-18.25 0-34.273-9.53-43.351-23.882h-3.772c9.433 16.208 27.004 27.104 47.123 27.104z"/><path d="M628.876 59.21c20.12 0 37.691-10.897 47.124-27.105h-3.772c-9.078 14.352-25.101 23.882-43.352 23.882-18.251 0-34.273-9.53-43.351-23.882h-3.772c9.432 16.208 27.004 27.104 47.123 27.104z"/><path d="M719.427 59.21c20.119 0 37.691-10.897 47.123-27.105h-3.771c-9.079 14.352-25.101 23.882-43.352 23.882-18.251 0-34.273-9.53-43.352-23.882h-3.771c9.432 16.208 27.004 27.104 47.123 27.104z"/><path d="M809.978 59.21c20.119 0 37.691-10.897 47.123-27.105h-3.772c-9.078 14.352-25.1 23.882-43.351 23.882-18.251 0-34.274-9.53-43.352-23.882h-3.772c9.433 16.208 27.005 27.104 47.124 27.104z"/></g><g opacity=".1" fill="#07171D"><path d="M176.123 91.31c20.12 0 37.691-10.896 47.124-27.103h-3.772c-9.078 14.351-25.101 23.882-43.352 23.882-18.251 0-34.273-9.53-43.351-23.882H129c9.432 16.207 27.004 27.104 47.123 27.104z"/><path d="M266.674 91.31c20.119 0 37.691-10.896 47.123-27.103h-3.771c-9.079 14.351-25.101 23.882-43.352 23.882-18.251 0-34.273-9.53-43.352-23.882h-3.771c9.432 16.207 27.004 27.104 47.123 27.104z"/><path d="M357.225 91.31c20.119 0 37.691-10.896 47.123-27.103h-3.771c-9.079 14.351-25.101 23.882-43.352 23.882-18.251 0-34.274-9.53-43.352-23.882h-3.771c9.432 16.207 27.004 27.104 47.123 27.104z"/><path d="M447.776 91.31c20.119 0 37.69-10.896 47.123-27.103h-3.772c-9.078 14.351-25.1 23.882-43.351 23.882-18.251 0-34.274-9.53-43.352-23.882h-3.772c9.433 16.207 27.004 27.104 47.124 27.104z"/><path d="M538.326 91.31c20.12 0 37.691-10.896 47.124-27.103h-3.772c-9.078 14.351-25.101 23.882-43.352 23.882-18.25 0-34.273-9.53-43.351-23.882h-3.772c9.433 16.207 27.004 27.104 47.123 27.104z"/><path d="M628.876 91.31c20.12 0 37.691-10.896 47.124-27.103h-3.772c-9.078 14.351-25.101 23.882-43.352 23.882-18.251 0-34.273-9.53-43.351-23.882h-3.772c9.432 16.207 27.004 27.104 47.123 27.104z"/><path d="M719.427 91.31c20.119 0 37.691-10.896 47.123-27.103h-3.771c-9.079 14.351-25.101 23.882-43.352 23.882-18.251 0-34.273-9.53-43.352-23.882h-3.771c9.432 16.207 27.004 27.104 47.123 27.104z"/><path d="M809.978 91.31c20.119 0 37.691-10.896 47.123-27.103h-3.772c-9.078 14.351-25.1 23.882-43.351 23.882-18.251 0-34.274-9.53-43.352-23.882h-3.772c9.433 16.207 27.005 27.104 47.124 27.104z"/></g><g opacity=".1" fill="#07171D"><path d="M176.123 123.416c20.12 0 37.691-10.896 47.124-27.103h-3.772c-9.078 14.351-25.101 23.881-43.352 23.881-18.251 0-34.273-9.53-43.351-23.882H129c9.432 16.208 27.004 27.104 47.123 27.104z"/><path d="M266.674 123.416c20.119 0 37.691-10.896 47.123-27.103h-3.771c-9.079 14.351-25.101 23.881-43.352 23.881-18.251 0-34.273-9.53-43.352-23.882h-3.771c9.432 16.208 27.004 27.104 47.123 27.104z"/><path d="M357.225 123.416c20.119 0 37.691-10.896 47.123-27.103h-3.771c-9.079 14.351-25.101 23.881-43.352 23.881-18.251 0-34.274-9.53-43.352-23.882h-3.771c9.432 16.208 27.004 27.104 47.123 27.104z"/><path d="M447.776 123.416c20.119 0 37.69-10.896 47.123-27.103h-3.772c-9.078 14.351-25.1 23.881-43.351 23.881-18.251 0-34.274-9.53-43.352-23.882h-3.772c9.433 16.208 27.004 27.104 47.124 27.104z"/><path d="M538.326 123.416c20.12 0 37.691-10.896 47.124-27.103h-3.772c-9.078 14.351-25.101 23.881-43.352 23.881-18.25 0-34.273-9.53-43.351-23.882h-3.772c9.433 16.208 27.004 27.104 47.123 27.104z"/><path d="M628.876 123.416c20.12 0 37.691-10.896 47.124-27.103h-3.772c-9.078 14.351-25.101 23.881-43.352 23.881-18.251 0-34.273-9.53-43.351-23.882h-3.772c9.432 16.208 27.004 27.104 47.123 27.104z"/><path d="M719.427 123.416c20.119 0 37.691-10.896 47.123-27.103h-3.771c-9.079 14.351-25.101 23.881-43.352 23.881-18.251 0-34.273-9.53-43.352-23.882h-3.771c9.432 16.208 27.004 27.104 47.123 27.104z"/><path d="M809.978 123.416c20.119 0 37.691-10.896 47.123-27.103h-3.772c-9.078 14.351-25.1 23.881-43.351 23.881-18.251 0-34.274-9.53-43.352-23.882h-3.772c9.433 16.208 27.005 27.104 47.124 27.104z"/></g><g opacity=".1" fill="#07171D"><path d="M176.123 155.518c20.12 0 37.691-10.897 47.124-27.104h-3.772c-9.078 14.351-25.101 23.882-43.352 23.882-18.251 0-34.273-9.531-43.351-23.882H129c9.432 16.207 27.004 27.104 47.123 27.104z"/><path d="M266.674 155.518c20.119 0 37.691-10.897 47.123-27.104h-3.771c-9.079 14.351-25.101 23.882-43.352 23.882-18.251 0-34.273-9.531-43.352-23.882h-3.771c9.432 16.207 27.004 27.104 47.123 27.104z"/><path d="M357.225 155.518c20.119 0 37.691-10.897 47.123-27.104h-3.771c-9.079 14.351-25.101 23.882-43.352 23.882-18.251 0-34.274-9.531-43.352-23.882h-3.771c9.432 16.207 27.004 27.104 47.123 27.104z"/><path d="M447.776 155.518c20.119 0 37.69-10.897 47.123-27.104h-3.772c-9.078 14.351-25.1 23.882-43.351 23.882-18.251 0-34.274-9.531-43.352-23.882h-3.772c9.433 16.207 27.004 27.104 47.124 27.104z"/><path d="M538.326 155.518c20.12 0 37.691-10.897 47.124-27.104h-3.772c-9.078 14.351-25.101 23.882-43.352 23.882-18.25 0-34.273-9.531-43.351-23.882h-3.772c9.433 16.207 27.004 27.104 47.123 27.104z"/><path d="M628.876 155.518c20.12 0 37.691-10.897 47.124-27.104h-3.772c-9.078 14.351-25.101 23.882-43.352 23.882-18.251 0-34.273-9.531-43.351-23.882h-3.772c9.432 16.207 27.004 27.104 47.123 27.104z"/><path d="M719.427 155.518c20.119 0 37.691-10.897 47.123-27.104h-3.771c-9.079 14.351-25.101 23.882-43.352 23.882-18.251 0-34.273-9.531-43.352-23.882h-3.771c9.432 16.207 27.004 27.104 47.123 27.104z"/><path d="M809.978 155.518c20.119 0 37.691-10.897 47.123-27.104h-3.772c-9.078 14.351-25.1 23.882-43.351 23.882-18.251 0-34.274-9.531-43.352-23.882h-3.772c9.433 16.207 27.005 27.104 47.124 27.104z"/></g><g opacity=".1" fill="#07171D"><path d="M176.123 187.623c20.12 0 37.691-10.896 47.124-27.103h-3.772c-9.078 14.351-25.101 23.881-43.352 23.881-18.251 0-34.273-9.53-43.351-23.881H129c9.432 16.207 27.004 27.103 47.123 27.103z"/><path d="M266.674 187.623c20.119 0 37.691-10.896 47.123-27.103h-3.771c-9.079 14.351-25.101 23.881-43.352 23.881-18.251 0-34.273-9.53-43.352-23.881h-3.771c9.432 16.207 27.004 27.103 47.123 27.103z"/><path d="M357.225 187.623c20.119 0 37.691-10.896 47.123-27.103h-3.771c-9.079 14.351-25.101 23.881-43.352 23.881-18.251 0-34.274-9.53-43.352-23.881h-3.771c9.432 16.207 27.004 27.103 47.123 27.103z"/><path d="M447.776 187.623c20.119 0 37.69-10.896 47.123-27.103h-3.772c-9.078 14.351-25.1 23.881-43.351 23.881-18.251 0-34.274-9.53-43.352-23.881h-3.772c9.433 16.207 27.004 27.103 47.124 27.103z"/><path d="M538.326 187.623c20.12 0 37.691-10.896 47.124-27.103h-3.772c-9.078 14.351-25.101 23.881-43.352 23.881-18.25 0-34.273-9.53-43.351-23.881h-3.772c9.433 16.207 27.004 27.103 47.123 27.103z"/><path d="M628.876 187.623c20.12 0 37.691-10.896 47.124-27.103h-3.772c-9.078 14.351-25.101 23.881-43.352 23.881-18.251 0-34.273-9.53-43.351-23.881h-3.772c9.432 16.207 27.004 27.103 47.123 27.103z"/><path d="M719.427 187.623c20.119 0 37.691-10.896 47.123-27.103h-3.771c-9.079 14.351-25.101 23.881-43.352 23.881-18.251 0-34.273-9.53-43.352-23.881h-3.771c9.432 16.207 27.004 27.103 47.123 27.103z"/><path d="M809.978 187.623c20.119 0 37.691-10.896 47.123-27.103h-3.772c-9.078 14.351-25.1 23.881-43.351 23.881-18.251 0-34.274-9.53-43.352-23.881h-3.772c9.433 16.207 27.005 27.103 47.124 27.103z"/></g><g opacity=".1" fill="#07171D"><path d="M176.123 219.725c20.12 0 37.691-10.897 47.124-27.104h-3.772c-9.078 14.351-25.101 23.882-43.352 23.882-18.251 0-34.273-9.531-43.351-23.882H129c9.432 16.207 27.004 27.104 47.123 27.104z"/><path d="M266.674 219.725c20.119 0 37.691-10.897 47.123-27.104h-3.771c-9.079 14.351-25.101 23.882-43.352 23.882-18.251 0-34.273-9.531-43.352-23.882h-3.771c9.432 16.207 27.004 27.104 47.123 27.104z"/><path d="M357.225 219.725c20.119 0 37.691-10.897 47.123-27.104h-3.771c-9.079 14.351-25.101 23.882-43.352 23.882-18.251 0-34.274-9.531-43.352-23.882h-3.771c9.432 16.207 27.004 27.104 47.123 27.104z"/><path d="M447.776 219.725c20.119 0 37.69-10.897 47.123-27.104h-3.772c-9.078 14.351-25.1 23.882-43.351 23.882-18.251 0-34.274-9.531-43.352-23.882h-3.772c9.433 16.207 27.004 27.104 47.124 27.104z"/><path d="M538.326 219.725c20.12 0 37.691-10.897 47.124-27.104h-3.772c-9.078 14.351-25.101 23.882-43.352 23.882-18.25 0-34.273-9.531-43.351-23.882h-3.772c9.433 16.207 27.004 27.104 47.123 27.104z"/><path d="M628.876 219.725c20.12 0 37.691-10.897 47.124-27.104h-3.772c-9.078 14.351-25.101 23.882-43.352 23.882-18.251 0-34.273-9.531-43.351-23.882h-3.772c9.432 16.207 27.004 27.104 47.123 27.104z"/><path d="M719.427 219.725c20.119 0 37.691-10.897 47.123-27.104h-3.771c-9.079 14.351-25.101 23.882-43.352 23.882-18.251 0-34.273-9.531-43.352-23.882h-3.771c9.432 16.207 27.004 27.104 47.123 27.104z"/><path d="M809.978 219.725c20.119 0 37.691-10.897 47.123-27.104h-3.772c-9.078 14.351-25.1 23.882-43.351 23.882-18.251 0-34.274-9.531-43.352-23.882h-3.772c9.433 16.207 27.005 27.104 47.124 27.104z"/></g><g opacity=".1" fill="#07171D"><path d="M176.123 251.83c20.12 0 37.691-10.896 47.124-27.103h-3.772c-9.078 14.351-25.101 23.881-43.352 23.881-18.251 0-34.273-9.53-43.351-23.881H129c9.432 16.207 27.004 27.103 47.123 27.103z"/><path d="M266.674 251.83c20.119 0 37.691-10.896 47.123-27.103h-3.771c-9.079 14.351-25.101 23.881-43.352 23.881-18.251 0-34.273-9.53-43.352-23.881h-3.771c9.432 16.207 27.004 27.103 47.123 27.103z"/><path d="M357.225 251.83c20.119 0 37.691-10.896 47.123-27.103h-3.771c-9.079 14.351-25.101 23.881-43.352 23.881-18.251 0-34.274-9.53-43.352-23.881h-3.771c9.432 16.207 27.004 27.103 47.123 27.103z"/><path d="M447.776 251.83c20.119 0 37.69-10.896 47.123-27.103h-3.772c-9.078 14.351-25.1 23.881-43.351 23.881-18.251 0-34.274-9.53-43.352-23.881h-3.772c9.433 16.207 27.004 27.103 47.124 27.103z"/><path d="M538.326 251.83c20.12 0 37.691-10.896 47.124-27.103h-3.772c-9.078 14.351-25.101 23.881-43.352 23.881-18.25 0-34.273-9.53-43.351-23.881h-3.772c9.433 16.207 27.004 27.103 47.123 27.103z"/><path d="M628.876 251.83c20.12 0 37.691-10.896 47.124-27.103h-3.772c-9.078 14.351-25.101 23.881-43.352 23.881-18.251 0-34.273-9.53-43.351-23.881h-3.772c9.432 16.207 27.004 27.103 47.123 27.103z"/><path d="M719.427 251.83c20.119 0 37.691-10.896 47.123-27.103h-3.771c-9.079 14.351-25.101 23.881-43.352 23.881-18.251 0-34.273-9.53-43.352-23.881h-3.771c9.432 16.207 27.004 27.103 47.123 27.103z"/><path d="M809.978 251.83c20.119 0 37.691-10.896 47.123-27.103h-3.772c-9.078 14.351-25.1 23.881-43.351 23.881-18.251 0-34.274-9.53-43.352-23.881h-3.772c9.433 16.207 27.005 27.103 47.124 27.103z"/></g><g opacity=".1" fill="#07171D"><path d="M176.123 283.932c20.12 0 37.691-10.897 47.124-27.104h-3.772c-9.078 14.351-25.101 23.882-43.352 23.882-18.251 0-34.273-9.531-43.351-23.882H129c9.432 16.207 27.004 27.104 47.123 27.104z"/><path d="M266.674 283.932c20.119 0 37.691-10.897 47.123-27.104h-3.771c-9.079 14.351-25.101 23.882-43.352 23.882-18.251 0-34.273-9.531-43.352-23.882h-3.771c9.432 16.207 27.004 27.104 47.123 27.104z"/><path d="M357.225 283.932c20.119 0 37.691-10.897 47.123-27.104h-3.771c-9.079 14.351-25.101 23.882-43.352 23.882-18.251 0-34.274-9.531-43.352-23.882h-3.771c9.432 16.207 27.004 27.104 47.123 27.104z"/><path d="M447.776 283.932c20.119 0 37.69-10.897 47.123-27.104h-3.772c-9.078 14.351-25.1 23.882-43.351 23.882-18.251 0-34.274-9.531-43.352-23.882h-3.772c9.433 16.207 27.004 27.104 47.124 27.104z"/><path d="M538.326 283.932c20.12 0 37.691-10.897 47.124-27.104h-3.772c-9.078 14.351-25.101 23.882-43.352 23.882-18.25 0-34.273-9.531-43.351-23.882h-3.772c9.433 16.207 27.004 27.104 47.123 27.104z"/><path d="M628.876 283.932c20.12 0 37.691-10.897 47.124-27.104h-3.772c-9.078 14.351-25.101 23.882-43.352 23.882-18.251 0-34.273-9.531-43.351-23.882h-3.772c9.432 16.207 27.004 27.104 47.123 27.104z"/><path d="M719.427 283.932c20.119 0 37.691-10.897 47.123-27.104h-3.771c-9.079 14.351-25.101 23.882-43.352 23.882-18.251 0-34.273-9.531-43.352-23.882h-3.771c9.432 16.207 27.004 27.104 47.123 27.104z"/><path d="M809.978 283.932c20.119 0 37.691-10.897 47.123-27.104h-3.772c-9.078 14.351-25.1 23.882-43.351 23.882-18.251 0-34.274-9.531-43.352-23.882h-3.772c9.433 16.207 27.005 27.104 47.124 27.104z"/></g></svg>