<svg width="858" height="284" viewBox="0 0 858 284" fill="none" xmlns="http://www.w3.org/2000/svg">
<g opacity="0.1">
<path d="M-8.57298 27.1036C11.5463 27.1036 29.1179 16.2073 38.5503 0H34.7787C25.7004 14.351 9.67793 23.8819 -8.57298 23.8819C-26.8239 23.8819 -42.8464 14.351 -51.9246 0H-55.6963C-46.2638 16.2073 -28.6923 27.1036 -8.57298 27.1036Z" fill="#07171D"/>
<path d="M81.9778 27.1036C102.097 27.1036 119.669 16.2073 129.101 0H125.329C116.251 14.351 100.229 23.8819 81.9778 23.8819C63.7269 23.8819 47.7044 14.351 38.6262 0H34.8545C44.287 16.2073 61.8585 27.1036 81.9778 27.1036Z" fill="#07171D"/>
</g>
<g opacity="0.1">
<path d="M-8.57298 59.2091C11.5463 59.2091 29.1179 48.3127 38.5503 32.1055H34.7787C25.7004 46.4565 9.67793 55.9874 -8.57298 55.9874C-26.8239 55.9874 -42.8464 46.4565 -51.9246 32.1055H-55.6963C-46.2638 48.3127 -28.6923 59.2091 -8.57298 59.2091Z" fill="#07171D"/>
<path d="M81.9778 59.2091C102.097 59.2091 119.669 48.3127 129.101 32.1055H125.329C116.251 46.4565 100.229 55.9874 81.9778 55.9874C63.7269 55.9874 47.7044 46.4565 38.6262 32.1055H34.8545C44.287 48.3127 61.8585 59.2091 81.9778 59.2091Z" fill="#07171D"/>
</g>
<g opacity="0.1">
<path d="M-8.57298 91.3106C11.5463 91.3106 29.1179 80.4143 38.5503 64.207H34.7787C25.7004 78.5581 9.67793 88.0889 -8.57298 88.0889C-26.8239 88.0889 -42.8464 78.5581 -51.9246 64.207H-55.6963C-46.2638 80.4143 -28.6923 91.3106 -8.57298 91.3106Z" fill="#07171D"/>
<path d="M81.9778 91.3106C102.097 91.3106 119.669 80.4143 129.101 64.207H125.329C116.251 78.5581 100.229 88.0889 81.9778 88.0889C63.7269 88.0889 47.7044 78.5581 38.6262 64.207H34.8545C44.287 80.4143 61.8585 91.3106 81.9778 91.3106Z" fill="#07171D"/>
</g>
<g opacity="0.1">
<path d="M-8.57298 123.416C11.5463 123.416 29.1179 112.52 38.5503 96.3125H34.7787C25.7004 110.664 9.67793 120.194 -8.57298 120.194C-26.8239 120.194 -42.8464 110.664 -51.9246 96.3125H-55.6963C-46.2638 112.52 -28.6923 123.416 -8.57298 123.416Z" fill="#07171D"/>
<path d="M81.9778 123.416C102.097 123.416 119.669 112.52 129.101 96.3125H125.329C116.251 110.664 100.229 120.194 81.9778 120.194C63.7269 120.194 47.7044 110.664 38.6262 96.3125H34.8545C44.287 112.52 61.8585 123.416 81.9778 123.416Z" fill="#07171D"/>
</g>
<g opacity="0.1">
<path d="M-8.57298 155.518C11.5463 155.518 29.1179 144.621 38.5503 128.414H34.7787C25.7004 142.765 9.67793 152.296 -8.57298 152.296C-26.8239 152.296 -42.8464 142.765 -51.9246 128.414H-55.6963C-46.2638 144.621 -28.6923 155.518 -8.57298 155.518Z" fill="#07171D"/>
<path d="M81.9778 155.518C102.097 155.518 119.669 144.621 129.101 128.414H125.329C116.251 142.765 100.229 152.296 81.9778 152.296C63.7269 152.296 47.7044 142.765 38.6262 128.414H34.8545C44.287 144.621 61.8585 155.518 81.9778 155.518Z" fill="#07171D"/>
</g>
<g opacity="0.1">
<path d="M-8.57298 187.623C11.5463 187.623 29.1179 176.727 38.5503 160.52H34.7787C25.7004 174.871 9.67793 184.401 -8.57298 184.401C-26.8239 184.401 -42.8464 174.871 -51.9246 160.52H-55.6963C-46.2638 176.727 -28.6923 187.623 -8.57298 187.623Z" fill="#07171D"/>
<path d="M81.9778 187.623C102.097 187.623 119.669 176.727 129.101 160.52H125.329C116.251 174.871 100.229 184.401 81.9778 184.401C63.7269 184.401 47.7044 174.871 38.6262 160.52H34.8545C44.287 176.727 61.8585 187.623 81.9778 187.623Z" fill="#07171D"/>
</g>
<g opacity="0.1">
<path d="M-8.57298 219.725C11.5463 219.725 29.1179 208.828 38.5503 192.621H34.7787C25.7004 206.972 9.67793 216.503 -8.57298 216.503C-26.8239 216.503 -42.8464 206.972 -51.9246 192.621H-55.6963C-46.2638 208.828 -28.6923 219.725 -8.57298 219.725Z" fill="#07171D"/>
<path d="M81.9778 219.725C102.097 219.725 119.669 208.828 129.101 192.621H125.329C116.251 206.972 100.229 216.503 81.9778 216.503C63.7269 216.503 47.7044 206.972 38.6262 192.621H34.8545C44.287 208.828 61.8585 219.725 81.9778 219.725Z" fill="#07171D"/>
</g>
<g opacity="0.1">
<path d="M-8.57298 251.83C11.5463 251.83 29.1179 240.934 38.5503 224.727H34.7787C25.7004 239.078 9.67793 248.608 -8.57298 248.608C-26.8239 248.608 -42.8464 239.078 -51.9246 224.727H-55.6963C-46.2638 240.934 -28.6923 251.83 -8.57298 251.83Z" fill="#07171D"/>
<path d="M81.9778 251.83C102.097 251.83 119.669 240.934 129.101 224.727H125.329C116.251 239.078 100.229 248.608 81.9778 248.608C63.7269 248.608 47.7044 239.078 38.6262 224.727H34.8545C44.287 240.934 61.8585 251.83 81.9778 251.83Z" fill="#07171D"/>
</g>
<g opacity="0.1">
<path d="M-8.57298 283.932C11.5463 283.932 29.1179 273.035 38.5503 256.828H34.7787C25.7004 271.179 9.67793 280.71 -8.57298 280.71C-26.8239 280.71 -42.8464 271.179 -51.9246 256.828H-55.6963C-46.2638 273.035 -28.6923 283.932 -8.57298 283.932Z" fill="#07171D"/>
<path d="M81.9778 283.932C102.097 283.932 119.669 273.035 129.101 256.828H125.329C116.251 271.179 100.229 280.71 81.9778 280.71C63.7269 280.71 47.7044 271.179 38.6262 256.828H34.8545C44.287 273.035 61.8585 283.932 81.9778 283.932Z" fill="#07171D"/>
</g>
<g opacity="0.1">
<path d="M176.123 27.1036C196.243 27.1036 213.814 16.2073 223.247 0H219.475C210.397 14.351 194.374 23.8819 176.123 23.8819C157.872 23.8819 141.85 14.351 132.772 0H129C138.432 16.2073 156.004 27.1036 176.123 27.1036Z" fill="#07171D"/>
<path d="M266.674 27.1036C286.793 27.1036 304.365 16.2073 313.797 0H310.026C300.947 14.351 284.925 23.8819 266.674 23.8819C248.423 23.8819 232.401 14.351 223.322 0H219.551C228.983 16.2073 246.555 27.1036 266.674 27.1036Z" fill="#07171D"/>
<path d="M357.225 27.1036C377.344 27.1036 394.916 16.2073 404.348 0H400.577C391.498 14.351 375.476 23.8819 357.225 23.8819C338.974 23.8819 322.951 14.351 313.873 0H310.102C319.534 16.2073 337.106 27.1036 357.225 27.1036Z" fill="#07171D"/>
<path d="M447.776 27.1036C467.895 27.1036 485.466 16.2073 494.899 0H491.127C482.049 14.351 466.027 23.8819 447.776 23.8819C429.525 23.8819 413.502 14.351 404.424 0H400.652C410.085 16.2073 427.656 27.1036 447.776 27.1036Z" fill="#07171D"/>
<path d="M538.326 27.1036C558.446 27.1036 576.017 16.2073 585.45 0H581.678C572.6 14.351 556.577 23.8819 538.326 23.8819C520.076 23.8819 504.053 14.351 494.975 0H491.203C500.636 16.2073 518.207 27.1036 538.326 27.1036Z" fill="#07171D"/>
<path d="M628.876 27.1036C648.996 27.1036 666.567 16.2073 676 0H672.228C663.15 14.351 647.127 23.8819 628.876 23.8819C610.625 23.8819 594.603 14.351 585.525 0H581.753C591.185 16.2073 608.757 27.1036 628.876 27.1036Z" fill="#07171D"/>
<path d="M719.427 27.1036C739.546 27.1036 757.118 16.2073 766.55 0H762.779C753.7 14.351 737.678 23.8819 719.427 23.8819C701.176 23.8819 685.154 14.351 676.075 0H672.304C681.736 16.2073 699.308 27.1036 719.427 27.1036Z" fill="#07171D"/>
<path d="M809.978 27.1036C830.097 27.1036 847.669 16.2073 857.101 0H853.329C844.251 14.351 828.229 23.8819 809.978 23.8819C791.727 23.8819 775.704 14.351 766.626 0H762.854C772.287 16.2073 789.859 27.1036 809.978 27.1036Z" fill="#07171D"/>
</g>
<g opacity="0.1">
<path d="M176.123 59.2091C196.243 59.2091 213.814 48.3127 223.247 32.1055H219.475C210.397 46.4565 194.374 55.9874 176.123 55.9874C157.872 55.9874 141.85 46.4565 132.772 32.1055H129C138.432 48.3127 156.004 59.2091 176.123 59.2091Z" fill="#07171D"/>
<path d="M266.674 59.2091C286.793 59.2091 304.365 48.3127 313.797 32.1055H310.026C300.947 46.4565 284.925 55.9874 266.674 55.9874C248.423 55.9874 232.401 46.4565 223.322 32.1055H219.551C228.983 48.3127 246.555 59.2091 266.674 59.2091Z" fill="#07171D"/>
<path d="M357.225 59.2091C377.344 59.2091 394.916 48.3127 404.348 32.1055H400.577C391.498 46.4565 375.476 55.9874 357.225 55.9874C338.974 55.9874 322.951 46.4565 313.873 32.1055H310.102C319.534 48.3127 337.106 59.2091 357.225 59.2091Z" fill="#07171D"/>
<path d="M447.776 59.2091C467.895 59.2091 485.466 48.3127 494.899 32.1055H491.127C482.049 46.4565 466.027 55.9874 447.776 55.9874C429.525 55.9874 413.502 46.4565 404.424 32.1055H400.652C410.085 48.3127 427.656 59.2091 447.776 59.2091Z" fill="#07171D"/>
<path d="M538.326 59.2091C558.446 59.2091 576.017 48.3127 585.45 32.1055H581.678C572.6 46.4565 556.577 55.9874 538.326 55.9874C520.076 55.9874 504.053 46.4565 494.975 32.1055H491.203C500.636 48.3127 518.207 59.2091 538.326 59.2091Z" fill="#07171D"/>
<path d="M628.876 59.2091C648.996 59.2091 666.567 48.3127 676 32.1055H672.228C663.15 46.4565 647.127 55.9874 628.876 55.9874C610.625 55.9874 594.603 46.4565 585.525 32.1055H581.753C591.185 48.3127 608.757 59.2091 628.876 59.2091Z" fill="#07171D"/>
<path d="M719.427 59.2091C739.546 59.2091 757.118 48.3127 766.55 32.1055H762.779C753.7 46.4565 737.678 55.9874 719.427 55.9874C701.176 55.9874 685.154 46.4565 676.075 32.1055H672.304C681.736 48.3127 699.308 59.2091 719.427 59.2091Z" fill="#07171D"/>
<path d="M809.978 59.2091C830.097 59.2091 847.669 48.3127 857.101 32.1055H853.329C844.251 46.4565 828.229 55.9874 809.978 55.9874C791.727 55.9874 775.704 46.4565 766.626 32.1055H762.854C772.287 48.3127 789.859 59.2091 809.978 59.2091Z" fill="#07171D"/>
</g>
<g opacity="0.1">
<path d="M176.123 91.3106C196.243 91.3106 213.814 80.4143 223.247 64.207H219.475C210.397 78.5581 194.374 88.0889 176.123 88.0889C157.872 88.0889 141.85 78.5581 132.772 64.207H129C138.432 80.4143 156.004 91.3106 176.123 91.3106Z" fill="#07171D"/>
<path d="M266.674 91.3106C286.793 91.3106 304.365 80.4143 313.797 64.207H310.026C300.947 78.5581 284.925 88.0889 266.674 88.0889C248.423 88.0889 232.401 78.5581 223.322 64.207H219.551C228.983 80.4143 246.555 91.3106 266.674 91.3106Z" fill="#07171D"/>
<path d="M357.225 91.3106C377.344 91.3106 394.916 80.4143 404.348 64.207H400.577C391.498 78.5581 375.476 88.0889 357.225 88.0889C338.974 88.0889 322.951 78.5581 313.873 64.207H310.102C319.534 80.4143 337.106 91.3106 357.225 91.3106Z" fill="#07171D"/>
<path d="M447.776 91.3106C467.895 91.3106 485.466 80.4143 494.899 64.207H491.127C482.049 78.5581 466.027 88.0889 447.776 88.0889C429.525 88.0889 413.502 78.5581 404.424 64.207H400.652C410.085 80.4143 427.656 91.3106 447.776 91.3106Z" fill="#07171D"/>
<path d="M538.326 91.3106C558.446 91.3106 576.017 80.4143 585.45 64.207H581.678C572.6 78.5581 556.577 88.0889 538.326 88.0889C520.076 88.0889 504.053 78.5581 494.975 64.207H491.203C500.636 80.4143 518.207 91.3106 538.326 91.3106Z" fill="#07171D"/>
<path d="M628.876 91.3106C648.996 91.3106 666.567 80.4143 676 64.207H672.228C663.15 78.5581 647.127 88.0889 628.876 88.0889C610.625 88.0889 594.603 78.5581 585.525 64.207H581.753C591.185 80.4143 608.757 91.3106 628.876 91.3106Z" fill="#07171D"/>
<path d="M719.427 91.3106C739.546 91.3106 757.118 80.4143 766.55 64.207H762.779C753.7 78.5581 737.678 88.0889 719.427 88.0889C701.176 88.0889 685.154 78.5581 676.075 64.207H672.304C681.736 80.4143 699.308 91.3106 719.427 91.3106Z" fill="#07171D"/>
<path d="M809.978 91.3106C830.097 91.3106 847.669 80.4143 857.101 64.207H853.329C844.251 78.5581 828.229 88.0889 809.978 88.0889C791.727 88.0889 775.704 78.5581 766.626 64.207H762.854C772.287 80.4143 789.859 91.3106 809.978 91.3106Z" fill="#07171D"/>
</g>
<g opacity="0.1">
<path d="M176.123 123.416C196.243 123.416 213.814 112.52 223.247 96.3125H219.475C210.397 110.664 194.374 120.194 176.123 120.194C157.872 120.194 141.85 110.664 132.772 96.3125H129C138.432 112.52 156.004 123.416 176.123 123.416Z" fill="#07171D"/>
<path d="M266.674 123.416C286.793 123.416 304.365 112.52 313.797 96.3125H310.026C300.947 110.664 284.925 120.194 266.674 120.194C248.423 120.194 232.401 110.664 223.322 96.3125H219.551C228.983 112.52 246.555 123.416 266.674 123.416Z" fill="#07171D"/>
<path d="M357.225 123.416C377.344 123.416 394.916 112.52 404.348 96.3125H400.577C391.498 110.664 375.476 120.194 357.225 120.194C338.974 120.194 322.951 110.664 313.873 96.3125H310.102C319.534 112.52 337.106 123.416 357.225 123.416Z" fill="#07171D"/>
<path d="M447.776 123.416C467.895 123.416 485.466 112.52 494.899 96.3125H491.127C482.049 110.664 466.027 120.194 447.776 120.194C429.525 120.194 413.502 110.664 404.424 96.3125H400.652C410.085 112.52 427.656 123.416 447.776 123.416Z" fill="#07171D"/>
<path d="M538.326 123.416C558.446 123.416 576.017 112.52 585.45 96.3125H581.678C572.6 110.664 556.577 120.194 538.326 120.194C520.076 120.194 504.053 110.664 494.975 96.3125H491.203C500.636 112.52 518.207 123.416 538.326 123.416Z" fill="#07171D"/>
<path d="M628.876 123.416C648.996 123.416 666.567 112.52 676 96.3125H672.228C663.15 110.664 647.127 120.194 628.876 120.194C610.625 120.194 594.603 110.664 585.525 96.3125H581.753C591.185 112.52 608.757 123.416 628.876 123.416Z" fill="#07171D"/>
<path d="M719.427 123.416C739.546 123.416 757.118 112.52 766.55 96.3125H762.779C753.7 110.664 737.678 120.194 719.427 120.194C701.176 120.194 685.154 110.664 676.075 96.3125H672.304C681.736 112.52 699.308 123.416 719.427 123.416Z" fill="#07171D"/>
<path d="M809.978 123.416C830.097 123.416 847.669 112.52 857.101 96.3125H853.329C844.251 110.664 828.229 120.194 809.978 120.194C791.727 120.194 775.704 110.664 766.626 96.3125H762.854C772.287 112.52 789.859 123.416 809.978 123.416Z" fill="#07171D"/>
</g>
<g opacity="0.1">
<path d="M176.123 155.518C196.243 155.518 213.814 144.621 223.247 128.414H219.475C210.397 142.765 194.374 152.296 176.123 152.296C157.872 152.296 141.85 142.765 132.772 128.414H129C138.432 144.621 156.004 155.518 176.123 155.518Z" fill="#07171D"/>
<path d="M266.674 155.518C286.793 155.518 304.365 144.621 313.797 128.414H310.026C300.947 142.765 284.925 152.296 266.674 152.296C248.423 152.296 232.401 142.765 223.322 128.414H219.551C228.983 144.621 246.555 155.518 266.674 155.518Z" fill="#07171D"/>
<path d="M357.225 155.518C377.344 155.518 394.916 144.621 404.348 128.414H400.577C391.498 142.765 375.476 152.296 357.225 152.296C338.974 152.296 322.951 142.765 313.873 128.414H310.102C319.534 144.621 337.106 155.518 357.225 155.518Z" fill="#07171D"/>
<path d="M447.776 155.518C467.895 155.518 485.466 144.621 494.899 128.414H491.127C482.049 142.765 466.027 152.296 447.776 152.296C429.525 152.296 413.502 142.765 404.424 128.414H400.652C410.085 144.621 427.656 155.518 447.776 155.518Z" fill="#07171D"/>
<path d="M538.326 155.518C558.446 155.518 576.017 144.621 585.45 128.414H581.678C572.6 142.765 556.577 152.296 538.326 152.296C520.076 152.296 504.053 142.765 494.975 128.414H491.203C500.636 144.621 518.207 155.518 538.326 155.518Z" fill="#07171D"/>
<path d="M628.876 155.518C648.996 155.518 666.567 144.621 676 128.414H672.228C663.15 142.765 647.127 152.296 628.876 152.296C610.625 152.296 594.603 142.765 585.525 128.414H581.753C591.185 144.621 608.757 155.518 628.876 155.518Z" fill="#07171D"/>
<path d="M719.427 155.518C739.546 155.518 757.118 144.621 766.55 128.414H762.779C753.7 142.765 737.678 152.296 719.427 152.296C701.176 152.296 685.154 142.765 676.075 128.414H672.304C681.736 144.621 699.308 155.518 719.427 155.518Z" fill="#07171D"/>
<path d="M809.978 155.518C830.097 155.518 847.669 144.621 857.101 128.414H853.329C844.251 142.765 828.229 152.296 809.978 152.296C791.727 152.296 775.704 142.765 766.626 128.414H762.854C772.287 144.621 789.859 155.518 809.978 155.518Z" fill="#07171D"/>
</g>
<g opacity="0.1">
<path d="M176.123 187.623C196.243 187.623 213.814 176.727 223.247 160.52H219.475C210.397 174.871 194.374 184.401 176.123 184.401C157.872 184.401 141.85 174.871 132.772 160.52H129C138.432 176.727 156.004 187.623 176.123 187.623Z" fill="#07171D"/>
<path d="M266.674 187.623C286.793 187.623 304.365 176.727 313.797 160.52H310.026C300.947 174.871 284.925 184.401 266.674 184.401C248.423 184.401 232.401 174.871 223.322 160.52H219.551C228.983 176.727 246.555 187.623 266.674 187.623Z" fill="#07171D"/>
<path d="M357.225 187.623C377.344 187.623 394.916 176.727 404.348 160.52H400.577C391.498 174.871 375.476 184.401 357.225 184.401C338.974 184.401 322.951 174.871 313.873 160.52H310.102C319.534 176.727 337.106 187.623 357.225 187.623Z" fill="#07171D"/>
<path d="M447.776 187.623C467.895 187.623 485.466 176.727 494.899 160.52H491.127C482.049 174.871 466.027 184.401 447.776 184.401C429.525 184.401 413.502 174.871 404.424 160.52H400.652C410.085 176.727 427.656 187.623 447.776 187.623Z" fill="#07171D"/>
<path d="M538.326 187.623C558.446 187.623 576.017 176.727 585.45 160.52H581.678C572.6 174.871 556.577 184.401 538.326 184.401C520.076 184.401 504.053 174.871 494.975 160.52H491.203C500.636 176.727 518.207 187.623 538.326 187.623Z" fill="#07171D"/>
<path d="M628.876 187.623C648.996 187.623 666.567 176.727 676 160.52H672.228C663.15 174.871 647.127 184.401 628.876 184.401C610.625 184.401 594.603 174.871 585.525 160.52H581.753C591.185 176.727 608.757 187.623 628.876 187.623Z" fill="#07171D"/>
<path d="M719.427 187.623C739.546 187.623 757.118 176.727 766.55 160.52H762.779C753.7 174.871 737.678 184.401 719.427 184.401C701.176 184.401 685.154 174.871 676.075 160.52H672.304C681.736 176.727 699.308 187.623 719.427 187.623Z" fill="#07171D"/>
<path d="M809.978 187.623C830.097 187.623 847.669 176.727 857.101 160.52H853.329C844.251 174.871 828.229 184.401 809.978 184.401C791.727 184.401 775.704 174.871 766.626 160.52H762.854C772.287 176.727 789.859 187.623 809.978 187.623Z" fill="#07171D"/>
</g>
<g opacity="0.1">
<path d="M176.123 219.725C196.243 219.725 213.814 208.828 223.247 192.621H219.475C210.397 206.972 194.374 216.503 176.123 216.503C157.872 216.503 141.85 206.972 132.772 192.621H129C138.432 208.828 156.004 219.725 176.123 219.725Z" fill="#07171D"/>
<path d="M266.674 219.725C286.793 219.725 304.365 208.828 313.797 192.621H310.026C300.947 206.972 284.925 216.503 266.674 216.503C248.423 216.503 232.401 206.972 223.322 192.621H219.551C228.983 208.828 246.555 219.725 266.674 219.725Z" fill="#07171D"/>
<path d="M357.225 219.725C377.344 219.725 394.916 208.828 404.348 192.621H400.577C391.498 206.972 375.476 216.503 357.225 216.503C338.974 216.503 322.951 206.972 313.873 192.621H310.102C319.534 208.828 337.106 219.725 357.225 219.725Z" fill="#07171D"/>
<path d="M447.776 219.725C467.895 219.725 485.466 208.828 494.899 192.621H491.127C482.049 206.972 466.027 216.503 447.776 216.503C429.525 216.503 413.502 206.972 404.424 192.621H400.652C410.085 208.828 427.656 219.725 447.776 219.725Z" fill="#07171D"/>
<path d="M538.326 219.725C558.446 219.725 576.017 208.828 585.45 192.621H581.678C572.6 206.972 556.577 216.503 538.326 216.503C520.076 216.503 504.053 206.972 494.975 192.621H491.203C500.636 208.828 518.207 219.725 538.326 219.725Z" fill="#07171D"/>
<path d="M628.876 219.725C648.996 219.725 666.567 208.828 676 192.621H672.228C663.15 206.972 647.127 216.503 628.876 216.503C610.625 216.503 594.603 206.972 585.525 192.621H581.753C591.185 208.828 608.757 219.725 628.876 219.725Z" fill="#07171D"/>
<path d="M719.427 219.725C739.546 219.725 757.118 208.828 766.55 192.621H762.779C753.7 206.972 737.678 216.503 719.427 216.503C701.176 216.503 685.154 206.972 676.075 192.621H672.304C681.736 208.828 699.308 219.725 719.427 219.725Z" fill="#07171D"/>
<path d="M809.978 219.725C830.097 219.725 847.669 208.828 857.101 192.621H853.329C844.251 206.972 828.229 216.503 809.978 216.503C791.727 216.503 775.704 206.972 766.626 192.621H762.854C772.287 208.828 789.859 219.725 809.978 219.725Z" fill="#07171D"/>
</g>
<g opacity="0.1">
<path d="M176.123 251.83C196.243 251.83 213.814 240.934 223.247 224.727H219.475C210.397 239.078 194.374 248.608 176.123 248.608C157.872 248.608 141.85 239.078 132.772 224.727H129C138.432 240.934 156.004 251.83 176.123 251.83Z" fill="#07171D"/>
<path d="M266.674 251.83C286.793 251.83 304.365 240.934 313.797 224.727H310.026C300.947 239.078 284.925 248.608 266.674 248.608C248.423 248.608 232.401 239.078 223.322 224.727H219.551C228.983 240.934 246.555 251.83 266.674 251.83Z" fill="#07171D"/>
<path d="M357.225 251.83C377.344 251.83 394.916 240.934 404.348 224.727H400.577C391.498 239.078 375.476 248.608 357.225 248.608C338.974 248.608 322.951 239.078 313.873 224.727H310.102C319.534 240.934 337.106 251.83 357.225 251.83Z" fill="#07171D"/>
<path d="M447.776 251.83C467.895 251.83 485.466 240.934 494.899 224.727H491.127C482.049 239.078 466.027 248.608 447.776 248.608C429.525 248.608 413.502 239.078 404.424 224.727H400.652C410.085 240.934 427.656 251.83 447.776 251.83Z" fill="#07171D"/>
<path d="M538.326 251.83C558.446 251.83 576.017 240.934 585.45 224.727H581.678C572.6 239.078 556.577 248.608 538.326 248.608C520.076 248.608 504.053 239.078 494.975 224.727H491.203C500.636 240.934 518.207 251.83 538.326 251.83Z" fill="#07171D"/>
<path d="M628.876 251.83C648.996 251.83 666.567 240.934 676 224.727H672.228C663.15 239.078 647.127 248.608 628.876 248.608C610.625 248.608 594.603 239.078 585.525 224.727H581.753C591.185 240.934 608.757 251.83 628.876 251.83Z" fill="#07171D"/>
<path d="M719.427 251.83C739.546 251.83 757.118 240.934 766.55 224.727H762.779C753.7 239.078 737.678 248.608 719.427 248.608C701.176 248.608 685.154 239.078 676.075 224.727H672.304C681.736 240.934 699.308 251.83 719.427 251.83Z" fill="#07171D"/>
<path d="M809.978 251.83C830.097 251.83 847.669 240.934 857.101 224.727H853.329C844.251 239.078 828.229 248.608 809.978 248.608C791.727 248.608 775.704 239.078 766.626 224.727H762.854C772.287 240.934 789.859 251.83 809.978 251.83Z" fill="#07171D"/>
</g>
<g opacity="0.1">
<path d="M176.123 283.932C196.243 283.932 213.814 273.035 223.247 256.828H219.475C210.397 271.179 194.374 280.71 176.123 280.71C157.872 280.71 141.85 271.179 132.772 256.828H129C138.432 273.035 156.004 283.932 176.123 283.932Z" fill="#07171D"/>
<path d="M266.674 283.932C286.793 283.932 304.365 273.035 313.797 256.828H310.026C300.947 271.179 284.925 280.71 266.674 280.71C248.423 280.71 232.401 271.179 223.322 256.828H219.551C228.983 273.035 246.555 283.932 266.674 283.932Z" fill="#07171D"/>
<path d="M357.225 283.932C377.344 283.932 394.916 273.035 404.348 256.828H400.577C391.498 271.179 375.476 280.71 357.225 280.71C338.974 280.71 322.951 271.179 313.873 256.828H310.102C319.534 273.035 337.106 283.932 357.225 283.932Z" fill="#07171D"/>
<path d="M447.776 283.932C467.895 283.932 485.466 273.035 494.899 256.828H491.127C482.049 271.179 466.027 280.71 447.776 280.71C429.525 280.71 413.502 271.179 404.424 256.828H400.652C410.085 273.035 427.656 283.932 447.776 283.932Z" fill="#07171D"/>
<path d="M538.326 283.932C558.446 283.932 576.017 273.035 585.45 256.828H581.678C572.6 271.179 556.577 280.71 538.326 280.71C520.076 280.71 504.053 271.179 494.975 256.828H491.203C500.636 273.035 518.207 283.932 538.326 283.932Z" fill="#07171D"/>
<path d="M628.876 283.932C648.996 283.932 666.567 273.035 676 256.828H672.228C663.15 271.179 647.127 280.71 628.876 280.71C610.625 280.71 594.603 271.179 585.525 256.828H581.753C591.185 273.035 608.757 283.932 628.876 283.932Z" fill="#07171D"/>
<path d="M719.427 283.932C739.546 283.932 757.118 273.035 766.55 256.828H762.779C753.7 271.179 737.678 280.71 719.427 280.71C701.176 280.71 685.154 271.179 676.075 256.828H672.304C681.736 273.035 699.308 283.932 719.427 283.932Z" fill="#07171D"/>
<path d="M809.978 283.932C830.097 283.932 847.669 273.035 857.101 256.828H853.329C844.251 271.179 828.229 280.71 809.978 280.71C791.727 280.71 775.704 271.179 766.626 256.828H762.854C772.287 273.035 789.859 283.932 809.978 283.932Z" fill="#07171D"/>
</g>
</svg>
