<svg width="884" height="284" viewBox="0 0 884 284" fill="none" xmlns="http://www.w3.org/2000/svg"><g opacity=".1" fill="#fff"><path d="M47.123 27.104c20.12 0 37.691-10.897 47.124-27.104h-3.772c-9.078 14.351-25.1 23.882-43.352 23.882C28.873 23.882 12.85 14.35 3.772 0H0c9.432 16.207 27.004 27.104 47.123 27.104z"/><path d="M137.674 27.104c20.119 0 37.691-10.897 47.123-27.104h-3.771c-9.079 14.351-25.101 23.882-43.352 23.882-18.251 0-34.273-9.531-43.352-23.882h-3.771c9.432 16.207 27.004 27.104 47.123 27.104z"/><path d="M228.225 27.104c20.119 0 37.691-10.897 47.123-27.104h-3.771c-9.079 14.351-25.101 23.882-43.352 23.882-18.251 0-34.274-9.531-43.352-23.882h-3.771c9.432 16.207 27.004 27.104 47.123 27.104z"/><path d="M318.776 27.104c20.119 0 37.69-10.897 47.123-27.104h-3.772c-9.078 14.351-25.1 23.882-43.351 23.882-18.251 0-34.274-9.531-43.352-23.882h-3.772c9.433 16.207 27.004 27.104 47.124 27.104z"/><path d="M409.326 27.104c20.12 0 37.691-10.897 47.124-27.104h-3.772c-9.078 14.351-25.101 23.882-43.352 23.882-18.25 0-34.273-9.531-43.351-23.882h-3.772c9.433 16.207 27.004 27.104 47.123 27.104z"/><path d="M499.876 27.104c20.12 0 37.691-10.897 47.124-27.104h-3.772c-9.078 14.351-25.101 23.882-43.352 23.882-18.251 0-34.273-9.531-43.351-23.882h-3.772c9.432 16.207 27.004 27.104 47.123 27.104z"/><path d="M590.427 27.104c20.119 0 37.691-10.897 47.123-27.104h-3.771c-9.079 14.351-25.101 23.882-43.352 23.882-18.251 0-34.273-9.531-43.352-23.882h-3.771c9.432 16.207 27.004 27.104 47.123 27.104z"/><path d="M680.978 27.104c20.119 0 37.691-10.897 47.123-27.104h-3.772c-9.078 14.351-25.1 23.882-43.351 23.882-18.251 0-34.274-9.531-43.352-23.882h-3.772c9.433 16.207 27.005 27.104 47.124 27.104z"/></g><g opacity=".1" fill="#fff"><path d="M47.123 59.21c20.12 0 37.691-10.897 47.124-27.105h-3.772c-9.078 14.352-25.1 23.882-43.352 23.882-18.25 0-34.273-9.53-43.351-23.882H0C9.432 48.313 27.004 59.21 47.123 59.21z"/><path d="M137.674 59.21c20.119 0 37.691-10.897 47.123-27.105h-3.771c-9.079 14.352-25.101 23.882-43.352 23.882-18.251 0-34.273-9.53-43.352-23.882h-3.771c9.432 16.208 27.004 27.104 47.123 27.104z"/><path d="M228.225 59.21c20.119 0 37.691-10.897 47.123-27.105h-3.771c-9.079 14.352-25.101 23.882-43.352 23.882-18.251 0-34.274-9.53-43.352-23.882h-3.771c9.432 16.208 27.004 27.104 47.123 27.104z"/><path d="M318.776 59.21c20.119 0 37.69-10.897 47.123-27.105h-3.772c-9.078 14.352-25.1 23.882-43.351 23.882-18.251 0-34.274-9.53-43.352-23.882h-3.772c9.433 16.208 27.004 27.104 47.124 27.104z"/><path d="M409.326 59.21c20.12 0 37.691-10.897 47.124-27.105h-3.772c-9.078 14.352-25.101 23.882-43.352 23.882-18.25 0-34.273-9.53-43.351-23.882h-3.772c9.433 16.208 27.004 27.104 47.123 27.104z"/><path d="M499.876 59.21c20.12 0 37.691-10.897 47.124-27.105h-3.772c-9.078 14.352-25.101 23.882-43.352 23.882-18.251 0-34.273-9.53-43.351-23.882h-3.772c9.432 16.208 27.004 27.104 47.123 27.104z"/><path d="M590.427 59.21c20.119 0 37.691-10.897 47.123-27.105h-3.771c-9.079 14.352-25.101 23.882-43.352 23.882-18.251 0-34.273-9.53-43.352-23.882h-3.771c9.432 16.208 27.004 27.104 47.123 27.104z"/><path d="M680.978 59.21c20.119 0 37.691-10.897 47.123-27.105h-3.772c-9.078 14.352-25.1 23.882-43.351 23.882-18.251 0-34.274-9.53-43.352-23.882h-3.772c9.433 16.208 27.005 27.104 47.124 27.104z"/></g><g opacity=".1" fill="#fff"><path d="M47.123 91.31c20.12 0 37.691-10.896 47.124-27.103h-3.772c-9.078 14.351-25.1 23.882-43.352 23.882-18.25 0-34.273-9.53-43.351-23.882H0c9.432 16.207 27.004 27.104 47.123 27.104z"/><path d="M137.674 91.31c20.119 0 37.691-10.896 47.123-27.103h-3.771c-9.079 14.351-25.101 23.882-43.352 23.882-18.251 0-34.273-9.53-43.352-23.882h-3.771c9.432 16.207 27.004 27.104 47.123 27.104z"/><path d="M228.225 91.31c20.119 0 37.691-10.896 47.123-27.103h-3.771c-9.079 14.351-25.101 23.882-43.352 23.882-18.251 0-34.274-9.53-43.352-23.882h-3.771c9.432 16.207 27.004 27.104 47.123 27.104z"/><path d="M318.776 91.31c20.119 0 37.69-10.896 47.123-27.103h-3.772c-9.078 14.351-25.1 23.882-43.351 23.882-18.251 0-34.274-9.53-43.352-23.882h-3.772c9.433 16.207 27.004 27.104 47.124 27.104z"/><path d="M409.326 91.31c20.12 0 37.691-10.896 47.124-27.103h-3.772c-9.078 14.351-25.101 23.882-43.352 23.882-18.25 0-34.273-9.53-43.351-23.882h-3.772c9.433 16.207 27.004 27.104 47.123 27.104z"/><path d="M499.876 91.31c20.12 0 37.691-10.896 47.124-27.103h-3.772c-9.078 14.351-25.101 23.882-43.352 23.882-18.251 0-34.273-9.53-43.351-23.882h-3.772c9.432 16.207 27.004 27.104 47.123 27.104z"/><path d="M590.427 91.31c20.119 0 37.691-10.896 47.123-27.103h-3.771c-9.079 14.351-25.101 23.882-43.352 23.882-18.251 0-34.273-9.53-43.352-23.882h-3.771c9.432 16.207 27.004 27.104 47.123 27.104z"/><path d="M680.978 91.31c20.119 0 37.691-10.896 47.123-27.103h-3.772c-9.078 14.351-25.1 23.882-43.351 23.882-18.251 0-34.274-9.53-43.352-23.882h-3.772c9.433 16.207 27.005 27.104 47.124 27.104z"/></g><g opacity=".1" fill="#fff"><path d="M47.123 123.416c20.12 0 37.691-10.896 47.124-27.103h-3.772c-9.078 14.351-25.1 23.881-43.352 23.881-18.25 0-34.273-9.53-43.351-23.882H0c9.432 16.208 27.004 27.104 47.123 27.104z"/><path d="M137.674 123.416c20.119 0 37.691-10.896 47.123-27.103h-3.771c-9.079 14.351-25.101 23.881-43.352 23.881-18.251 0-34.273-9.53-43.352-23.882h-3.771c9.432 16.208 27.004 27.104 47.123 27.104z"/><path d="M228.225 123.416c20.119 0 37.691-10.896 47.123-27.103h-3.771c-9.079 14.351-25.101 23.881-43.352 23.881-18.251 0-34.274-9.53-43.352-23.882h-3.771c9.432 16.208 27.004 27.104 47.123 27.104z"/><path d="M318.776 123.416c20.119 0 37.69-10.896 47.123-27.103h-3.772c-9.078 14.351-25.1 23.881-43.351 23.881-18.251 0-34.274-9.53-43.352-23.882h-3.772c9.433 16.208 27.004 27.104 47.124 27.104z"/><path d="M409.326 123.416c20.12 0 37.691-10.896 47.124-27.103h-3.772c-9.078 14.351-25.101 23.881-43.352 23.881-18.25 0-34.273-9.53-43.351-23.882h-3.772c9.433 16.208 27.004 27.104 47.123 27.104z"/><path d="M499.876 123.416c20.12 0 37.691-10.896 47.124-27.103h-3.772c-9.078 14.351-25.101 23.881-43.352 23.881-18.251 0-34.273-9.53-43.351-23.882h-3.772c9.432 16.208 27.004 27.104 47.123 27.104z"/><path d="M590.427 123.416c20.119 0 37.691-10.896 47.123-27.103h-3.771c-9.079 14.351-25.101 23.881-43.352 23.881-18.251 0-34.273-9.53-43.352-23.882h-3.771c9.432 16.208 27.004 27.104 47.123 27.104z"/><path d="M680.978 123.416c20.119 0 37.691-10.896 47.123-27.103h-3.772c-9.078 14.351-25.1 23.881-43.351 23.881-18.251 0-34.274-9.53-43.352-23.882h-3.772c9.433 16.208 27.005 27.104 47.124 27.104z"/></g><g opacity=".1" fill="#fff"><path d="M47.123 155.518c20.12 0 37.691-10.897 47.124-27.104h-3.772c-9.078 14.351-25.1 23.882-43.352 23.882-18.25 0-34.273-9.531-43.351-23.882H0c9.432 16.207 27.004 27.104 47.123 27.104z"/><path d="M137.674 155.518c20.119 0 37.691-10.897 47.123-27.104h-3.771c-9.079 14.351-25.101 23.882-43.352 23.882-18.251 0-34.273-9.531-43.352-23.882h-3.771c9.432 16.207 27.004 27.104 47.123 27.104z"/><path d="M228.225 155.518c20.119 0 37.691-10.897 47.123-27.104h-3.771c-9.079 14.351-25.101 23.882-43.352 23.882-18.251 0-34.274-9.531-43.352-23.882h-3.771c9.432 16.207 27.004 27.104 47.123 27.104z"/><path d="M318.776 155.518c20.119 0 37.69-10.897 47.123-27.104h-3.772c-9.078 14.351-25.1 23.882-43.351 23.882-18.251 0-34.274-9.531-43.352-23.882h-3.772c9.433 16.207 27.004 27.104 47.124 27.104z"/><path d="M409.326 155.518c20.12 0 37.691-10.897 47.124-27.104h-3.772c-9.078 14.351-25.101 23.882-43.352 23.882-18.25 0-34.273-9.531-43.351-23.882h-3.772c9.433 16.207 27.004 27.104 47.123 27.104z"/><path d="M499.876 155.518c20.12 0 37.691-10.897 47.124-27.104h-3.772c-9.078 14.351-25.101 23.882-43.352 23.882-18.251 0-34.273-9.531-43.351-23.882h-3.772c9.432 16.207 27.004 27.104 47.123 27.104z"/><path d="M590.427 155.518c20.119 0 37.691-10.897 47.123-27.104h-3.771c-9.079 14.351-25.101 23.882-43.352 23.882-18.251 0-34.273-9.531-43.352-23.882h-3.771c9.432 16.207 27.004 27.104 47.123 27.104z"/><path d="M680.978 155.518c20.119 0 37.691-10.897 47.123-27.104h-3.772c-9.078 14.351-25.1 23.882-43.351 23.882-18.251 0-34.274-9.531-43.352-23.882h-3.772c9.433 16.207 27.005 27.104 47.124 27.104z"/></g><g opacity=".1" fill="#fff"><path d="M47.123 187.623c20.12 0 37.691-10.896 47.124-27.103h-3.772c-9.078 14.351-25.1 23.881-43.352 23.881-18.25 0-34.273-9.53-43.351-23.881H0c9.432 16.207 27.004 27.103 47.123 27.103z"/><path d="M137.674 187.623c20.119 0 37.691-10.896 47.123-27.103h-3.771c-9.079 14.351-25.101 23.881-43.352 23.881-18.251 0-34.273-9.53-43.352-23.881h-3.771c9.432 16.207 27.004 27.103 47.123 27.103z"/><path d="M228.225 187.623c20.119 0 37.691-10.896 47.123-27.103h-3.771c-9.079 14.351-25.101 23.881-43.352 23.881-18.251 0-34.274-9.53-43.352-23.881h-3.771c9.432 16.207 27.004 27.103 47.123 27.103z"/><path d="M318.776 187.623c20.119 0 37.69-10.896 47.123-27.103h-3.772c-9.078 14.351-25.1 23.881-43.351 23.881-18.251 0-34.274-9.53-43.352-23.881h-3.772c9.433 16.207 27.004 27.103 47.124 27.103z"/><path d="M409.326 187.623c20.12 0 37.691-10.896 47.124-27.103h-3.772c-9.078 14.351-25.101 23.881-43.352 23.881-18.25 0-34.273-9.53-43.351-23.881h-3.772c9.433 16.207 27.004 27.103 47.123 27.103z"/><path d="M499.876 187.623c20.12 0 37.691-10.896 47.124-27.103h-3.772c-9.078 14.351-25.101 23.881-43.352 23.881-18.251 0-34.273-9.53-43.351-23.881h-3.772c9.432 16.207 27.004 27.103 47.123 27.103z"/><path d="M590.427 187.623c20.119 0 37.691-10.896 47.123-27.103h-3.771c-9.079 14.351-25.101 23.881-43.352 23.881-18.251 0-34.273-9.53-43.352-23.881h-3.771c9.432 16.207 27.004 27.103 47.123 27.103z"/><path d="M680.978 187.623c20.119 0 37.691-10.896 47.123-27.103h-3.772c-9.078 14.351-25.1 23.881-43.351 23.881-18.251 0-34.274-9.53-43.352-23.881h-3.772c9.433 16.207 27.005 27.103 47.124 27.103z"/></g><g opacity=".1" fill="#fff"><path d="M47.123 219.725c20.12 0 37.691-10.897 47.124-27.104h-3.772c-9.078 14.351-25.1 23.882-43.352 23.882-18.25 0-34.273-9.531-43.351-23.882H0c9.432 16.207 27.004 27.104 47.123 27.104z"/><path d="M137.674 219.725c20.119 0 37.691-10.897 47.123-27.104h-3.771c-9.079 14.351-25.101 23.882-43.352 23.882-18.251 0-34.273-9.531-43.352-23.882h-3.771c9.432 16.207 27.004 27.104 47.123 27.104z"/><path d="M228.225 219.725c20.119 0 37.691-10.897 47.123-27.104h-3.771c-9.079 14.351-25.101 23.882-43.352 23.882-18.251 0-34.274-9.531-43.352-23.882h-3.771c9.432 16.207 27.004 27.104 47.123 27.104z"/><path d="M318.776 219.725c20.119 0 37.69-10.897 47.123-27.104h-3.772c-9.078 14.351-25.1 23.882-43.351 23.882-18.251 0-34.274-9.531-43.352-23.882h-3.772c9.433 16.207 27.004 27.104 47.124 27.104z"/><path d="M409.326 219.725c20.12 0 37.691-10.897 47.124-27.104h-3.772c-9.078 14.351-25.101 23.882-43.352 23.882-18.25 0-34.273-9.531-43.351-23.882h-3.772c9.433 16.207 27.004 27.104 47.123 27.104z"/><path d="M499.876 219.725c20.12 0 37.691-10.897 47.124-27.104h-3.772c-9.078 14.351-25.101 23.882-43.352 23.882-18.251 0-34.273-9.531-43.351-23.882h-3.772c9.432 16.207 27.004 27.104 47.123 27.104z"/><path d="M590.427 219.725c20.119 0 37.691-10.897 47.123-27.104h-3.771c-9.079 14.351-25.101 23.882-43.352 23.882-18.251 0-34.273-9.531-43.352-23.882h-3.771c9.432 16.207 27.004 27.104 47.123 27.104z"/><path d="M680.978 219.725c20.119 0 37.691-10.897 47.123-27.104h-3.772c-9.078 14.351-25.1 23.882-43.351 23.882-18.251 0-34.274-9.531-43.352-23.882h-3.772c9.433 16.207 27.005 27.104 47.124 27.104z"/></g><g opacity=".1" fill="#fff"><path d="M47.123 251.83c20.12 0 37.691-10.896 47.124-27.103h-3.772c-9.078 14.351-25.1 23.881-43.352 23.881-18.25 0-34.273-9.53-43.351-23.881H0c9.432 16.207 27.004 27.103 47.123 27.103z"/><path d="M137.674 251.83c20.119 0 37.691-10.896 47.123-27.103h-3.771c-9.079 14.351-25.101 23.881-43.352 23.881-18.251 0-34.273-9.53-43.352-23.881h-3.771c9.432 16.207 27.004 27.103 47.123 27.103z"/><path d="M228.225 251.83c20.119 0 37.691-10.896 47.123-27.103h-3.771c-9.079 14.351-25.101 23.881-43.352 23.881-18.251 0-34.274-9.53-43.352-23.881h-3.771c9.432 16.207 27.004 27.103 47.123 27.103z"/><path d="M318.776 251.83c20.119 0 37.69-10.896 47.123-27.103h-3.772c-9.078 14.351-25.1 23.881-43.351 23.881-18.251 0-34.274-9.53-43.352-23.881h-3.772c9.433 16.207 27.004 27.103 47.124 27.103z"/><path d="M409.326 251.83c20.12 0 37.691-10.896 47.124-27.103h-3.772c-9.078 14.351-25.101 23.881-43.352 23.881-18.25 0-34.273-9.53-43.351-23.881h-3.772c9.433 16.207 27.004 27.103 47.123 27.103z"/><path d="M499.876 251.83c20.12 0 37.691-10.896 47.124-27.103h-3.772c-9.078 14.351-25.101 23.881-43.352 23.881-18.251 0-34.273-9.53-43.351-23.881h-3.772c9.432 16.207 27.004 27.103 47.123 27.103z"/><path d="M590.427 251.83c20.119 0 37.691-10.896 47.123-27.103h-3.771c-9.079 14.351-25.101 23.881-43.352 23.881-18.251 0-34.273-9.53-43.352-23.881h-3.771c9.432 16.207 27.004 27.103 47.123 27.103z"/><path d="M680.978 251.83c20.119 0 37.691-10.896 47.123-27.103h-3.772c-9.078 14.351-25.1 23.881-43.351 23.881-18.251 0-34.274-9.53-43.352-23.881h-3.772c9.433 16.207 27.005 27.103 47.124 27.103z"/></g><g opacity=".1" fill="#fff"><path d="M47.123 283.932c20.12 0 37.691-10.897 47.124-27.104h-3.772c-9.078 14.351-25.1 23.882-43.352 23.882-18.25 0-34.273-9.531-43.351-23.882H0c9.432 16.207 27.004 27.104 47.123 27.104z"/><path d="M137.674 283.932c20.119 0 37.691-10.897 47.123-27.104h-3.771c-9.079 14.351-25.101 23.882-43.352 23.882-18.251 0-34.273-9.531-43.352-23.882h-3.771c9.432 16.207 27.004 27.104 47.123 27.104z"/><path d="M228.225 283.932c20.119 0 37.691-10.897 47.123-27.104h-3.771c-9.079 14.351-25.101 23.882-43.352 23.882-18.251 0-34.274-9.531-43.352-23.882h-3.771c9.432 16.207 27.004 27.104 47.123 27.104z"/><path d="M318.776 283.932c20.119 0 37.69-10.897 47.123-27.104h-3.772c-9.078 14.351-25.1 23.882-43.351 23.882-18.251 0-34.274-9.531-43.352-23.882h-3.772c9.433 16.207 27.004 27.104 47.124 27.104z"/><path d="M409.326 283.932c20.12 0 37.691-10.897 47.124-27.104h-3.772c-9.078 14.351-25.101 23.882-43.352 23.882-18.25 0-34.273-9.531-43.351-23.882h-3.772c9.433 16.207 27.004 27.104 47.123 27.104z"/><path d="M499.876 283.932c20.12 0 37.691-10.897 47.124-27.104h-3.772c-9.078 14.351-25.101 23.882-43.352 23.882-18.251 0-34.273-9.531-43.351-23.882h-3.772c9.432 16.207 27.004 27.104 47.123 27.104z"/><path d="M590.427 283.932c20.119 0 37.691-10.897 47.123-27.104h-3.771c-9.079 14.351-25.101 23.882-43.352 23.882-18.251 0-34.273-9.531-43.352-23.882h-3.771c9.432 16.207 27.004 27.104 47.123 27.104z"/><path d="M680.978 283.932c20.119 0 37.691-10.897 47.123-27.104h-3.772c-9.078 14.351-25.1 23.882-43.351 23.882-18.251 0-34.274-9.531-43.352-23.882h-3.772c9.433 16.207 27.005 27.104 47.124 27.104z"/></g><g opacity=".1" fill="#fff"><path d="M775.123 27.104c20.12 0 37.691-10.897 47.124-27.104h-3.772c-9.078 14.351-25.101 23.882-43.352 23.882-18.251 0-34.273-9.531-43.351-23.882H728c9.432 16.207 27.004 27.104 47.123 27.104z"/><path d="M865.674 27.104c20.119 0 37.691-10.897 47.123-27.104h-3.771c-9.079 14.351-25.101 23.882-43.352 23.882-18.251 0-34.273-9.531-43.352-23.882h-3.771c9.432 16.207 27.004 27.104 47.123 27.104z"/></g><g opacity=".1" fill="#fff"><path d="M775.123 59.21c20.12 0 37.691-10.897 47.124-27.105h-3.772c-9.078 14.352-25.101 23.882-43.352 23.882-18.251 0-34.273-9.53-43.351-23.882H728c9.432 16.208 27.004 27.104 47.123 27.104z"/><path d="M865.674 59.21c20.119 0 37.691-10.897 47.123-27.105h-3.771c-9.079 14.352-25.101 23.882-43.352 23.882-18.251 0-34.273-9.53-43.352-23.882h-3.771c9.432 16.208 27.004 27.104 47.123 27.104z"/></g><g opacity=".1" fill="#fff"><path d="M775.123 91.31c20.12 0 37.691-10.896 47.124-27.103h-3.772c-9.078 14.351-25.101 23.882-43.352 23.882-18.251 0-34.273-9.53-43.351-23.882H728c9.432 16.207 27.004 27.104 47.123 27.104z"/><path d="M865.674 91.31c20.119 0 37.691-10.896 47.123-27.103h-3.771c-9.079 14.351-25.101 23.882-43.352 23.882-18.251 0-34.273-9.53-43.352-23.882h-3.771c9.432 16.207 27.004 27.104 47.123 27.104z"/></g><g opacity=".1" fill="#fff"><path d="M775.123 123.416c20.12 0 37.691-10.896 47.124-27.103h-3.772c-9.078 14.351-25.101 23.881-43.352 23.881-18.251 0-34.273-9.53-43.351-23.882H728c9.432 16.208 27.004 27.104 47.123 27.104z"/><path d="M865.674 123.416c20.119 0 37.691-10.896 47.123-27.103h-3.771c-9.079 14.351-25.101 23.881-43.352 23.881-18.251 0-34.273-9.53-43.352-23.882h-3.771c9.432 16.208 27.004 27.104 47.123 27.104z"/></g><g opacity=".1" fill="#fff"><path d="M775.123 155.518c20.12 0 37.691-10.897 47.124-27.104h-3.772c-9.078 14.351-25.101 23.882-43.352 23.882-18.251 0-34.273-9.531-43.351-23.882H728c9.432 16.207 27.004 27.104 47.123 27.104z"/><path d="M865.674 155.518c20.119 0 37.691-10.897 47.123-27.104h-3.771c-9.079 14.351-25.101 23.882-43.352 23.882-18.251 0-34.273-9.531-43.352-23.882h-3.771c9.432 16.207 27.004 27.104 47.123 27.104z"/></g><g opacity=".1" fill="#fff"><path d="M775.123 187.623c20.12 0 37.691-10.896 47.124-27.103h-3.772c-9.078 14.351-25.101 23.881-43.352 23.881-18.251 0-34.273-9.53-43.351-23.881H728c9.432 16.207 27.004 27.103 47.123 27.103z"/><path d="M865.674 187.623c20.119 0 37.691-10.896 47.123-27.103h-3.771c-9.079 14.351-25.101 23.881-43.352 23.881-18.251 0-34.273-9.53-43.352-23.881h-3.771c9.432 16.207 27.004 27.103 47.123 27.103z"/></g><g opacity=".1" fill="#fff"><path d="M775.123 219.725c20.12 0 37.691-10.897 47.124-27.104h-3.772c-9.078 14.351-25.101 23.882-43.352 23.882-18.251 0-34.273-9.531-43.351-23.882H728c9.432 16.207 27.004 27.104 47.123 27.104z"/><path d="M865.674 219.725c20.119 0 37.691-10.897 47.123-27.104h-3.771c-9.079 14.351-25.101 23.882-43.352 23.882-18.251 0-34.273-9.531-43.352-23.882h-3.771c9.432 16.207 27.004 27.104 47.123 27.104z"/></g><g opacity=".1" fill="#fff"><path d="M775.123 251.83c20.12 0 37.691-10.896 47.124-27.103h-3.772c-9.078 14.351-25.101 23.881-43.352 23.881-18.251 0-34.273-9.53-43.351-23.881H728c9.432 16.207 27.004 27.103 47.123 27.103z"/><path d="M865.674 251.83c20.119 0 37.691-10.896 47.123-27.103h-3.771c-9.079 14.351-25.101 23.881-43.352 23.881-18.251 0-34.273-9.53-43.352-23.881h-3.771c9.432 16.207 27.004 27.103 47.123 27.103z"/></g><g opacity=".1" fill="#fff"><path d="M775.123 283.932c20.12 0 37.691-10.897 47.124-27.104h-3.772c-9.078 14.351-25.101 23.882-43.352 23.882-18.251 0-34.273-9.531-43.351-23.882H728c9.432 16.207 27.004 27.104 47.123 27.104z"/><path d="M865.674 283.932c20.119 0 37.691-10.897 47.123-27.104h-3.771c-9.079 14.351-25.101 23.882-43.352 23.882-18.251 0-34.273-9.531-43.352-23.882h-3.771c9.432 16.207 27.004 27.104 47.123 27.104z"/></g></svg>