<svg width="24" height="23" viewBox="0 0 24 23" fill="none" xmlns="http://www.w3.org/2000/svg"><g clip-path="url(#clip0_134_850)"><path d="M9.684 21.237c0 .685-.541 1.222-1.188 1.222-.646 0-1.187-.537-1.187-1.222 0-.684.54-1.221 1.187-1.221s1.188.537 1.188 1.221z" fill="#BDBDBD" stroke="#F8F8F8"/><path d="M19.938 21.237c0 .685-.542 1.222-1.188 1.222-.646 0-1.188-.537-1.188-1.222 0-.684.542-1.221 1.188-1.221.646 0 1.188.537 1.188 1.221z" fill="#BDBDBD" stroke="#fff"/><path d="M22.916 2.89h0a.252.252 0 00-.086-.07.238.238 0 00-.102-.023H7.8l.17.53h14.399l-.132.606-2.002 9.183-.086.394H8.127l-.11-.353-3.426-11.07s0 0 0 0a.268.268 0 00-.065-.108.247.247 0 00-.102-.062h0L1.347.952s0 0 0 0a.239.239 0 00-.186.019.265.265 0 00-.127.157.283.283 0 00.02.211.257.257 0 00.15.128l2.692.842.25.078.078.251 3.443 11.096.099.318-.256.214-1.211 1.01-.067.067a1.563 1.563 0 00-.038 1.948c.156.191.351.342.572.442.222.1.464.146.706.134h12.542a.243.243 0 00.174-.075.273.273 0 00.076-.191.273.273 0 00-.076-.191.243.243 0 00-.174-.074H7.361a.995.995 0 01-.843-.522M22.916 2.891L6.518 16.814M22.916 2.891l.009.01a.272.272 0 01.058.227m-.067-.237l.067.237M6.518 16.814a1.02 1.02 0 01.003-.986l.044-.08.07-.06 1.807-1.53.14-.118h11.776a.241.241 0 00.156-.053.268.268 0 00.093-.152h0l2.376-10.707M6.518 16.814L22.983 3.128" fill="#fff" stroke="#fff"/></g><defs><clipPath id="clip0_134_850"><path fill="#fff" d="M0 0h24v22.956H0z"/></clipPath></defs></svg>