<svg width="20" height="20" viewBox="0 0 20 20" xmlns="http://www.w3.org/2000/svg">
<path fill-rule="evenodd" clip-rule="evenodd" d="M10.0291 8.98114L6.31035 5.26244C6.03029 4.98237 5.57622 4.98237 5.29616 5.26244C5.0161 5.5425 5.0161 5.99657 5.29616 6.27663L10.0291 11.0095L14.7619 6.27663C15.042 5.99657 15.042 5.5425 14.7619 5.26243C14.4819 4.98237 14.0278 4.98237 13.7478 5.26244L10.0291 8.98114Z"/>
<path fill-rule="evenodd" clip-rule="evenodd" d="M10.0256 11.0423L13.7443 14.761C14.0244 15.0411 14.4785 15.0411 14.7585 14.761C15.0386 14.4809 15.0386 14.0269 14.7585 13.7468L10.0256 9.01392L5.29274 13.7468C5.01268 14.0269 5.01268 14.4809 5.29274 14.761C5.5728 15.0411 6.02687 15.0411 6.30693 14.761L10.0256 11.0423Z"/>
</svg>
