<svg xmlns="http://www.w3.org/2000/svg" width="25" height="22" viewBox="0 0 25 22"><path d="M24.647 12.85c0-6.546-5.325-11.871-11.87-11.871C6.23.979.907 6.304.907 12.849a11.89 11.89 0 003.455 8.373c.212-1.586 1.39-2.967 3.07-3.529l3.53-1.182a.294.294 0 01.204.007 4.214 4.214 0 003.222 0 .294.294 0 01.203-.007l3.53 1.182c1.68.562 2.858 1.943 3.071 3.53a11.894 11.894 0 003.455-8.374zm-10.003 2.415a4.145 4.145 0 01-1.867.45 4.14 4.14 0 01-1.867-.45c-1.827-.914-3.103-3.11-3.103-5.34 0-2.98 2.23-5.406 4.97-5.406 2.74 0 4.97 2.425 4.97 5.407 0 2.23-1.276 4.425-3.104 5.339z"/></svg>