<svg xmlns="http://www.w3.org/2000/svg" width="22" height="23" viewBox="0 0 22 23"><path d="M17.201 3.435A2.093 2.093 0 0015.21 2H7.333c-.906 0-1.704.574-1.991 1.435l-1.436 4.27h1.902L7.046 4.01a.299.299 0 01.287-.207h7.877c.125 0 .242.08.287.207l1.229 3.696h1.902L17.2 3.436zm3.984 6.073H1.36a.601.601 0 00-.601.6v3.006a.6.6 0 00.6.601h1.033l1.22 7.994c.09.583.592 1.022 1.184 1.022H17.75c.592 0 1.095-.43 1.184-1.023l1.22-7.993h1.032a.6.6 0 00.601-.6v-3.006a.601.601 0 00-.6-.601zM7.962 19.42a.9.9 0 01-.897.897.9.9 0 01-.898-.897v-3.902a.9.9 0 01.898-.898.9.9 0 01.897.897v3.903zm4.207 0a.9.9 0 01-.897.897.9.9 0 01-.897-.897v-3.902a.9.9 0 01.897-.898.9.9 0 01.897.897v3.903zm4.207 0a.9.9 0 01-.897.897.9.9 0 01-.897-.897v-3.902a.9.9 0 01.897-.898.9.9 0 01.898.897v3.903z"/><path d="M19.537 0h1.887v8.56H19.02V3.581H17V1.984l.192-.013c.65-.04 1.162-.208 1.54-.504.376-.305.644-.794.805-1.467z" fill="#fff"/></svg>