<svg width="153" height="45" viewBox="0 0 153 45" fill="none" xmlns="http://www.w3.org/2000/svg">
<path d="M22.3197 18.0724C23.2048 18.0724 23.923 17.3485 23.923 16.4563C23.923 15.5641 23.2048 14.8402 22.3197 14.8402C21.4346 14.8402 20.7165 15.5641 20.7165 16.4563C20.7196 17.3485 21.4346 18.0724 22.3197 18.0724ZM25.9893 29.7756C25.0538 28.8358 24.2411 27.769 23.5797 26.6069L22.3229 24.3876L21.0629 26.6069C20.4015 27.769 19.5888 28.8358 18.6533 29.7756C17.5005 27.1721 16.8579 24.286 16.8579 21.2474C16.8579 15.7959 18.9242 10.8333 22.3166 7.10576C25.7121 10.8301 27.7847 15.7895 27.7847 21.2474C27.7847 24.286 27.1453 27.1721 25.9893 29.7756ZM22.3229 35.3923C21.4913 34.4811 20.7417 33.4936 20.0802 32.4459C20.9023 31.6965 21.652 30.871 22.3229 29.9788C22.9938 30.871 23.7434 31.6965 24.5624 32.4459C23.9072 33.4968 23.1544 34.4811 22.3229 35.3923ZM8.19902 37.0592C7.13122 37.0592 6.08548 36.9639 5.07438 36.783C6.69655 38.7769 8.65889 40.4819 10.8638 41.8154C14.3727 41.155 17.5698 39.6056 20.2188 37.4085C19.3179 36.4242 18.499 35.3605 17.7714 34.2334C15.009 36.021 11.7205 37.0592 8.19902 37.0592ZM36.4436 34.135C38.4311 34.135 40.3242 33.7413 42.0534 33.0269C43.7071 29.8868 44.6426 26.3053 44.6426 22.5016C44.6457 10.0744 34.6513 0 22.3229 0C9.99442 0 0 10.0744 0 22.5016C0 26.3053 0.935501 29.8868 2.58916 33.0269C4.31842 33.7413 6.21462 34.135 8.19902 34.135C11.2071 34.135 14.001 33.2333 16.335 31.6807C14.8105 28.5278 13.9569 24.9877 13.9569 21.2474C13.9569 14.4433 16.7855 8.30593 21.3149 3.96246L22.3134 3.0036L23.3151 3.95929C27.8508 8.30276 30.6857 14.437 30.6857 21.2443C30.6857 24.9845 29.8321 28.5247 28.3107 31.6775C30.6447 33.2333 33.4386 34.135 36.4436 34.135ZM39.5745 36.783C37.9492 38.7769 35.9868 40.4819 33.782 41.8154C30.273 41.155 27.076 39.6056 24.427 37.4085C25.3278 36.4242 26.1468 35.3605 26.8775 34.2334C29.6336 36.0241 32.9221 37.0624 36.4436 37.0624C37.5145 37.0592 38.5571 36.9639 39.5745 36.783ZM22.3229 45C24.9152 45 27.4067 44.5555 29.7218 43.7332C26.9878 42.7584 24.4837 41.2915 22.3229 39.4405C20.1558 41.2915 17.6517 42.7584 14.9208 43.7332C17.239 44.5555 19.7306 45 22.3229 45Z" fill="white"/>
<path d="M146.319 34.2221V32.86H145.541C145.255 32.86 145.037 32.9171 144.886 33.0282C144.735 33.1362 144.663 33.2981 144.663 33.514C144.663 33.5966 144.678 33.6791 144.707 33.7649C144.738 33.8474 144.789 33.9236 144.858 33.9903C144.93 34.0601 145.022 34.1141 145.132 34.1586C145.245 34.1998 145.384 34.2221 145.541 34.2221H146.319ZM143.869 35.6064C143.992 35.4191 144.124 35.254 144.263 35.1047C144.398 34.9587 144.556 34.8412 144.729 34.7618C144.581 34.7047 144.445 34.6412 144.326 34.565C144.206 34.4856 144.102 34.3935 144.014 34.2887C143.932 34.184 143.866 34.0633 143.818 33.93C143.774 33.7934 143.749 33.6379 143.749 33.4632C143.749 33.2473 143.8 33.0505 143.9 32.879C144.007 32.7044 144.14 32.5583 144.304 32.4377C144.474 32.3139 144.666 32.2186 144.88 32.1519C145.094 32.0853 145.318 32.0535 145.541 32.0535H147.208V36.5748H146.319V34.9238H146.064C145.945 34.9238 145.834 34.9365 145.721 34.9587C145.614 34.9809 145.51 35.0222 145.409 35.0762C145.311 35.1301 145.214 35.2032 145.119 35.2984C145.025 35.3905 144.933 35.5048 144.848 35.6413L144.259 36.5748H143.207L143.869 35.6064ZM139.516 32.8568V35.6604C139.793 35.7937 140.07 35.8604 140.354 35.8604C140.562 35.8604 140.754 35.8223 140.924 35.7461C141.1 35.6667 141.251 35.5619 141.377 35.4254C141.503 35.2921 141.604 35.1301 141.677 34.9428C141.749 34.7555 141.784 34.5523 141.784 34.3332C141.784 34.1014 141.749 33.8919 141.67 33.7077C141.598 33.5236 141.494 33.3712 141.362 33.2441C141.229 33.1171 141.075 33.0187 140.899 32.9552C140.722 32.8854 140.533 32.8504 140.325 32.8504H139.516V32.8568ZM140.168 32.0535C140.987 32.0535 141.607 32.2504 142.042 32.6441C142.477 33.0378 142.694 33.6061 142.694 34.3491C142.694 34.6888 142.637 35.0031 142.524 35.2889C142.414 35.5715 142.259 35.8159 142.051 36.0223C141.85 36.2255 141.607 36.3843 141.33 36.4986C141.053 36.6097 140.747 36.6669 140.417 36.6669C140.269 36.6669 140.127 36.651 139.985 36.6161C139.847 36.5875 139.686 36.5367 139.513 36.4636V38.8926H138.624V32.0535H140.168ZM135.185 32.7711C134.974 32.7711 134.782 32.8092 134.602 32.8854C134.429 32.9616 134.274 33.0663 134.145 33.1997C134.016 33.3299 133.915 33.4886 133.84 33.6728C133.77 33.8569 133.733 34.057 133.733 34.2729C133.733 34.511 133.767 34.7301 133.837 34.9269C133.906 35.1238 134.004 35.2921 134.133 35.4318C134.265 35.5683 134.416 35.6762 134.593 35.7524C134.769 35.8286 134.967 35.8667 135.185 35.8667C135.418 35.8667 135.629 35.8318 135.818 35.7588C136.007 35.6826 136.167 35.5778 136.297 35.4445C136.432 35.3079 136.533 35.1397 136.605 34.9492C136.678 34.7523 136.712 34.53 136.712 34.2856C136.712 34.0665 136.675 33.8633 136.593 33.6823C136.52 33.4982 136.413 33.3394 136.278 33.206C136.145 33.0727 135.982 32.9679 135.793 32.8917C135.607 32.806 135.408 32.7711 135.185 32.7711ZM135.194 31.9646C135.547 31.9646 135.871 32.0218 136.164 32.1361C136.464 32.2504 136.719 32.4123 136.933 32.6187C137.15 32.8219 137.32 33.0632 137.44 33.3457C137.557 33.6283 137.62 33.9363 137.62 34.2697C137.62 34.6285 137.557 34.9523 137.44 35.2476C137.32 35.5429 137.157 35.7937 136.942 36.0033C136.734 36.2128 136.476 36.3747 136.177 36.4891C135.881 36.6034 135.55 36.6605 135.191 36.6605C134.845 36.6605 134.53 36.6002 134.24 36.4827C133.95 36.3621 133.701 36.1969 133.487 35.9874C133.282 35.7747 133.118 35.5207 133.002 35.2317C132.882 34.9365 132.829 34.6158 132.829 34.2697C132.829 33.9458 132.889 33.6442 133.008 33.3648C133.128 33.0822 133.295 32.8377 133.503 32.6314C133.717 32.4218 133.969 32.2567 134.256 32.1392C134.548 32.0218 134.86 31.9646 135.194 31.9646ZM128.12 32.0535L129.509 34.8444L130.829 32.0535H131.726L132.048 36.5748H131.206L130.926 33.4918L129.509 36.5748L127.987 33.4632L127.757 36.5748H126.92L127.225 32.0535H128.12ZM122.179 33.676L119.593 36.6637H119.092V32.0535H119.98V35.1365L122.589 32.0535H123.067V36.5748H122.179V33.676ZM115.703 33.876C115.898 33.876 116.065 33.822 116.204 33.7172C116.342 33.6125 116.468 33.4569 116.579 33.2505L116.846 32.7488C116.919 32.6123 116.994 32.498 117.064 32.4091C117.139 32.317 117.218 32.244 117.3 32.1932C117.382 32.1424 117.476 32.1043 117.577 32.0853C117.678 32.063 117.791 32.0503 117.924 32.0503H118.116V32.8568H117.914C117.81 32.8568 117.728 32.8854 117.669 32.9393C117.609 32.9965 117.555 33.0695 117.505 33.1616L117.275 33.5744C117.221 33.676 117.165 33.7617 117.111 33.8315C117.057 33.9014 116.998 33.9585 116.941 34.0093C116.884 34.0538 116.821 34.0951 116.758 34.1268C116.692 34.1586 116.62 34.1903 116.544 34.2189C116.654 34.2506 116.755 34.2951 116.846 34.3522C116.938 34.4062 117.023 34.4729 117.105 34.5586C117.19 34.6412 117.272 34.7428 117.354 34.8634C117.435 34.9841 117.52 35.1301 117.612 35.2952L118.292 36.5748H117.316L116.708 35.346C116.563 35.0635 116.402 34.8666 116.223 34.7523C116.043 34.638 115.87 34.5808 115.694 34.5808H115.58V36.578H114.695V32.0567H115.58V33.8792H115.703V33.876ZM111.199 34.6126V35.7683H112.008C112.119 35.7683 112.219 35.7588 112.317 35.7397C112.411 35.7175 112.493 35.6826 112.563 35.635C112.632 35.5873 112.682 35.5238 112.723 35.454C112.761 35.3778 112.783 35.2889 112.783 35.1841C112.783 35.0857 112.755 35.0031 112.708 34.9333C112.654 34.8602 112.582 34.8031 112.487 34.7555C112.396 34.7078 112.289 34.6697 112.163 34.6475C112.04 34.6253 111.904 34.6126 111.756 34.6126H111.199ZM111.199 32.8568V34.0157H111.867C112.115 34.0157 112.308 33.9681 112.452 33.8728C112.597 33.7744 112.667 33.6029 112.667 33.3616C112.667 33.2695 112.641 33.1933 112.594 33.1298C112.547 33.0632 112.481 33.0124 112.405 32.9743C112.326 32.933 112.241 32.9012 112.147 32.8854C112.052 32.8663 111.961 32.8568 111.87 32.8568H111.199ZM110.311 36.5748V32.0535H112.008C112.254 32.0535 112.468 32.0821 112.66 32.1424C112.856 32.1964 113.019 32.2789 113.152 32.3869C113.29 32.4917 113.394 32.6187 113.463 32.7647C113.536 32.9108 113.577 33.0759 113.577 33.2505C113.577 33.3807 113.555 33.5045 113.517 33.6156C113.479 33.7236 113.429 33.8188 113.366 33.9046C113.303 33.9903 113.234 34.0633 113.152 34.1268C113.076 34.1903 112.994 34.2411 112.912 34.2792C113.013 34.3237 113.111 34.3776 113.202 34.438C113.297 34.4951 113.378 34.5618 113.451 34.6443C113.523 34.7269 113.58 34.8221 113.621 34.9333C113.662 35.0412 113.684 35.1682 113.684 35.3175C113.684 35.4762 113.659 35.6286 113.602 35.781C113.552 35.9302 113.463 36.0668 113.347 36.1842C113.227 36.3017 113.07 36.397 112.871 36.47C112.679 36.543 112.443 36.578 112.159 36.578H110.311V36.5748ZM108.014 34.3364C107.825 34.403 107.646 34.4697 107.473 34.5396C107.306 34.6094 107.154 34.6824 107.025 34.765C106.896 34.8475 106.792 34.9396 106.713 35.0412C106.638 35.1428 106.6 35.2603 106.6 35.3937C106.6 35.4857 106.616 35.5715 106.647 35.6508C106.679 35.7302 106.723 35.7969 106.78 35.8509C106.833 35.908 106.902 35.9493 106.978 35.9842C107.06 36.0128 107.145 36.0287 107.236 36.0287C107.375 36.0287 107.51 35.9969 107.636 35.9302C107.765 35.8636 107.891 35.7747 108.011 35.6604V34.3364H108.014ZM108.014 33.8474V33.6061C108.014 33.3203 107.945 33.1171 107.813 32.9965C107.68 32.8727 107.476 32.8092 107.202 32.8092C106.959 32.8092 106.713 32.8695 106.474 32.9901C106.231 33.1076 106.005 33.2981 105.79 33.5553V32.5774C106.14 32.1678 106.635 31.9646 107.277 31.9646C107.504 31.9646 107.721 31.9932 107.917 32.0535C108.115 32.1107 108.285 32.2027 108.433 32.3234C108.578 32.444 108.695 32.5996 108.78 32.7901C108.865 32.9774 108.906 33.1965 108.906 33.4537V35.7778C108.906 35.8636 108.921 35.9239 108.943 35.9588C108.972 35.9906 109.016 36.0064 109.069 36.0064C109.117 36.0064 109.183 35.9842 109.265 35.9429C109.35 35.9017 109.441 35.8413 109.545 35.7651V36.3112C109.441 36.3811 109.353 36.4383 109.277 36.4827C109.202 36.524 109.132 36.5589 109.069 36.5843C109.003 36.6097 108.94 36.6288 108.877 36.6383C108.817 36.651 108.758 36.6573 108.688 36.6573C108.493 36.6573 108.339 36.6224 108.228 36.5557C108.121 36.4827 108.049 36.362 108.005 36.1969C107.81 36.3525 107.611 36.47 107.413 36.5462C107.211 36.6224 107.009 36.6605 106.802 36.6605C106.638 36.6605 106.487 36.6319 106.351 36.5716C106.219 36.5081 106.099 36.4287 106.002 36.3271C105.904 36.2255 105.831 36.108 105.778 35.9779C105.728 35.8445 105.702 35.7016 105.702 35.5556C105.702 35.3492 105.74 35.1746 105.816 35.0285C105.888 34.8857 105.995 34.7586 106.128 34.6539C106.26 34.5459 106.42 34.4507 106.609 34.3681C106.798 34.2856 107.006 34.203 107.236 34.1236L108.014 33.8474ZM103.671 32.8568V36.5748H102.776V32.8568H101.204V32.0503H105.246V32.8568H103.671ZM100.666 36.4033C100.59 36.4383 100.502 36.4732 100.398 36.5049C100.294 36.5335 100.184 36.5621 100.061 36.5843C99.9413 36.6097 99.8153 36.6288 99.6893 36.6446C99.5664 36.6573 99.4467 36.6637 99.3302 36.6637C98.9963 36.6637 98.6876 36.6065 98.4104 36.4954C98.1301 36.3843 97.8907 36.2287 97.686 36.0287C97.4875 35.8286 97.33 35.5905 97.2198 35.3143C97.1064 35.0349 97.0529 34.7301 97.0529 34.3999C97.0529 34.0252 97.1064 33.6887 97.2104 33.3934C97.3174 33.0917 97.4655 32.8377 97.6545 32.625C97.8466 32.4123 98.0766 32.2472 98.3506 32.1329C98.6215 32.0186 98.9333 31.9614 99.2703 31.9614C99.3995 31.9614 99.5223 31.971 99.6294 31.9868C99.7428 31.9995 99.8468 32.0186 99.9476 32.0472C100.052 32.0726 100.155 32.1075 100.256 32.1456C100.357 32.1837 100.461 32.2281 100.568 32.2789V33.2315C100.442 33.1457 100.322 33.0759 100.212 33.0187C100.105 32.9584 100.001 32.9139 99.9003 32.8822C99.8027 32.8473 99.7082 32.8219 99.6137 32.8092C99.5223 32.7965 99.4278 32.7901 99.3302 32.7901C99.1286 32.7901 98.9428 32.8282 98.7758 32.9044C98.6057 32.9774 98.4608 33.079 98.3411 33.2156C98.2214 33.3489 98.127 33.5109 98.0577 33.6982C97.9915 33.8855 97.96 34.0919 97.96 34.3237C97.96 34.5586 97.9947 34.7713 98.0671 34.9587C98.1364 35.1428 98.2403 35.2984 98.3726 35.4254C98.5049 35.5524 98.6656 35.6508 98.8514 35.7207C99.0404 35.7905 99.2483 35.8223 99.4814 35.8223C99.6704 35.8223 99.8594 35.7969 100.048 35.7493C100.237 35.7016 100.445 35.6254 100.669 35.5238V36.4033H100.666ZM93.8463 32.7711C93.6353 32.7711 93.4431 32.8092 93.2636 32.8854C93.0904 32.9616 92.936 33.0663 92.8069 33.1997C92.6777 33.3299 92.577 33.4886 92.5014 33.6728C92.4321 33.8569 92.3943 34.057 92.3943 34.2729C92.3943 34.511 92.4289 34.7301 92.4982 34.9269C92.5675 35.1238 92.6683 35.2921 92.7974 35.4318C92.9266 35.5683 93.0778 35.6762 93.2542 35.7524C93.4337 35.8286 93.629 35.8667 93.8463 35.8667C94.0794 35.8667 94.2905 35.8318 94.4795 35.7588C94.6684 35.6826 94.8291 35.5778 94.9582 35.4445C95.0905 35.3079 95.1913 35.1397 95.2669 34.9492C95.3394 34.7523 95.374 34.53 95.374 34.2856C95.374 34.0665 95.3362 33.8633 95.2543 33.6823C95.1819 33.4982 95.0748 33.3394 94.9393 33.206C94.807 33.0727 94.6432 32.9679 94.4542 32.8917C94.2716 32.806 94.07 32.7711 93.8463 32.7711ZM93.8558 31.9646C94.2086 31.9646 94.533 32.0218 94.8259 32.1361C95.1252 32.2504 95.3803 32.4123 95.5945 32.6187C95.8118 32.8219 95.9819 33.0632 96.1016 33.3457C96.2213 33.6283 96.2812 33.9363 96.2812 34.2697C96.2812 34.6285 96.2213 34.9523 96.1016 35.2476C95.9819 35.5429 95.8181 35.7937 95.6039 36.0033C95.396 36.2128 95.1378 36.3747 94.8385 36.4891C94.5424 36.6034 94.2117 36.6605 93.8526 36.6605C93.5061 36.6605 93.1912 36.6002 92.9014 36.4827C92.6116 36.3621 92.3628 36.1969 92.1517 35.9874C91.9438 35.7747 91.78 35.5207 91.6603 35.2317C91.547 34.9365 91.4871 34.6158 91.4871 34.2697C91.4871 33.9458 91.5469 33.6442 91.6666 33.3648C91.7863 33.0822 91.9533 32.8377 92.1612 32.6314C92.3754 32.4218 92.6273 32.2567 92.914 32.1392C93.2101 32.0218 93.5219 31.9646 93.8558 31.9646ZM89.7295 35.7683L88.6617 33.3934L87.575 35.7683H89.7295ZM91.0272 37.594H90.1484V36.5748H87.1655V37.594H86.2836V35.7715H86.6553L88.4727 31.9678H88.9704L90.6618 35.7715H91.0272V37.594ZM83.0487 36.4033C82.9731 36.4383 82.8818 36.4732 82.781 36.5049C82.677 36.5335 82.5668 36.5621 82.4439 36.5843C82.3242 36.6097 82.1982 36.6288 82.0723 36.6446C81.9494 36.6573 81.8297 36.6637 81.7132 36.6637C81.3761 36.6637 81.0706 36.6065 80.7934 36.4954C80.5131 36.3843 80.2705 36.2287 80.069 36.0287C79.8705 35.8286 79.713 35.5905 79.6028 35.3143C79.4894 35.0349 79.4358 34.7301 79.4358 34.3999C79.4358 34.0252 79.4894 33.6887 79.5933 33.3934C79.6973 33.0917 79.8485 32.8377 80.0375 32.625C80.2296 32.4123 80.4595 32.2472 80.7336 32.1329C81.0045 32.0186 81.3131 31.9614 81.6533 31.9614C81.7825 31.9614 81.9053 31.971 82.0124 31.9868C82.1258 31.9995 82.2297 32.0186 82.3305 32.0472C82.4345 32.0726 82.5384 32.1075 82.6392 32.1456C82.74 32.1837 82.844 32.2281 82.9511 32.2789V33.2315C82.8251 33.1457 82.7022 33.0759 82.5951 33.0187C82.488 32.9584 82.3841 32.9139 82.2833 32.8822C82.1856 32.8473 82.0912 32.8219 81.9967 32.8092C81.9053 32.7965 81.8108 32.7901 81.7132 32.7901C81.5116 32.7901 81.3257 32.8282 81.1588 32.9044C80.9887 32.9774 80.8438 33.079 80.7241 33.2156C80.6044 33.3489 80.5099 33.5109 80.4406 33.6982C80.3745 33.8855 80.343 34.0919 80.343 34.3237C80.343 34.5586 80.3776 34.7713 80.4501 34.9587C80.5194 35.1428 80.6233 35.2984 80.7556 35.4254C80.8879 35.5524 81.0486 35.6508 81.2344 35.7207C81.4234 35.7905 81.6344 35.8223 81.8644 35.8223C82.0534 35.8223 82.2423 35.7969 82.4313 35.7493C82.6203 35.7016 82.8282 35.6254 83.0519 35.5238V36.4033H83.0487ZM77.5113 33.676L74.9284 36.6637H74.4245V32.0535H75.3127V35.1365L77.9208 32.0535H78.3995V36.5748H77.5113V33.676ZM70.8935 34.6126V35.7683H71.703C71.8164 35.7683 71.9172 35.7588 72.0117 35.7397C72.103 35.7175 72.1849 35.6826 72.2542 35.635C72.3235 35.5873 72.3739 35.5238 72.418 35.454C72.4558 35.3778 72.4779 35.2889 72.4779 35.1841C72.4779 35.0857 72.4527 35.0031 72.3991 34.9333C72.3456 34.8602 72.2763 34.8031 72.1818 34.7555C72.0904 34.7078 71.9802 34.6697 71.8542 34.6475C71.7313 34.6253 71.5959 34.6126 71.451 34.6126H70.8935ZM70.8935 32.8568V34.0157H71.5644C71.8101 34.0157 72.0054 33.9681 72.1503 33.8728C72.292 33.7744 72.3645 33.6029 72.3645 33.3616C72.3645 33.2695 72.3361 33.1933 72.292 33.1298C72.2416 33.0632 72.1786 33.0124 72.0999 32.9743C72.0243 32.933 71.9361 32.9012 71.8447 32.8854C71.7502 32.8663 71.6558 32.8568 71.5676 32.8568H70.8935ZM70.0052 36.5748V32.0535H71.703C71.9487 32.0535 72.166 32.0821 72.3582 32.1424C72.5535 32.1964 72.7172 32.2789 72.8495 32.3869C72.985 32.4917 73.0889 32.6187 73.1582 32.7647C73.2338 32.9108 73.2716 33.0759 73.2716 33.2505C73.2716 33.3807 73.2527 33.5045 73.2149 33.6156C73.174 33.7236 73.1236 33.8188 73.0606 33.9046C73.0007 33.9903 72.9283 34.0633 72.8495 34.1268C72.7708 34.1903 72.6889 34.2411 72.6102 34.2792C72.7109 34.3237 72.8054 34.3776 72.8968 34.438C72.9913 34.4951 73.0732 34.5618 73.1488 34.6443C73.2181 34.7269 73.2748 34.8221 73.3157 34.9333C73.3598 35.0412 73.3819 35.1682 73.3819 35.3175C73.3819 35.4762 73.3535 35.6286 73.3 35.781C73.2464 35.9302 73.1614 36.0668 73.0417 36.1842C72.922 36.3017 72.7645 36.397 72.5692 36.47C72.3771 36.543 72.1377 36.578 71.8573 36.578H70.0052V36.5748ZM65.8632 32.8568V35.6604C66.1404 35.7937 66.4176 35.8604 66.7011 35.8604C66.909 35.8604 67.1011 35.8223 67.2743 35.7461C67.4476 35.6667 67.5988 35.5619 67.7248 35.4254C67.8508 35.2921 67.9516 35.1301 68.024 34.9428C68.0964 34.7555 68.1311 34.5523 68.1311 34.3332C68.1311 34.1014 68.0964 33.8919 68.0177 33.7077C67.9421 33.5236 67.8413 33.3712 67.709 33.2441C67.5799 33.1171 67.4224 33.0187 67.246 32.9552C67.0696 32.8854 66.8806 32.8504 66.6727 32.8504H65.8632V32.8568ZM66.5152 32.0535C67.3342 32.0535 67.9547 32.2504 68.3894 32.6441C68.8241 33.0378 69.0414 33.6061 69.0414 34.3491C69.0414 34.6888 68.9847 35.0031 68.8713 35.2889C68.7611 35.5715 68.6067 35.8159 68.3988 36.0223C68.1972 36.2255 67.9547 36.3843 67.6775 36.4986C67.4003 36.6097 67.0948 36.6669 66.7641 36.6669C66.616 36.6669 66.4743 36.651 66.3325 36.6161C66.1939 36.5875 66.0333 36.5367 65.8601 36.4636V38.8926H64.9718V32.0535H66.5152ZM63.1103 33.8569C63.0977 33.514 62.9969 33.241 62.811 33.0409C62.6283 32.8409 62.3763 32.7425 62.0614 32.7425C61.7149 32.7425 61.444 32.8377 61.2393 33.0314C61.0408 33.2251 60.9117 33.5013 60.8487 33.8569H63.1103ZM60.8329 34.4507C60.9778 35.3556 61.4786 35.8064 62.3417 35.8064C62.6189 35.8064 62.8803 35.7588 63.1355 35.6635C63.3906 35.5683 63.6489 35.4349 63.9103 35.2635V36.1303C63.7749 36.2223 63.6394 36.3017 63.5071 36.3652C63.378 36.4319 63.2426 36.4859 63.0977 36.5335C62.9591 36.5748 62.8079 36.6065 62.6504 36.6256C62.4897 36.6478 62.3165 36.6605 62.1244 36.6605C61.7747 36.6605 61.466 36.5938 61.1983 36.4636C60.9274 36.3303 60.7006 36.1493 60.5148 35.9271C60.3321 35.7048 60.1904 35.4476 60.0927 35.1587C59.9982 34.8666 59.951 34.565 59.951 34.2538C59.951 33.9109 60.0014 33.5966 60.1022 33.314C60.2061 33.0314 60.351 32.7901 60.5368 32.5901C60.7227 32.3869 60.9432 32.2313 61.2015 32.1234C61.4566 32.0122 61.7401 31.9551 62.0488 31.9551C62.3511 31.9551 62.6157 32.0091 62.8551 32.1138C63.0945 32.2154 63.2992 32.371 63.4693 32.5774C63.6363 32.7838 63.7686 33.0441 63.8599 33.3521C63.9513 33.6633 63.9985 34.0284 63.9985 34.4443H60.8329V34.4507ZM59.1793 36.4033C59.1068 36.4383 59.0155 36.4732 58.9115 36.5049C58.8076 36.5335 58.6973 36.5621 58.5745 36.5843C58.4548 36.6097 58.332 36.6288 58.206 36.6446C58.0831 36.6573 57.9603 36.6637 57.8469 36.6637C57.5099 36.6637 57.2043 36.6065 56.924 36.4954C56.6468 36.3843 56.4043 36.2287 56.2027 36.0287C56.0042 35.8286 55.8467 35.5905 55.7333 35.3143C55.6231 35.0349 55.5664 34.7301 55.5664 34.3999C55.5664 34.0252 55.62 33.6887 55.7239 33.3934C55.8278 33.0917 55.9759 32.8377 56.1649 32.625C56.357 32.4123 56.5901 32.2472 56.8641 32.1329C57.135 32.0186 57.4437 31.9614 57.7839 31.9614C57.913 31.9614 58.0359 31.971 58.143 31.9868C58.2564 31.9995 58.3572 32.0186 58.458 32.0472C58.565 32.0726 58.6658 32.1075 58.7698 32.1456C58.8706 32.1837 58.9745 32.2281 59.0785 32.2789V33.2315C58.9525 33.1457 58.8328 33.0759 58.7257 33.0187C58.6154 32.9584 58.5115 32.9139 58.4139 32.8822C58.3162 32.8473 58.2186 32.8219 58.1241 32.8092C58.0359 32.7965 57.9414 32.7901 57.8437 32.7901C57.639 32.7901 57.4563 32.8282 57.2862 32.9044C57.1193 32.9774 56.9744 33.079 56.8515 33.2156C56.7318 33.3489 56.6405 33.5109 56.5681 33.6982C56.5019 33.8855 56.4704 34.0919 56.4704 34.3237C56.4704 34.5586 56.5051 34.7713 56.5807 34.9587C56.6499 35.1428 56.7539 35.2984 56.8862 35.4254C57.0185 35.5524 57.1791 35.6508 57.365 35.7207C57.5539 35.7905 57.765 35.8223 57.9949 35.8223C58.1839 35.8223 58.3729 35.7969 58.5619 35.7493C58.7477 35.7016 58.9556 35.6254 59.1793 35.5238V36.4033Z" fill="white"/>
<path d="M66.2823 10.5552V13.7715C65.2114 13.2444 63.2742 12.257 61.2899 12.257C59.0125 12.257 58.9432 13.381 58.9432 13.5429C58.9432 14.4859 60.4677 15.0352 62.7041 15.8384C64.6633 16.5497 66.9879 17.7435 66.9879 20.7756C66.9879 24.4047 63.227 25.4144 60.9056 25.4144C58.2849 25.4144 55.8028 24.173 55.4123 23.8999V20.5248C56.7572 21.3757 58.5338 22.4775 60.8142 22.4775C61.3151 22.4775 63.1388 22.4552 63.1388 21.0519C63.1388 20.0168 62.2506 19.6961 60.2032 18.9849C57.9699 18.2039 55.1445 17.1021 55.1445 13.7937C55.1445 11.4061 57.1258 9.33594 61.0253 9.33594C62.2474 9.33911 63.7971 9.47564 66.2823 10.5552Z" fill="white"/>
<path d="M81.0047 9.54492L76.2264 16.8952L82.8253 25.2106H77.9746L72.2167 17.8604V25.2106H68.3203V9.54492H72.2167V16.6412L76.743 9.54492H81.0047Z" fill="white"/>
<path d="M97.4719 9.54492L91.3455 17.8826V25.2106H87.446V17.8826L81.3164 9.54492H85.9876L89.4052 14.4599L92.8227 9.54492H97.4719Z" fill="white"/>
<path d="M113.307 9.54492V12.5072H106.938V15.8156H113.307V18.778H106.938V25.2106H103.02V9.54492H113.307Z" fill="white"/>
<path d="M119.106 9.54492H115.188V25.2106H119.106V9.54492Z" fill="white"/>
<path d="M131.821 10.5552V13.7715C130.75 13.2444 128.813 12.257 126.828 12.257C124.551 12.257 124.482 13.381 124.482 13.5429C124.482 14.4859 126.009 15.0352 128.242 15.8384C130.202 16.5497 132.526 17.7435 132.526 20.7756C132.526 24.4047 128.768 25.4144 126.444 25.4144C123.823 25.4144 121.341 24.173 120.954 23.8999V20.5248C122.296 21.3757 124.075 22.4775 126.353 22.4775C126.853 22.4775 128.677 22.4552 128.677 21.0519C128.677 20.0168 127.789 19.6961 125.738 18.9849C123.505 18.2039 120.68 17.1021 120.68 13.7937C120.68 11.4061 122.664 9.33594 126.56 9.33594C127.789 9.33911 129.339 9.47564 131.821 10.5552Z" fill="white"/>
<path d="M147.298 9.54492V25.2106H143.402V18.87H137.804V25.2106H133.883V9.54492H137.804V15.8379H143.402V9.54492H147.298Z" fill="white"/>
<path d="M151.041 5.84934C151.041 5.76362 151.012 5.70647 150.959 5.67154C150.902 5.63979 150.814 5.62074 150.691 5.62074H150.575V6.06207H150.691C150.823 6.06207 150.915 6.0462 150.962 6.01762C151.012 5.98905 151.041 5.93507 151.041 5.84934ZM151.781 7.10031H151.192L151.05 6.77646C150.997 6.65898 150.949 6.57008 150.909 6.5161C150.868 6.46213 150.827 6.42403 150.786 6.41133C150.748 6.39545 150.698 6.38593 150.635 6.38593H150.572V7.10031H150.023V5.27148H150.956C151.104 5.27148 151.227 5.30323 151.324 5.36356C151.419 5.42389 151.488 5.50009 151.532 5.58899C151.573 5.67789 151.595 5.76044 151.595 5.83982C151.595 5.93189 151.576 6.01127 151.542 6.07477C151.507 6.13827 151.472 6.1859 151.431 6.21447C151.39 6.24305 151.346 6.27163 151.299 6.29703C151.359 6.33195 151.406 6.37323 151.444 6.42085C151.482 6.46848 151.532 6.56373 151.598 6.70661L151.781 7.10031Z" fill="#44C8F5"/>
<path d="M150.805 7.96392C151.747 7.96392 152.512 7.19555 152.512 6.24621C152.512 5.29687 151.747 4.52851 150.805 4.52851C149.863 4.52851 149.098 5.29687 149.098 6.24621C149.098 7.19238 149.863 7.96392 150.805 7.96392ZM153 6.24621C153 7.46861 152.017 8.45922 150.805 8.45922C149.592 8.45922 148.609 7.46861 148.609 6.24621C148.609 5.02382 149.592 4.0332 150.805 4.0332C152.017 4.0332 153 5.02382 153 6.24621Z" fill="#44C8F5"/>
</svg>
