<svg width="153" height="45" viewBox="0 0 153 45" fill="none" xmlns="http://www.w3.org/2000/svg"><path d="M22.32 18.072a1.61 1.61 0 001.603-1.616 1.61 1.61 0 00-1.603-1.616 1.61 1.61 0 00-1.604 1.616 1.612 1.612 0 001.604 1.616zm3.67 11.704a15.041 15.041 0 01-2.41-3.17l-1.257-2.218-1.26 2.219a15.041 15.041 0 01-2.41 3.169 21.014 21.014 0 01-1.795-8.529 20.936 20.936 0 015.459-14.141 20.91 20.91 0 015.468 14.141c0 3.039-.64 5.925-1.796 8.529zm-3.667 5.616a21.003 21.003 0 01-2.243-2.946 17.859 17.859 0 002.243-2.467c.67.892 1.42 1.718 2.24 2.467a20.343 20.343 0 01-2.24 2.946zM8.199 37.06c-1.068 0-2.114-.095-3.125-.276a22.436 22.436 0 005.79 5.032 20.62 20.62 0 009.355-4.407 23.91 23.91 0 01-2.448-3.175A17.568 17.568 0 018.2 37.06zm28.245-2.924c1.987 0 3.88-.394 5.61-1.108a22.52 22.52 0 002.589-10.525C44.646 10.074 34.65 0 22.323 0 9.994 0 0 10.074 0 22.502c0 3.803.936 7.385 2.59 10.525a14.664 14.664 0 005.609 1.108 14.63 14.63 0 008.136-2.454 23.903 23.903 0 01-2.378-10.434 23.88 23.88 0 017.358-17.285l.998-.958 1.002.955a23.86 23.86 0 017.37 17.285c0 3.74-.853 7.28-2.374 10.433a14.605 14.605 0 008.133 2.458zm3.13 2.648a22.503 22.503 0 01-5.792 5.032 20.62 20.62 0 01-9.355-4.407 24.13 24.13 0 002.45-3.175 17.507 17.507 0 009.567 2.83 18.154 18.154 0 003.13-.28zM22.323 45a22.05 22.05 0 007.399-1.267 23.524 23.524 0 01-7.4-4.292 23.644 23.644 0 01-7.401 4.292A22.099 22.099 0 0022.323 45zm123.996-10.778V32.86h-.778c-.286 0-.504.057-.655.168-.151.108-.223.27-.223.486 0 .083.015.165.044.25a.615.615 0 00.151.226c.072.07.164.124.274.169.113.04.252.063.409.063h.778zm-2.45 1.384a3.76 3.76 0 01.394-.501 1.48 1.48 0 01.466-.343 2.247 2.247 0 01-.403-.197 1.446 1.446 0 01-.312-.276 1.287 1.287 0 01-.196-.359 1.517 1.517 0 01-.069-.467c0-.216.051-.413.151-.584.107-.175.24-.32.404-.441.17-.124.362-.22.576-.286.214-.067.438-.099.661-.099h1.667v4.522h-.889v-1.651h-.255c-.119 0-.23.013-.343.035a1.168 1.168 0 00-.602.34 1.843 1.843 0 00-.271.342l-.589.934h-1.052l.662-.969zm-4.353-2.75v2.804c.277.134.554.2.838.2a1.374 1.374 0 001.023-.435c.126-.133.227-.295.3-.482.072-.188.107-.39.107-.61 0-.232-.035-.441-.114-.625a1.31 1.31 0 00-.771-.753 1.542 1.542 0 00-.574-.105h-.809v.007zm.652-.803c.819 0 1.439.197 1.874.591.435.394.652.962.652 1.705 0 .34-.057.654-.17.94-.11.282-.265.527-.473.733a2.166 2.166 0 01-.721.477 2.438 2.438 0 01-.913.168 1.79 1.79 0 01-.432-.05 2.59 2.59 0 01-.472-.153v2.429h-.889v-6.84h1.544zm-4.983.718c-.211 0-.403.038-.583.114a1.436 1.436 0 00-.762.788c-.07.184-.107.384-.107.6 0 .238.034.457.104.654.069.197.167.365.296.505a1.41 1.41 0 001.052.435c.233 0 .444-.035.633-.108a1.38 1.38 0 00.479-.315c.135-.136.236-.304.308-.495.073-.197.107-.419.107-.663 0-.22-.037-.423-.119-.604a1.379 1.379 0 00-.315-.476 1.435 1.435 0 00-.485-.314 1.42 1.42 0 00-.608-.12zm.009-.806c.353 0 .677.057.97.171.3.114.555.276.769.483.217.203.387.444.507.727.117.282.18.59.18.924 0 .358-.063.682-.18.978a2.176 2.176 0 01-1.263 1.241 2.726 2.726 0 01-.986.172c-.346 0-.661-.06-.951-.178a2.355 2.355 0 01-.753-.496 2.336 2.336 0 01-.485-.755 2.528 2.528 0 01-.173-.962 2.285 2.285 0 01.674-1.639c.214-.21.466-.374.753-.492.292-.117.604-.174.938-.174zm-7.074.088l1.389 2.791 1.32-2.79h.897l.322 4.52h-.842l-.28-3.082-1.417 3.083-1.522-3.112-.23 3.112h-.837l.305-4.522h.895zm-5.941 1.623l-2.586 2.988h-.501v-4.61h.888v3.082l2.609-3.083h.478v4.522h-.888v-2.899zm-6.476.2a.81.81 0 00.501-.159c.138-.105.264-.26.375-.466l.267-.502c.073-.137.148-.251.218-.34a.973.973 0 01.236-.216.813.813 0 01.277-.108c.101-.022.214-.035.347-.035h.192v.807h-.202a.351.351 0 00-.245.082.887.887 0 00-.164.223l-.23.412a1.81 1.81 0 01-.164.258c-.054.07-.113.127-.17.177-.057.045-.12.086-.183.118a2.625 2.625 0 01-.214.092c.11.032.211.076.302.133.092.054.177.12.259.207.085.082.167.184.249.304.081.121.166.267.258.432l.68 1.28h-.976l-.608-1.229c-.145-.282-.306-.48-.485-.594a.977.977 0 00-.529-.171h-.114v1.997h-.885v-4.521h.885v1.822h.123v-.003zm-4.504.737v1.155h.809c.111 0 .211-.01.309-.028a.732.732 0 00.246-.105.553.553 0 00.16-.181.595.595 0 00.06-.27.438.438 0 00-.075-.25.596.596 0 00-.221-.178 1.106 1.106 0 00-.324-.108 2.294 2.294 0 00-.407-.035h-.557zm0-1.756v1.159h.668c.248 0 .441-.048.585-.143.145-.099.215-.27.215-.511a.378.378 0 00-.073-.232.501.501 0 00-.189-.156.861.861 0 00-.258-.089 1.394 1.394 0 00-.277-.028h-.671zm-.888 3.718v-4.522h1.697c.246 0 .46.03.652.09.196.053.359.136.492.244a1.084 1.084 0 01.425.864 1.098 1.098 0 01-.425.876 1.097 1.097 0 01-.24.152c.101.045.199.099.29.159.095.057.176.124.249.206a.916.916 0 01.17.29 1.301 1.301 0 01-.019.848c-.05.148-.139.285-.255.402-.12.118-.277.213-.476.286a2.013 2.013 0 01-.712.108h-1.848v-.003zm-2.297-2.239a13.18 13.18 0 00-.541.204 2.94 2.94 0 00-.448.225 1.226 1.226 0 00-.312.276.578.578 0 00-.113.353.7.7 0 00.047.257.613.613 0 00.331.333.774.774 0 00.258.045.846.846 0 00.4-.099c.129-.066.255-.155.375-.27v-1.324h.003zm0-.489v-.24c0-.287-.069-.49-.201-.61-.133-.124-.337-.188-.611-.188-.243 0-.489.06-.728.181a2.116 2.116 0 00-.684.565v-.978c.35-.41.845-.612 1.487-.612.227 0 .444.028.64.088.198.058.368.15.516.27.145.121.262.277.347.467.085.187.126.407.126.664v2.324c0 .086.015.146.037.18.029.033.073.048.126.048a.484.484 0 00.196-.063c.085-.041.176-.102.28-.178v.546c-.104.07-.192.127-.268.172a1.975 1.975 0 01-.208.101.917.917 0 01-.192.054.884.884 0 01-.189.02.901.901 0 01-.46-.102c-.107-.073-.179-.194-.223-.36a2.262 2.262 0 01-.592.35 1.713 1.713 0 01-.611.114c-.164 0-.315-.028-.451-.088a1.087 1.087 0 01-.649-1.016c0-.207.038-.381.114-.527.072-.143.179-.27.312-.375.132-.108.292-.203.481-.286a8.53 8.53 0 01.627-.244l.778-.277zm-4.343-.99v3.718h-.895v-3.718h-1.572v-.807h4.042v.807h-1.575zm-3.005 3.546a2.14 2.14 0 01-.268.102 3.771 3.771 0 01-.337.08 3.494 3.494 0 01-.73.08 2.46 2.46 0 01-.92-.17 2.161 2.161 0 01-.725-.466 2.12 2.12 0 01-.466-.715 2.408 2.408 0 01-.167-.914c0-.375.053-.711.157-1.007.107-.301.256-.555.445-.768.192-.213.422-.378.696-.492.27-.114.582-.172.92-.172.129 0 .251.01.358.026a2.662 2.662 0 01.627.159c.101.038.205.082.312.133v.952a3.503 3.503 0 00-.356-.212 1.633 1.633 0 00-.312-.137 1.409 1.409 0 00-.286-.073 2.058 2.058 0 00-.284-.019c-.201 0-.387.038-.554.114a1.19 1.19 0 00-.435.312c-.12.133-.214.295-.283.482a1.86 1.86 0 00-.098.626c0 .235.035.447.107.635.07.184.173.34.306.466.132.127.293.226.478.296a1.8 1.8 0 00.63.101c.19 0 .378-.025.567-.073.189-.047.397-.124.621-.225v.88h-.003zm-6.82-3.632c-.21 0-.403.038-.582.114a1.434 1.434 0 00-.763.788 1.696 1.696 0 00-.107.6c0 .238.035.457.104.654.07.197.17.365.3.505.129.136.28.244.456.32.18.077.375.115.592.115.233 0 .444-.035.633-.108.19-.076.35-.181.48-.315.132-.136.232-.304.308-.495.072-.197.107-.419.107-.663 0-.22-.038-.423-.12-.604a1.364 1.364 0 00-.315-.476 1.428 1.428 0 00-.485-.314 1.407 1.407 0 00-.608-.12zm.01-.806c.353 0 .677.057.97.171.3.114.554.276.769.483.217.203.387.444.507.727.12.282.18.59.18.924 0 .358-.06.682-.18.978a2.19 2.19 0 01-.498.755c-.208.21-.466.372-.766.486a2.725 2.725 0 01-.985.172 2.5 2.5 0 01-.952-.178 2.31 2.31 0 01-.75-.496 2.366 2.366 0 01-.49-.755 2.664 2.664 0 01-.174-.962 2.273 2.273 0 011.427-2.13c.296-.118.608-.175.942-.175zm-4.126 3.803l-1.068-2.375-1.087 2.375h2.154zm1.297 1.826h-.879v-1.02h-2.983v1.02h-.881v-1.822h.371l1.818-3.804h.497l1.692 3.804h.365v1.822zm-7.978-1.19a2.18 2.18 0 01-.268.1 3.782 3.782 0 01-.337.08 3.494 3.494 0 01-.73.08c-.338 0-.643-.058-.92-.169a2.13 2.13 0 01-.725-.466 2.12 2.12 0 01-.466-.715 2.408 2.408 0 01-.167-.914c0-.375.053-.711.157-1.007a2.25 2.25 0 01.444-.768c.193-.213.422-.378.697-.492.27-.114.58-.172.92-.172.129 0 .251.01.358.026a2.68 2.68 0 01.627.159c.101.038.205.082.312.133v.952a3.852 3.852 0 00-.356-.212 1.633 1.633 0 00-.312-.137 1.41 1.41 0 00-.286-.073 2.058 2.058 0 00-.284-.019c-.201 0-.387.038-.554.114a1.19 1.19 0 00-.435.312c-.12.133-.214.295-.283.482a1.862 1.862 0 00-.098.626c0 .235.035.447.107.635.07.184.173.34.306.466.132.127.293.226.478.296.19.07.4.101.63.101.19 0 .378-.025.567-.073a3.74 3.74 0 00.62-.225v.88h-.002zm-5.538-2.728l-2.583 2.988h-.504v-4.61h.889v3.082l2.608-3.083h.478v4.522h-.888v-2.899zm-6.617.937v1.155h.809c.113 0 .214-.01.309-.028a.731.731 0 00.242-.105.599.599 0 00.164-.181.598.598 0 00.06-.27.397.397 0 00-.079-.25.583.583 0 00-.217-.178 1.135 1.135 0 00-.328-.108 2.275 2.275 0 00-.403-.035h-.557zm0-1.756v1.159h.67c.246 0 .441-.048.586-.143.142-.099.215-.27.215-.511a.397.397 0 00-.073-.232.517.517 0 00-.192-.156.837.837 0 00-.255-.089 1.412 1.412 0 00-.277-.028h-.674zm-.889 3.718v-4.522h1.698c.246 0 .463.03.655.09.195.053.36.136.492.244.135.105.239.232.308.378.076.146.114.31.114.486 0 .13-.02.254-.057.365a1.2 1.2 0 01-.605.663c.1.045.195.099.287.159.094.057.176.124.252.206a.95.95 0 01.167.29c.044.107.066.234.066.384 0 .158-.029.31-.082.463-.054.15-.139.286-.258.403-.12.118-.278.213-.473.286a2.027 2.027 0 01-.712.108h-1.852v-.003zm-4.142-3.718v2.803c.277.134.555.2.838.2.208 0 .4-.038.573-.114.174-.08.325-.184.45-.32.127-.134.228-.296.3-.483.072-.188.107-.39.107-.61a1.59 1.59 0 00-.113-.625 1.327 1.327 0 00-.309-.464 1.273 1.273 0 00-.463-.289 1.536 1.536 0 00-.573-.105h-.81v.007zm.652-.803c.82 0 1.44.196 1.874.59.435.394.652.962.652 1.705 0 .34-.056.654-.17.94-.11.282-.264.527-.472.733a2.171 2.171 0 01-.722.477 2.438 2.438 0 01-.913.168c-.148 0-.29-.016-.431-.05-.14-.03-.3-.08-.473-.153v2.429h-.888v-6.84h1.543zm-3.405 1.803c-.012-.343-.113-.616-.299-.816-.183-.2-.435-.298-.75-.298-.346 0-.617.095-.822.288-.198.194-.327.47-.39.826h2.261zm-2.277.594c.145.905.646 1.355 1.509 1.355.277 0 .538-.047.794-.142.255-.096.513-.23.774-.4v.866a3.02 3.02 0 01-.403.235c-.129.067-.264.12-.41.168-.138.042-.29.073-.447.093a3.82 3.82 0 01-.526.035c-.35 0-.658-.067-.926-.197a2.078 2.078 0 01-.683-.537 2.424 2.424 0 01-.422-.768 2.921 2.921 0 01-.142-.905c0-.343.05-.657.151-.94.104-.283.249-.524.435-.724a1.86 1.86 0 01.665-.467 2.12 2.12 0 01.847-.168c.302 0 .567.054.806.159.24.101.444.257.614.463.167.207.3.467.39.775.092.311.14.676.14 1.092h-3.166v.007zm-1.654 1.952a1.91 1.91 0 01-.268.102 3.78 3.78 0 01-.337.08 3.54 3.54 0 01-.728.08 2.496 2.496 0 01-.922-.17 2.148 2.148 0 01-.721-.466 2.178 2.178 0 01-.47-.715 2.471 2.471 0 01-.167-.914c0-.375.054-.711.158-1.007.104-.301.252-.555.44-.768.193-.213.426-.378.7-.492.271-.114.58-.172.92-.172.129 0 .252.01.359.026a2.74 2.74 0 01.627.159c.1.038.205.082.309.133v.952a3.832 3.832 0 00-.353-.212 1.829 1.829 0 00-.312-.137 1.438 1.438 0 00-.29-.073 1.979 1.979 0 00-.28-.019 1.338 1.338 0 00-.992.426c-.12.133-.211.295-.284.482a1.86 1.86 0 00-.098.626c0 .235.035.447.11.635.07.184.174.34.306.466.133.127.293.226.479.296.189.07.4.101.63.101.189 0 .378-.025.567-.073a3.82 3.82 0 00.617-.225v.88zm7.103-25.848v3.216c-1.07-.527-3.008-1.514-4.992-1.514-2.277 0-2.347 1.124-2.347 1.286 0 .943 1.525 1.492 3.761 2.295 1.96.712 4.284 1.906 4.284 4.938 0 3.629-3.761 4.638-6.082 4.638-2.621 0-5.103-1.241-5.494-1.514v-3.375c1.345.85 3.122 1.953 5.402 1.953.501 0 2.325-.023 2.325-1.426 0-1.035-.888-1.356-2.936-2.067-2.233-.781-5.059-1.883-5.059-5.191 0-2.388 1.982-4.458 5.881-4.458 1.222.003 2.772.14 5.257 1.22zm14.723-1.01l-4.779 7.35 6.6 8.316h-4.851l-5.758-7.35v7.35H68.32V9.545h3.897v7.096l4.526-7.096h4.262zm16.467 0l-6.126 8.338v7.328h-3.9v-7.328l-6.13-8.338h4.672l3.417 4.915 3.418-4.915h4.649zm15.835 0v2.962h-6.369v3.309h6.369v2.962h-6.369v6.433h-3.918V9.545h10.287zm5.799 0h-3.918V25.21h3.918V9.545zm12.715 1.01v3.216c-1.071-.527-3.008-1.514-4.993-1.514-2.277 0-2.346 1.124-2.346 1.286 0 .943 1.527 1.492 3.76 2.295 1.96.712 4.284 1.906 4.284 4.938 0 3.629-3.758 4.638-6.082 4.638-2.621 0-5.103-1.241-5.49-1.514v-3.375c1.342.85 3.121 1.953 5.399 1.953.5 0 2.324-.023 2.324-1.426 0-1.035-.888-1.356-2.939-2.067-2.233-.781-5.058-1.883-5.058-5.191 0-2.388 1.984-4.458 5.88-4.458 1.229.003 2.779.14 5.261 1.22zm15.477-1.01V25.21h-3.896v-6.34h-5.598v6.34h-3.921V9.546h3.921v6.293h5.598V9.545h3.896z" fill="#fff"/><path d="M151.041 5.85c0-.086-.029-.144-.082-.178a.564.564 0 00-.268-.051h-.116v.441h.116c.132 0 .224-.016.271-.044.05-.029.079-.083.079-.169zm.74 1.25h-.589l-.142-.324a1.52 1.52 0 00-.141-.26c-.041-.054-.082-.092-.123-.105a.394.394 0 00-.151-.025h-.063V7.1h-.549V5.271h.933a.68.68 0 01.368.093.562.562 0 01.271.476.496.496 0 01-.053.235.403.403 0 01-.111.14 1.375 1.375 0 01-.132.082.51.51 0 01.145.124c.038.047.088.143.154.286l.183.393z" fill="#44C8F5"/><path d="M150.805 7.964c.942 0 1.707-.768 1.707-1.718s-.765-1.717-1.707-1.717c-.942 0-1.707.768-1.707 1.717 0 .946.765 1.718 1.707 1.718zM153 6.246a2.204 2.204 0 01-2.195 2.213 2.204 2.204 0 01-2.196-2.213c0-1.222.983-2.213 2.196-2.213 1.212 0 2.195.99 2.195 2.213z" fill="#44C8F5"/></svg>