<svg width="24" height="15" viewBox="0 0 24 15" fill="none" xmlns="http://www.w3.org/2000/svg">
<path d="M11.9167 11C9.89162 11 8.25 9.35838 8.25 7.33333C8.25 5.30829 9.89162 3.66667 11.9167 3.66667C13.9417 3.66667 15.5833 5.30829 15.5833 7.33333C15.5833 9.35838 13.9417 11 11.9167 11Z" fill="#1B1F22"/>
<path fill-rule="evenodd" clip-rule="evenodd" d="M23.8333 7.33333C22 11 17.4167 14.6667 11.9167 14.6667C6.41667 14.6667 1.83333 11 0 7.33333C1.83333 3.66667 6.41667 0 11.9167 0C17.4167 0 22 3.66667 23.8333 7.33333ZM11.9167 11C15.0067 11 17.7836 9.3212 19.4588 7.33334C17.7836 5.34547 15.0067 3.66667 11.9167 3.66667C8.82661 3.66667 6.04977 5.34547 4.37455 7.33334C6.04977 9.3212 8.82661 11 11.9167 11Z" fill="#1B1F22"/>
</svg>
