<svg width="10" height="10" viewBox="0 0 10 10" fill="none" xmlns="http://www.w3.org/2000/svg">
<path d="M3.864 9.89187C3.864 9.25118 3.864 8.63664 3.864 8.04826C3.864 7.45333 3.864 6.89437 3.864 6.37135V3.83148C3.864 3.30847 3.864 2.75277 3.864 2.16439C3.864 1.56946 3.864 0.954924 3.864 0.320773H5.74684C5.74684 0.954924 5.74684 1.56946 5.74684 2.16439C5.74684 2.75277 5.74684 3.30847 5.74684 3.83148V6.37135C5.74684 6.89437 5.74684 7.45333 5.74684 8.04826C5.74684 8.63664 5.74684 9.25118 5.74684 9.89187H3.864ZM0.137548 6.02813V4.18452C0.771699 4.18452 1.38624 4.18452 1.98116 4.18452C2.57609 4.18452 3.13179 4.18452 3.64826 4.18452H5.96258C6.47905 4.18452 7.03475 4.18452 7.62968 4.18452C8.2246 4.18452 8.83914 4.18452 9.47329 4.18452V6.02813C8.83914 6.02813 8.2246 6.02813 7.62968 6.02813C7.03475 6.02813 6.47905 6.02813 5.96258 6.02813H3.64826C3.13179 6.02813 2.57609 6.02813 1.98116 6.02813C1.38624 6.02813 0.771699 6.02813 0.137548 6.02813Z" fill="#07171D"/>
</svg>
