<svg width="41" height="51" viewBox="0 0 41 51" fill="none" xmlns="http://www.w3.org/2000/svg">
<path fill-rule="evenodd" clip-rule="evenodd" d="M41 21.3557C41 32.6205 23.8823 48.0205 21.9303 49.7388C21.1145 50.4582 19.8895 50.4547 19.0782 49.7303C17.1177 48.0202 0 32.6203 0 21.3555C0 9.56096 9.17799 0 20.4999 0C31.8212 0 41 9.56148 41 21.3557ZM29.8182 20.036C29.8182 25.0656 25.6463 29.1431 20.5001 29.1431C15.3539 29.1431 11.182 25.0656 11.182 20.036C11.182 15.0063 15.3539 10.9288 20.5001 10.9288C25.6463 10.9288 29.8182 15.0063 29.8182 20.036Z" fill="#44C8F5"/>
</svg>
