<svg width="171" height="153" viewBox="0 0 171 153" fill="none" xmlns="http://www.w3.org/2000/svg">
<path d="M80.542 33.1265C82.172 33.1265 83.4945 31.7998 83.4945 30.1648C83.4945 28.5297 82.172 27.203 80.542 27.203C78.9121 27.203 77.5896 28.5297 77.5896 30.1648C77.5896 31.7998 78.9121 33.1265 80.542 33.1265ZM87.2997 54.5747C85.5769 52.8523 84.0804 50.8972 82.8681 48.7617L80.5478 44.6943L78.2276 48.7617C77.0095 50.8972 75.5188 52.8465 73.796 54.5747C71.6672 49.8033 70.4897 44.514 70.4897 38.9453C70.4897 28.9544 74.2949 19.8538 80.542 13.0283C86.795 19.8538 90.6118 28.9486 90.6118 38.9453C90.606 44.514 89.4227 49.8033 87.2997 54.5747ZM80.542 64.8682C79.0107 63.1982 77.6302 61.3885 76.412 59.4683C77.926 58.0951 79.3065 56.5822 80.542 54.9471C81.7776 56.5822 83.1581 58.0951 84.672 59.4683C83.4597 61.3885 82.0734 63.1982 80.542 64.8682ZM54.5324 67.9231C52.566 67.9231 50.646 67.7485 48.7725 67.4168C51.7655 71.071 55.3735 74.1957 59.4339 76.6396C65.8957 75.4293 71.7832 72.5898 76.6615 68.5631C75.0025 66.7593 73.4944 64.81 72.1545 62.7443C67.0732 66.0203 61.0232 67.9231 54.5324 67.9231ZM106.557 62.5639C110.212 62.5639 113.704 61.8424 116.888 60.5332C119.928 54.7783 121.656 48.2089 121.656 41.2438C121.656 18.4631 103.251 0 80.542 0C57.8329 0 39.4336 18.4631 39.4336 41.238C39.4336 48.2089 41.1564 54.7725 44.2016 60.5273C47.3861 61.8366 50.8781 62.5581 54.5324 62.5581C60.0719 62.5581 65.217 60.9056 69.521 58.0602C66.7135 52.2821 65.1416 45.7941 65.1416 38.9395C65.1416 26.4698 70.3505 15.2162 78.6975 7.25607L80.5362 5.49878L82.375 7.25025C90.7278 15.2104 95.9483 26.4523 95.9483 38.9337C95.9483 45.7883 94.3763 52.2763 91.5689 58.0543C95.8671 60.9056 101.018 62.5639 106.557 62.5639ZM112.312 67.4168C109.319 71.071 105.711 74.1957 101.644 76.6396C95.1826 75.4293 89.2951 72.5898 84.4168 68.5631C86.0758 66.7593 87.5839 64.81 88.9238 62.7443C94.0051 66.0261 100.061 67.9289 106.546 67.9289C108.518 67.9231 110.444 67.7485 112.312 67.4168ZM80.542 82.4817C85.3217 82.4817 89.9041 81.6671 94.1733 80.16C89.1384 78.3736 84.5328 75.6854 80.542 72.293C76.5513 75.6854 71.9456 78.3736 66.9108 80.16C71.18 81.6613 75.7682 82.4817 80.542 82.4817Z" fill="white"/>
<path d="M159.329 144.877V142.509H157.966C157.467 142.509 157.084 142.608 156.823 142.8C156.562 142.986 156.429 143.271 156.429 143.643C156.429 143.783 156.452 143.928 156.504 144.08C156.562 144.225 156.649 144.353 156.765 144.475C156.887 144.598 157.05 144.691 157.247 144.766C157.444 144.842 157.688 144.877 157.966 144.877H159.329ZM155.048 147.286C155.263 146.96 155.489 146.669 155.733 146.413C155.971 146.157 156.243 145.959 156.545 145.814C156.29 145.715 156.052 145.604 155.837 145.47C155.628 145.337 155.443 145.174 155.292 144.993C155.147 144.813 155.037 144.603 154.95 144.371C154.874 144.132 154.834 143.859 154.834 143.556C154.834 143.178 154.921 142.84 155.095 142.538C155.28 142.235 155.512 141.979 155.802 141.77C156.104 141.554 156.435 141.386 156.806 141.275C157.183 141.159 157.572 141.106 157.96 141.106H160.872V148.973H159.318V146.099H158.871C158.662 146.099 158.471 146.116 158.273 146.157C158.088 146.198 157.908 146.268 157.734 146.361C157.566 146.454 157.392 146.582 157.229 146.745C157.067 146.902 156.905 147.106 156.754 147.344L155.721 148.968H153.882L155.048 147.286ZM147.444 142.509V147.379C147.931 147.612 148.413 147.728 148.906 147.728C149.271 147.728 149.602 147.664 149.903 147.53C150.211 147.391 150.478 147.21 150.698 146.972C150.918 146.739 151.092 146.46 151.22 146.134C151.342 145.808 151.406 145.453 151.406 145.075C151.406 144.667 151.342 144.307 151.208 143.987C151.081 143.667 150.901 143.399 150.669 143.184C150.437 142.963 150.17 142.794 149.857 142.677C149.549 142.555 149.219 142.497 148.853 142.497H147.444V142.509ZM148.581 141.106C150.008 141.106 151.098 141.45 151.858 142.13C152.618 142.811 153.001 143.8 153.001 145.098C153.001 145.692 152.902 146.239 152.699 146.733C152.508 147.222 152.235 147.647 151.875 148.007C151.527 148.362 151.104 148.636 150.617 148.84C150.13 149.032 149.602 149.13 149.022 149.13C148.766 149.13 148.517 149.101 148.268 149.043C148.024 148.991 147.745 148.904 147.444 148.776V153H145.889V141.106H148.581ZM139.874 142.352C139.509 142.352 139.172 142.416 138.859 142.549C138.557 142.677 138.285 142.864 138.059 143.096C137.832 143.323 137.658 143.597 137.525 143.917C137.403 144.237 137.339 144.586 137.339 144.958C137.339 145.372 137.403 145.756 137.519 146.093C137.641 146.436 137.815 146.727 138.035 146.972C138.267 147.21 138.528 147.396 138.842 147.53C139.149 147.664 139.497 147.728 139.874 147.728C140.28 147.728 140.651 147.664 140.976 147.542C141.307 147.408 141.585 147.228 141.812 146.995C142.049 146.756 142.223 146.465 142.351 146.134C142.473 145.79 142.537 145.406 142.537 144.982C142.537 144.598 142.467 144.248 142.328 143.928C142.2 143.608 142.015 143.335 141.777 143.096C141.545 142.864 141.26 142.683 140.93 142.549C140.611 142.421 140.263 142.352 139.874 142.352ZM139.892 140.949C140.506 140.949 141.075 141.048 141.591 141.246C142.113 141.444 142.56 141.723 142.937 142.084C143.32 142.439 143.61 142.858 143.824 143.352C144.033 143.841 144.138 144.377 144.138 144.958C144.138 145.581 144.027 146.145 143.824 146.657C143.615 147.17 143.331 147.612 142.954 147.973C142.589 148.339 142.142 148.618 141.62 148.816C141.104 149.014 140.524 149.113 139.897 149.113C139.294 149.113 138.743 149.008 138.238 148.805C137.734 148.595 137.293 148.304 136.922 147.943C136.562 147.571 136.278 147.135 136.069 146.628C135.86 146.116 135.762 145.558 135.762 144.953C135.762 144.388 135.866 143.864 136.075 143.381C136.284 142.893 136.574 142.468 136.939 142.107C137.316 141.741 137.751 141.455 138.256 141.252C138.76 141.054 139.306 140.949 139.892 140.949ZM127.525 141.106L129.949 145.965L132.258 141.106H133.824L134.387 148.973H132.919L132.432 143.614L129.955 148.973L127.299 143.562L126.898 148.973H125.431L125.964 141.106H127.525ZM117.142 143.928L112.623 149.125H111.747V141.106H113.302V146.465L117.861 141.106H118.696V148.973H117.142V143.928ZM105.825 144.278C106.167 144.278 106.457 144.184 106.701 144.004C106.944 143.824 107.165 143.55 107.356 143.189L107.826 142.317C107.954 142.078 108.081 141.88 108.209 141.729C108.342 141.572 108.476 141.444 108.621 141.351C108.766 141.258 108.928 141.199 109.108 141.165C109.282 141.124 109.485 141.106 109.711 141.106H110.048V142.509H109.7C109.52 142.509 109.375 142.555 109.27 142.654C109.166 142.753 109.073 142.881 108.98 143.038L108.58 143.754C108.487 143.928 108.389 144.08 108.29 144.202C108.197 144.318 108.093 144.423 107.989 144.51C107.89 144.592 107.78 144.662 107.67 144.714C107.553 144.772 107.426 144.825 107.292 144.877C107.484 144.935 107.664 145.011 107.82 145.11C107.983 145.203 108.128 145.319 108.273 145.47C108.424 145.616 108.569 145.79 108.708 146C108.853 146.209 109.004 146.46 109.16 146.751L110.349 148.973H108.644L107.583 146.838C107.327 146.349 107.049 146 106.736 145.802C106.422 145.604 106.115 145.505 105.813 145.505H105.616V148.973H104.067V141.106H105.616V144.278H105.825ZM97.9594 145.558V147.565H99.3747C99.5662 147.565 99.746 147.548 99.9142 147.513C100.077 147.472 100.222 147.414 100.343 147.332C100.459 147.245 100.552 147.14 100.622 147.018C100.691 146.884 100.726 146.733 100.726 146.547C100.726 146.378 100.68 146.233 100.593 146.111C100.5 145.983 100.372 145.884 100.204 145.802C100.042 145.715 99.8562 145.651 99.6358 145.616C99.4211 145.575 99.1833 145.558 98.9223 145.558H97.9594ZM97.9594 142.509V144.528H99.1253C99.5603 144.528 99.8968 144.446 100.146 144.278C100.401 144.109 100.523 143.812 100.523 143.387C100.523 143.23 100.483 143.096 100.396 142.986C100.314 142.869 100.198 142.782 100.065 142.712C99.9258 142.637 99.775 142.584 99.6126 142.561C99.4501 142.526 99.2877 142.509 99.1253 142.509H97.9594ZM96.4107 148.973V141.106H99.3747C99.804 141.106 100.181 141.159 100.517 141.258C100.86 141.357 101.144 141.496 101.376 141.682C101.62 141.863 101.799 142.084 101.921 142.34C102.049 142.596 102.118 142.881 102.118 143.184C102.118 143.411 102.084 143.62 102.014 143.818C101.944 144.004 101.857 144.173 101.753 144.324C101.643 144.475 101.521 144.603 101.376 144.708C101.243 144.819 101.103 144.906 100.958 144.976C101.132 145.057 101.306 145.145 101.463 145.249C101.625 145.348 101.77 145.465 101.898 145.61C102.02 145.75 102.124 145.918 102.2 146.116C102.269 146.303 102.31 146.529 102.31 146.785C102.31 147.059 102.263 147.327 102.165 147.588C102.078 147.85 101.921 148.083 101.718 148.287C101.509 148.49 101.231 148.659 100.889 148.781C100.552 148.904 100.14 148.968 99.6474 148.968H96.4107V148.973ZM92.3967 145.081C92.066 145.197 91.7528 145.313 91.4454 145.43C91.1496 145.552 90.8885 145.68 90.6623 145.825C90.4361 145.965 90.2563 146.128 90.1229 146.303C89.9895 146.477 89.9257 146.687 89.9257 146.919C89.9257 147.076 89.9489 147.228 90.0069 147.362C90.0649 147.495 90.1403 147.618 90.2389 147.711C90.3317 147.81 90.4477 147.885 90.5869 147.943C90.7319 147.996 90.8827 148.019 91.0394 148.019C91.283 148.019 91.5208 147.961 91.7412 147.85C91.9674 147.734 92.1821 147.577 92.3967 147.379V145.081ZM92.3967 144.225V143.806C92.3967 143.312 92.2807 142.957 92.0487 142.747C91.8166 142.532 91.4628 142.421 90.9814 142.421C90.5579 142.421 90.1287 142.526 89.7052 142.736C89.2818 142.939 88.8874 143.271 88.5103 143.719V142.02C89.1194 141.304 89.9837 140.949 91.109 140.949C91.5034 140.949 91.8804 141.002 92.2285 141.101C92.5765 141.205 92.8723 141.362 93.1333 141.572C93.3886 141.781 93.5916 142.055 93.7366 142.386C93.8874 142.712 93.957 143.096 93.957 143.539V147.583C93.957 147.728 93.9802 147.839 94.0266 147.897C94.0788 147.955 94.1542 147.984 94.2471 147.984C94.3283 147.984 94.4443 147.949 94.5893 147.874C94.7401 147.798 94.8967 147.699 95.0823 147.565V148.514C94.9025 148.636 94.7459 148.735 94.6125 148.81C94.4791 148.886 94.3573 148.944 94.2471 148.991C94.131 149.037 94.0208 149.066 93.9106 149.084C93.8062 149.107 93.7018 149.119 93.58 149.119C93.2378 149.119 92.9709 149.061 92.7737 148.938C92.5881 148.81 92.4605 148.607 92.3793 148.316C92.037 148.589 91.6948 148.793 91.341 148.921C90.9872 149.049 90.6333 149.119 90.2737 149.119C89.9837 149.119 89.7226 149.066 89.4848 148.968C89.2528 148.857 89.044 148.717 88.8758 148.543C88.7075 148.368 88.5741 148.165 88.4813 147.938C88.3943 147.705 88.3479 147.46 88.3479 147.204C88.3479 146.844 88.4175 146.541 88.5451 146.291C88.6727 146.041 88.8583 145.825 89.0904 145.639C89.3224 145.453 89.6008 145.284 89.9314 145.145C90.2621 144.999 90.6275 144.859 91.0277 144.72L92.3967 144.225ZM84.8038 142.509V148.973H83.2434V142.509H80.494V141.106H87.5532V142.509H84.8038ZM79.5543 148.671C79.4209 148.735 79.2643 148.793 79.0844 148.851C78.9046 148.904 78.7074 148.95 78.4986 148.985C78.2898 149.032 78.0693 149.066 77.8489 149.09C77.6343 149.113 77.4255 149.125 77.2225 149.125C76.6424 149.125 76.0972 149.026 75.6157 148.834C75.1285 148.642 74.7108 148.368 74.3512 148.019C74.0032 147.67 73.7305 147.257 73.5333 146.78C73.3361 146.297 73.2375 145.767 73.2375 145.191C73.2375 144.539 73.3303 143.958 73.5101 143.44C73.6957 142.916 73.951 142.468 74.2874 142.107C74.6238 141.735 75.0241 141.45 75.5055 141.252C75.9811 141.054 76.5206 140.955 77.1123 140.955C77.3385 140.955 77.5531 140.967 77.7387 140.996C77.9359 141.019 78.1215 141.054 78.2956 141.101C78.4754 141.147 78.6552 141.205 78.8292 141.269C79.0032 141.339 79.183 141.415 79.3745 141.502V143.16C79.154 143.009 78.9452 142.887 78.748 142.794C78.5624 142.689 78.3826 142.613 78.2028 142.555C78.0345 142.491 77.8663 142.45 77.7039 142.427C77.5415 142.404 77.3791 142.392 77.2109 142.392C76.8628 142.392 76.538 142.456 76.2422 142.59C75.9405 142.712 75.6911 142.893 75.4823 143.131C75.2735 143.364 75.1053 143.643 74.9893 143.969C74.8732 144.295 74.821 144.656 74.821 145.057C74.821 145.47 74.8848 145.837 75.0067 146.163C75.1285 146.483 75.3083 146.751 75.5461 146.978C75.7781 147.199 76.0565 147.373 76.3814 147.49C76.712 147.612 77.0775 147.67 77.4777 147.67C77.8083 147.67 78.1389 147.629 78.4696 147.542C78.8002 147.455 79.1598 147.327 79.5543 147.146V148.671ZM67.64 142.352C67.2745 142.352 66.9381 142.416 66.6249 142.549C66.3232 142.677 66.0506 142.864 65.8244 143.096C65.5982 143.323 65.4242 143.597 65.2907 143.917C65.1689 144.237 65.1051 144.586 65.1051 144.958C65.1051 145.372 65.1689 145.756 65.2849 146.093C65.4068 146.436 65.5866 146.727 65.807 146.972C66.0332 147.21 66.3 147.396 66.6075 147.53C66.9207 147.664 67.2629 147.728 67.64 147.728C68.046 147.728 68.4172 147.664 68.7479 147.542C69.0785 147.408 69.3569 147.228 69.5831 146.995C69.8152 146.756 69.9892 146.465 70.1226 146.134C70.2444 145.79 70.3082 145.406 70.3082 144.982C70.3082 144.598 70.2444 144.248 70.0994 143.928C69.9718 143.608 69.7862 143.335 69.5483 143.096C69.3163 142.864 69.0321 142.683 68.7015 142.549C68.3824 142.421 68.0286 142.352 67.64 142.352ZM67.6574 140.949C68.2722 140.949 68.8407 141.048 69.3569 141.246C69.879 141.444 70.3256 141.723 70.7027 142.084C71.0855 142.439 71.3755 142.858 71.5901 143.352C71.799 143.841 71.9034 144.377 71.9034 144.958C71.9034 145.581 71.799 146.145 71.5901 146.657C71.3813 147.17 71.0971 147.612 70.7201 147.973C70.3546 148.339 69.9022 148.618 69.3859 148.816C68.8697 149.014 68.2896 149.113 67.6632 149.113C67.0599 149.113 66.5089 149.008 66.0042 148.805C65.4996 148.595 65.0587 148.304 64.6933 147.943C64.3279 147.571 64.0436 147.135 63.8348 146.628C63.6318 146.116 63.5332 145.558 63.5332 144.953C63.5332 144.388 63.6376 143.864 63.8464 143.381C64.0552 142.893 64.3453 142.468 64.7107 142.107C65.0877 141.741 65.5286 141.455 66.0274 141.252C66.5263 141.054 67.0715 140.949 67.6574 140.949ZM60.4415 147.571L58.5737 143.44L56.6769 147.571H60.4415ZM62.7153 150.742H61.1782V148.973H55.9635V150.742H54.4205V147.571H55.0702L58.2489 140.955H59.119L62.0714 147.571H62.7095V150.742H62.7153ZM48.7708 148.671C48.6374 148.735 48.4808 148.793 48.301 148.851C48.1211 148.904 47.9239 148.95 47.7151 148.985C47.5063 149.032 47.2859 149.066 47.0654 149.09C46.8508 149.113 46.642 149.125 46.439 149.125C45.8531 149.125 45.3137 149.026 44.8322 148.834C44.3392 148.642 43.9215 148.368 43.5677 148.019C43.2197 147.67 42.9471 147.257 42.7556 146.78C42.5584 146.297 42.4598 145.767 42.4598 145.191C42.4598 144.539 42.5526 143.958 42.7324 143.44C42.9123 142.916 43.1791 142.468 43.5097 142.107C43.8461 141.735 44.2464 141.45 44.7278 141.252C45.2035 141.054 45.7371 140.955 46.3346 140.955C46.5608 140.955 46.7754 140.967 46.961 140.996C47.1582 141.019 47.3439 141.054 47.5179 141.101C47.6977 141.147 47.8775 141.205 48.0573 141.269C48.2313 141.339 48.4112 141.415 48.6026 141.502V143.16C48.3822 143.009 48.1675 142.887 47.9761 142.794C47.7905 142.689 47.6049 142.613 47.4309 142.555C47.2627 142.491 47.0944 142.45 46.932 142.427C46.7754 142.404 46.6072 142.392 46.439 142.392C46.0909 142.392 45.7661 142.456 45.4703 142.59C45.1687 142.712 44.9192 142.893 44.7104 143.131C44.5016 143.364 44.3334 143.643 44.2174 143.969C44.1014 144.295 44.0492 144.656 44.0492 145.057C44.0492 145.47 44.113 145.837 44.2348 146.163C44.3566 146.483 44.5364 146.751 44.7684 146.978C45.0004 147.199 45.2789 147.373 45.6037 147.49C45.9343 147.612 46.2998 147.67 46.7 147.67C47.0306 147.67 47.3613 147.629 47.6919 147.542C48.0225 147.455 48.3822 147.327 48.7766 147.146V148.671H48.7708ZM39.0955 143.928L34.5827 149.125H33.701V141.106H35.2555V146.465L39.8148 141.106H40.65V148.973H39.0955V143.928ZM27.535 145.558V147.565H28.9503C29.1476 147.565 29.3274 147.548 29.4898 147.513C29.6522 147.472 29.7914 147.414 29.9132 147.332C30.0292 147.245 30.1221 147.14 30.1975 147.018C30.2613 146.884 30.3019 146.733 30.3019 146.547C30.3019 146.378 30.2555 146.233 30.1627 146.111C30.0699 145.983 29.948 145.884 29.7798 145.802C29.6174 145.715 29.4318 145.651 29.2056 145.616C28.9909 145.575 28.7531 145.558 28.4979 145.558H27.535ZM27.535 142.509V144.528H28.7067C29.136 144.528 29.4782 144.446 29.7276 144.278C29.977 144.109 30.1047 143.812 30.1047 143.387C30.1047 143.23 30.0582 143.096 29.977 142.986C29.89 142.869 29.7798 142.782 29.6406 142.712C29.5072 142.637 29.3564 142.584 29.194 142.561C29.0316 142.526 28.8633 142.509 28.7067 142.509H27.535ZM25.9805 148.973V141.106H28.9445C29.3738 141.106 29.7566 141.159 30.0873 141.258C30.4295 141.357 30.7137 141.496 30.9457 141.682C31.1836 141.863 31.3634 142.084 31.4852 142.34C31.6186 142.596 31.6824 142.881 31.6824 143.184C31.6824 143.411 31.6534 143.62 31.5838 143.818C31.5142 144.004 31.4214 144.173 31.317 144.324C31.2126 144.475 31.0849 144.603 30.9457 144.708C30.8065 144.813 30.6673 144.906 30.5281 144.976C30.7021 145.057 30.8703 145.145 31.0269 145.249C31.1894 145.348 31.3344 145.465 31.4678 145.61C31.5896 145.75 31.6882 145.918 31.7636 146.116C31.839 146.303 31.8796 146.529 31.8796 146.785C31.8796 147.059 31.8274 147.327 31.7346 147.588C31.6418 147.85 31.491 148.083 31.2822 148.287C31.0733 148.49 30.7949 148.659 30.4585 148.781C30.1221 148.904 29.7044 148.968 29.2172 148.968H25.9805V148.973ZM18.7356 142.509V147.379C19.2228 147.612 19.7043 147.728 20.2031 147.728C20.5686 147.728 20.8992 147.664 21.2066 147.53C21.5082 147.391 21.7751 147.21 21.9955 146.972C22.2159 146.739 22.3899 146.46 22.5175 146.134C22.6394 145.808 22.7032 145.453 22.7032 145.075C22.7032 144.667 22.6394 144.307 22.5059 143.987C22.3783 143.667 22.1985 143.399 21.9665 143.184C21.7403 142.963 21.4676 142.794 21.1544 142.677C20.847 142.555 20.5164 142.497 20.1509 142.497H18.7356V142.509ZM19.8783 141.106C21.3052 141.106 22.3957 141.45 23.1556 142.13C23.9155 142.811 24.2983 143.8 24.2983 145.098C24.2983 145.692 24.1997 146.239 23.9967 146.733C23.8053 147.222 23.5326 147.647 23.173 148.007C22.825 148.362 22.4015 148.636 21.9143 148.84C21.427 149.032 20.8992 149.13 20.3191 149.13C20.0639 149.13 19.8145 149.101 19.5651 149.043C19.3214 148.991 19.043 148.904 18.7414 148.776V153H17.1868V141.106H19.8783ZM13.9327 144.243C13.9095 143.643 13.7355 143.172 13.4107 142.823C13.0917 142.474 12.6508 142.299 12.0998 142.299C11.4965 142.299 11.0209 142.468 10.667 142.805C10.319 143.143 10.0928 143.62 9.98837 144.243H13.9327ZM9.94777 145.278C10.203 146.85 11.0789 147.641 12.5812 147.641C13.0685 147.641 13.5267 147.559 13.9675 147.391C14.4084 147.228 14.8666 146.995 15.3249 146.698V148.205C15.087 148.362 14.8492 148.502 14.6172 148.618C14.391 148.735 14.1532 148.828 13.8979 148.909C13.6543 148.985 13.3933 149.037 13.1149 149.072C12.8364 149.113 12.5348 149.13 12.1984 149.13C11.5893 149.13 11.0499 149.014 10.58 148.787C10.1044 148.554 9.70994 148.24 9.38511 147.856C9.06608 147.466 8.81666 147.024 8.64844 146.524C8.48603 146.017 8.39902 145.494 8.39902 144.953C8.39902 144.353 8.48603 143.812 8.66005 143.317C8.83986 142.829 9.09509 142.41 9.41992 142.061C9.74475 141.706 10.1334 141.438 10.58 141.252C11.0267 141.06 11.5255 140.961 12.0592 140.961C12.587 140.961 13.0511 141.054 13.4687 141.234C13.8863 141.409 14.246 141.677 14.5418 142.037C14.8376 142.398 15.0638 142.846 15.2205 143.387C15.3829 143.928 15.4641 144.563 15.4641 145.284H9.94777V145.278ZM7.0591 148.671C6.93148 148.735 6.77487 148.793 6.58925 148.851C6.40944 148.904 6.21222 148.95 6.0034 148.985C5.79458 149.032 5.57996 149.066 5.35954 149.09C5.14492 149.113 4.9303 149.125 4.73308 149.125C4.14722 149.125 3.60777 149.026 3.12053 148.834C2.63328 148.642 2.21564 148.368 1.86181 148.019C1.51378 147.67 1.24115 147.257 1.04393 146.78C0.852515 146.297 0.753906 145.767 0.753906 145.191C0.753906 144.539 0.846715 143.958 1.02653 143.44C1.20635 142.916 1.46737 142.468 1.798 142.107C2.13444 141.735 2.54047 141.45 3.02192 141.252C3.49756 141.054 4.03121 140.955 4.62867 140.955C4.85489 140.955 5.06951 140.967 5.25513 140.996C5.45235 141.019 5.63216 141.054 5.80618 141.101C5.9918 141.147 6.16581 141.205 6.34563 141.269C6.51965 141.339 6.69946 141.415 6.88508 141.502V143.16C6.66466 143.009 6.45584 142.887 6.26442 142.794C6.073 142.689 5.89319 142.613 5.71917 142.555C5.55095 142.491 5.37694 142.45 5.21452 142.427C5.05791 142.404 4.89549 142.392 4.72148 142.392C4.36764 142.392 4.04861 142.456 3.74699 142.59C3.45116 142.712 3.20174 142.893 2.98712 143.131C2.7725 143.37 2.61588 143.643 2.49407 143.969C2.37806 144.295 2.32585 144.656 2.32585 145.057C2.32585 145.47 2.38966 145.837 2.51727 146.163C2.63908 146.483 2.8247 146.751 3.05672 146.978C3.28874 147.199 3.56717 147.373 3.892 147.49C4.22263 147.612 4.58807 147.67 4.9883 147.67C5.31893 147.67 5.64956 147.629 5.9802 147.542C6.30503 147.455 6.66466 147.327 7.0591 147.146V148.671Z" fill="white"/>
<path d="M19.4724 103.725V109.317C17.5988 108.398 14.2171 106.681 10.7484 106.681C6.76923 106.681 6.64742 108.637 6.64742 108.916C6.64742 110.551 9.31567 111.511 13.2194 112.913C16.6418 114.153 20.7021 116.23 20.7021 121.502C20.7021 127.815 14.1301 129.573 10.0697 129.573C5.48731 129.573 1.15431 127.414 0.469844 126.937V121.066C2.81906 122.543 5.92815 124.464 9.90733 124.464C10.7832 124.464 13.9677 124.423 13.9677 121.985C13.9677 120.187 12.4132 119.628 8.83423 118.389C4.93626 117.021 0 115.107 0 109.352C0 105.198 3.46292 101.602 10.2728 101.602C12.419 101.607 15.1278 101.846 19.4724 103.725Z" fill="white"/>
<path d="M45.199 101.961L36.8463 114.745L48.3835 129.205H39.9031L29.845 116.421V129.205H23.0352V101.961H29.845V114.308L37.7511 101.961H45.199Z" fill="white"/>
<path d="M73.9734 101.961L63.2656 116.461V129.205H56.45V116.461L45.7422 101.961H53.9036L59.8781 110.515L65.8469 101.961H73.9734Z" fill="white"/>
<path d="M101.638 101.961V107.116H90.5126V112.871H101.638V118.021H90.5126V129.205H83.668V101.961H101.638Z" fill="white"/>
<path d="M111.776 101.969H104.926V129.212H111.776V101.969Z" fill="white"/>
<path d="M133.994 103.726V109.317C132.12 108.398 128.739 106.682 125.27 106.682C121.291 106.682 121.169 108.637 121.169 108.916C121.169 110.551 123.843 111.511 127.741 112.914C131.163 114.153 135.224 116.23 135.224 121.502C135.224 127.816 128.657 129.573 124.591 129.573C120.009 129.573 115.676 127.414 114.997 126.937V121.066C117.346 122.544 120.45 124.464 124.429 124.464C125.305 124.464 128.495 124.423 128.495 121.985C128.495 120.187 126.94 119.628 123.356 118.389C119.452 117.033 114.516 115.113 114.516 109.364C114.516 105.209 117.984 101.613 124.788 101.613C126.952 101.608 129.655 101.846 133.994 103.726Z" fill="white"/>
<path d="M161.042 101.961V129.205H154.238V118.184H144.452V129.205H137.602V101.961H144.452V112.906H154.238V101.961H161.042Z" fill="white"/>
<path d="M167.58 95.5398C167.58 95.3944 167.527 95.2896 167.435 95.2314C167.336 95.1732 167.179 95.1441 166.965 95.1441H166.762V95.9122H166.971C167.203 95.9122 167.365 95.8889 167.446 95.8366C167.533 95.7842 167.58 95.6853 167.58 95.5398ZM168.873 97.7161H167.846L167.597 97.1516C167.504 96.948 167.423 96.7967 167.348 96.6978C167.278 96.5988 167.203 96.5407 167.133 96.5116C167.069 96.4825 166.976 96.4708 166.872 96.4708H166.762V97.7102H165.805V94.5273H167.435C167.69 94.5273 167.91 94.5797 168.079 94.6903C168.241 94.795 168.369 94.9288 168.438 95.0801C168.508 95.2314 168.548 95.3769 168.548 95.5165C168.548 95.6795 168.519 95.8133 168.456 95.9239C168.392 96.0344 168.334 96.1159 168.264 96.1624C168.195 96.2148 168.113 96.2614 168.032 96.3079C168.137 96.3661 168.218 96.4359 168.287 96.5232C168.357 96.6047 168.444 96.7676 168.554 97.0178L168.873 97.7161Z" fill="white"/>
<path d="M167.166 99.216C168.813 99.216 170.148 97.8777 170.148 96.2251C170.148 94.5726 168.813 93.2343 167.166 93.2343C165.519 93.2343 164.185 94.5726 164.185 96.2251C164.185 97.8777 165.519 99.216 167.166 99.216ZM171 96.2251C171 98.349 169.283 100.071 167.16 100.071C165.037 100.071 163.32 98.349 163.32 96.2251C163.32 94.1013 165.037 92.3789 167.16 92.3789C169.283 92.3789 171 94.1013 171 96.2251Z" fill="white"/>
</svg>
