<svg width="16" height="16" viewBox="0 0 16 16" fill="none" xmlns="http://www.w3.org/2000/svg"><path fill-rule="evenodd" clip-rule="evenodd" d="M1.358 7.53c4.134-1.801 6.89-2.989 8.27-3.563 3.939-1.638 4.757-1.922 5.29-1.932.118-.002.38.027.55.165a.598.598 0 01.202.384c.019.11.042.362.024.558-.214 2.243-1.137 7.685-1.607 10.197-.199 1.062-.59 1.419-.97 1.454-.823.075-1.448-.545-2.246-1.068-1.248-.818-1.953-1.327-3.165-2.126-1.4-.922-.492-1.43.306-2.258.208-.217 3.837-3.518 3.907-3.817.009-.038.017-.177-.066-.25-.083-.075-.205-.05-.293-.03-.126.03-2.12 1.347-5.982 3.955-.566.388-1.079.578-1.538.568-.507-.011-1.48-.287-2.205-.522C.947 8.956.241 8.804.303 8.313c.032-.255.383-.516 1.055-.783z" fill="#fff"/></svg>