<svg width="884" height="284" viewBox="0 0 884 284" fill="none" xmlns="http://www.w3.org/2000/svg">
<g opacity="0.1">
<path d="M47.1233 27.1036C67.2426 27.1036 84.8141 16.2073 94.2466 0H90.475C81.3967 14.351 65.3742 23.8819 47.1233 23.8819C28.8724 23.8819 12.8499 14.351 3.77167 0H0C9.43247 16.2073 27.004 27.1036 47.1233 27.1036Z" fill="#07171D"/>
<path d="M137.674 27.1036C157.793 27.1036 175.365 16.2073 184.797 0H181.026C171.947 14.351 155.925 23.8819 137.674 23.8819C119.423 23.8819 103.401 14.351 94.3224 0H90.5508C99.9833 16.2073 117.555 27.1036 137.674 27.1036Z" fill="#07171D"/>
<path d="M228.225 27.1036C248.344 27.1036 265.916 16.2073 275.348 0H271.577C262.498 14.351 246.476 23.8819 228.225 23.8819C209.974 23.8819 193.951 14.351 184.873 0H181.102C190.534 16.2073 208.106 27.1036 228.225 27.1036Z" fill="#07171D"/>
<path d="M318.776 27.1036C338.895 27.1036 356.466 16.2073 365.899 0H362.127C353.049 14.351 337.027 23.8819 318.776 23.8819C300.525 23.8819 284.502 14.351 275.424 0H271.652C281.085 16.2073 298.656 27.1036 318.776 27.1036Z" fill="#07171D"/>
<path d="M409.326 27.1036C429.446 27.1036 447.017 16.2073 456.45 0H452.678C443.6 14.351 427.577 23.8819 409.326 23.8819C391.076 23.8819 375.053 14.351 365.975 0H362.203C371.636 16.2073 389.207 27.1036 409.326 27.1036Z" fill="#07171D"/>
<path d="M499.876 27.1036C519.996 27.1036 537.567 16.2073 547 0H543.228C534.15 14.351 518.127 23.8819 499.876 23.8819C481.625 23.8819 465.603 14.351 456.525 0H452.753C462.185 16.2073 479.757 27.1036 499.876 27.1036Z" fill="#07171D"/>
<path d="M590.427 27.1036C610.546 27.1036 628.118 16.2073 637.55 0H633.779C624.7 14.351 608.678 23.8819 590.427 23.8819C572.176 23.8819 556.154 14.351 547.075 0H543.304C552.736 16.2073 570.308 27.1036 590.427 27.1036Z" fill="#07171D"/>
<path d="M680.978 27.1036C701.097 27.1036 718.669 16.2073 728.101 0H724.329C715.251 14.351 699.229 23.8819 680.978 23.8819C662.727 23.8819 646.704 14.351 637.626 0H633.854C643.287 16.2073 660.859 27.1036 680.978 27.1036Z" fill="#07171D"/>
</g>
<g opacity="0.1">
<path d="M47.1233 59.2091C67.2426 59.2091 84.8141 48.3127 94.2466 32.1055H90.475C81.3967 46.4565 65.3742 55.9874 47.1233 55.9874C28.8724 55.9874 12.8499 46.4565 3.77167 32.1055H0C9.43247 48.3127 27.004 59.2091 47.1233 59.2091Z" fill="#07171D"/>
<path d="M137.674 59.2091C157.793 59.2091 175.365 48.3127 184.797 32.1055H181.026C171.947 46.4565 155.925 55.9874 137.674 55.9874C119.423 55.9874 103.401 46.4565 94.3224 32.1055H90.5508C99.9833 48.3127 117.555 59.2091 137.674 59.2091Z" fill="#07171D"/>
<path d="M228.225 59.2091C248.344 59.2091 265.916 48.3127 275.348 32.1055H271.577C262.498 46.4565 246.476 55.9874 228.225 55.9874C209.974 55.9874 193.951 46.4565 184.873 32.1055H181.102C190.534 48.3127 208.106 59.2091 228.225 59.2091Z" fill="#07171D"/>
<path d="M318.776 59.2091C338.895 59.2091 356.466 48.3127 365.899 32.1055H362.127C353.049 46.4565 337.027 55.9874 318.776 55.9874C300.525 55.9874 284.502 46.4565 275.424 32.1055H271.652C281.085 48.3127 298.656 59.2091 318.776 59.2091Z" fill="#07171D"/>
<path d="M409.326 59.2091C429.446 59.2091 447.017 48.3127 456.45 32.1055H452.678C443.6 46.4565 427.577 55.9874 409.326 55.9874C391.076 55.9874 375.053 46.4565 365.975 32.1055H362.203C371.636 48.3127 389.207 59.2091 409.326 59.2091Z" fill="#07171D"/>
<path d="M499.876 59.2091C519.996 59.2091 537.567 48.3127 547 32.1055H543.228C534.15 46.4565 518.127 55.9874 499.876 55.9874C481.625 55.9874 465.603 46.4565 456.525 32.1055H452.753C462.185 48.3127 479.757 59.2091 499.876 59.2091Z" fill="#07171D"/>
<path d="M590.427 59.2091C610.546 59.2091 628.118 48.3127 637.55 32.1055H633.779C624.7 46.4565 608.678 55.9874 590.427 55.9874C572.176 55.9874 556.154 46.4565 547.075 32.1055H543.304C552.736 48.3127 570.308 59.2091 590.427 59.2091Z" fill="#07171D"/>
<path d="M680.978 59.2091C701.097 59.2091 718.669 48.3127 728.101 32.1055H724.329C715.251 46.4565 699.229 55.9874 680.978 55.9874C662.727 55.9874 646.704 46.4565 637.626 32.1055H633.854C643.287 48.3127 660.859 59.2091 680.978 59.2091Z" fill="#07171D"/>
</g>
<g opacity="0.1">
<path d="M47.1233 91.3106C67.2426 91.3106 84.8141 80.4143 94.2466 64.207H90.475C81.3967 78.5581 65.3742 88.0889 47.1233 88.0889C28.8724 88.0889 12.8499 78.5581 3.77167 64.207H0C9.43247 80.4143 27.004 91.3106 47.1233 91.3106Z" fill="#07171D"/>
<path d="M137.674 91.3106C157.793 91.3106 175.365 80.4143 184.797 64.207H181.026C171.947 78.5581 155.925 88.0889 137.674 88.0889C119.423 88.0889 103.401 78.5581 94.3224 64.207H90.5508C99.9833 80.4143 117.555 91.3106 137.674 91.3106Z" fill="#07171D"/>
<path d="M228.225 91.3106C248.344 91.3106 265.916 80.4143 275.348 64.207H271.577C262.498 78.5581 246.476 88.0889 228.225 88.0889C209.974 88.0889 193.951 78.5581 184.873 64.207H181.102C190.534 80.4143 208.106 91.3106 228.225 91.3106Z" fill="#07171D"/>
<path d="M318.776 91.3106C338.895 91.3106 356.466 80.4143 365.899 64.207H362.127C353.049 78.5581 337.027 88.0889 318.776 88.0889C300.525 88.0889 284.502 78.5581 275.424 64.207H271.652C281.085 80.4143 298.656 91.3106 318.776 91.3106Z" fill="#07171D"/>
<path d="M409.326 91.3106C429.446 91.3106 447.017 80.4143 456.45 64.207H452.678C443.6 78.5581 427.577 88.0889 409.326 88.0889C391.076 88.0889 375.053 78.5581 365.975 64.207H362.203C371.636 80.4143 389.207 91.3106 409.326 91.3106Z" fill="#07171D"/>
<path d="M499.876 91.3106C519.996 91.3106 537.567 80.4143 547 64.207H543.228C534.15 78.5581 518.127 88.0889 499.876 88.0889C481.625 88.0889 465.603 78.5581 456.525 64.207H452.753C462.185 80.4143 479.757 91.3106 499.876 91.3106Z" fill="#07171D"/>
<path d="M590.427 91.3106C610.546 91.3106 628.118 80.4143 637.55 64.207H633.779C624.7 78.5581 608.678 88.0889 590.427 88.0889C572.176 88.0889 556.154 78.5581 547.075 64.207H543.304C552.736 80.4143 570.308 91.3106 590.427 91.3106Z" fill="#07171D"/>
<path d="M680.978 91.3106C701.097 91.3106 718.669 80.4143 728.101 64.207H724.329C715.251 78.5581 699.229 88.0889 680.978 88.0889C662.727 88.0889 646.704 78.5581 637.626 64.207H633.854C643.287 80.4143 660.859 91.3106 680.978 91.3106Z" fill="#07171D"/>
</g>
<g opacity="0.1">
<path d="M47.1233 123.416C67.2426 123.416 84.8141 112.52 94.2466 96.3125H90.475C81.3967 110.664 65.3742 120.194 47.1233 120.194C28.8724 120.194 12.8499 110.664 3.77167 96.3125H0C9.43247 112.52 27.004 123.416 47.1233 123.416Z" fill="#07171D"/>
<path d="M137.674 123.416C157.793 123.416 175.365 112.52 184.797 96.3125H181.026C171.947 110.664 155.925 120.194 137.674 120.194C119.423 120.194 103.401 110.664 94.3224 96.3125H90.5508C99.9833 112.52 117.555 123.416 137.674 123.416Z" fill="#07171D"/>
<path d="M228.225 123.416C248.344 123.416 265.916 112.52 275.348 96.3125H271.577C262.498 110.664 246.476 120.194 228.225 120.194C209.974 120.194 193.951 110.664 184.873 96.3125H181.102C190.534 112.52 208.106 123.416 228.225 123.416Z" fill="#07171D"/>
<path d="M318.776 123.416C338.895 123.416 356.466 112.52 365.899 96.3125H362.127C353.049 110.664 337.027 120.194 318.776 120.194C300.525 120.194 284.502 110.664 275.424 96.3125H271.652C281.085 112.52 298.656 123.416 318.776 123.416Z" fill="#07171D"/>
<path d="M409.326 123.416C429.446 123.416 447.017 112.52 456.45 96.3125H452.678C443.6 110.664 427.577 120.194 409.326 120.194C391.076 120.194 375.053 110.664 365.975 96.3125H362.203C371.636 112.52 389.207 123.416 409.326 123.416Z" fill="#07171D"/>
<path d="M499.876 123.416C519.996 123.416 537.567 112.52 547 96.3125H543.228C534.15 110.664 518.127 120.194 499.876 120.194C481.625 120.194 465.603 110.664 456.525 96.3125H452.753C462.185 112.52 479.757 123.416 499.876 123.416Z" fill="#07171D"/>
<path d="M590.427 123.416C610.546 123.416 628.118 112.52 637.55 96.3125H633.779C624.7 110.664 608.678 120.194 590.427 120.194C572.176 120.194 556.154 110.664 547.075 96.3125H543.304C552.736 112.52 570.308 123.416 590.427 123.416Z" fill="#07171D"/>
<path d="M680.978 123.416C701.097 123.416 718.669 112.52 728.101 96.3125H724.329C715.251 110.664 699.229 120.194 680.978 120.194C662.727 120.194 646.704 110.664 637.626 96.3125H633.854C643.287 112.52 660.859 123.416 680.978 123.416Z" fill="#07171D"/>
</g>
<g opacity="0.1">
<path d="M47.1233 155.518C67.2426 155.518 84.8141 144.621 94.2466 128.414H90.475C81.3967 142.765 65.3742 152.296 47.1233 152.296C28.8724 152.296 12.8499 142.765 3.77167 128.414H0C9.43247 144.621 27.004 155.518 47.1233 155.518Z" fill="#07171D"/>
<path d="M137.674 155.518C157.793 155.518 175.365 144.621 184.797 128.414H181.026C171.947 142.765 155.925 152.296 137.674 152.296C119.423 152.296 103.401 142.765 94.3224 128.414H90.5508C99.9833 144.621 117.555 155.518 137.674 155.518Z" fill="#07171D"/>
<path d="M228.225 155.518C248.344 155.518 265.916 144.621 275.348 128.414H271.577C262.498 142.765 246.476 152.296 228.225 152.296C209.974 152.296 193.951 142.765 184.873 128.414H181.102C190.534 144.621 208.106 155.518 228.225 155.518Z" fill="#07171D"/>
<path d="M318.776 155.518C338.895 155.518 356.466 144.621 365.899 128.414H362.127C353.049 142.765 337.027 152.296 318.776 152.296C300.525 152.296 284.502 142.765 275.424 128.414H271.652C281.085 144.621 298.656 155.518 318.776 155.518Z" fill="#07171D"/>
<path d="M409.326 155.518C429.446 155.518 447.017 144.621 456.45 128.414H452.678C443.6 142.765 427.577 152.296 409.326 152.296C391.076 152.296 375.053 142.765 365.975 128.414H362.203C371.636 144.621 389.207 155.518 409.326 155.518Z" fill="#07171D"/>
<path d="M499.876 155.518C519.996 155.518 537.567 144.621 547 128.414H543.228C534.15 142.765 518.127 152.296 499.876 152.296C481.625 152.296 465.603 142.765 456.525 128.414H452.753C462.185 144.621 479.757 155.518 499.876 155.518Z" fill="#07171D"/>
<path d="M590.427 155.518C610.546 155.518 628.118 144.621 637.55 128.414H633.779C624.7 142.765 608.678 152.296 590.427 152.296C572.176 152.296 556.154 142.765 547.075 128.414H543.304C552.736 144.621 570.308 155.518 590.427 155.518Z" fill="#07171D"/>
<path d="M680.978 155.518C701.097 155.518 718.669 144.621 728.101 128.414H724.329C715.251 142.765 699.229 152.296 680.978 152.296C662.727 152.296 646.704 142.765 637.626 128.414H633.854C643.287 144.621 660.859 155.518 680.978 155.518Z" fill="#07171D"/>
</g>
<g opacity="0.1">
<path d="M47.1233 187.623C67.2426 187.623 84.8141 176.727 94.2466 160.52H90.475C81.3967 174.871 65.3742 184.401 47.1233 184.401C28.8724 184.401 12.8499 174.871 3.77167 160.52H0C9.43247 176.727 27.004 187.623 47.1233 187.623Z" fill="#07171D"/>
<path d="M137.674 187.623C157.793 187.623 175.365 176.727 184.797 160.52H181.026C171.947 174.871 155.925 184.401 137.674 184.401C119.423 184.401 103.401 174.871 94.3224 160.52H90.5508C99.9833 176.727 117.555 187.623 137.674 187.623Z" fill="#07171D"/>
<path d="M228.225 187.623C248.344 187.623 265.916 176.727 275.348 160.52H271.577C262.498 174.871 246.476 184.401 228.225 184.401C209.974 184.401 193.951 174.871 184.873 160.52H181.102C190.534 176.727 208.106 187.623 228.225 187.623Z" fill="#07171D"/>
<path d="M318.776 187.623C338.895 187.623 356.466 176.727 365.899 160.52H362.127C353.049 174.871 337.027 184.401 318.776 184.401C300.525 184.401 284.502 174.871 275.424 160.52H271.652C281.085 176.727 298.656 187.623 318.776 187.623Z" fill="#07171D"/>
<path d="M409.326 187.623C429.446 187.623 447.017 176.727 456.45 160.52H452.678C443.6 174.871 427.577 184.401 409.326 184.401C391.076 184.401 375.053 174.871 365.975 160.52H362.203C371.636 176.727 389.207 187.623 409.326 187.623Z" fill="#07171D"/>
<path d="M499.876 187.623C519.996 187.623 537.567 176.727 547 160.52H543.228C534.15 174.871 518.127 184.401 499.876 184.401C481.625 184.401 465.603 174.871 456.525 160.52H452.753C462.185 176.727 479.757 187.623 499.876 187.623Z" fill="#07171D"/>
<path d="M590.427 187.623C610.546 187.623 628.118 176.727 637.55 160.52H633.779C624.7 174.871 608.678 184.401 590.427 184.401C572.176 184.401 556.154 174.871 547.075 160.52H543.304C552.736 176.727 570.308 187.623 590.427 187.623Z" fill="#07171D"/>
<path d="M680.978 187.623C701.097 187.623 718.669 176.727 728.101 160.52H724.329C715.251 174.871 699.229 184.401 680.978 184.401C662.727 184.401 646.704 174.871 637.626 160.52H633.854C643.287 176.727 660.859 187.623 680.978 187.623Z" fill="#07171D"/>
</g>
<g opacity="0.1">
<path d="M47.1233 219.725C67.2426 219.725 84.8141 208.828 94.2466 192.621H90.475C81.3967 206.972 65.3742 216.503 47.1233 216.503C28.8724 216.503 12.8499 206.972 3.77167 192.621H0C9.43247 208.828 27.004 219.725 47.1233 219.725Z" fill="#07171D"/>
<path d="M137.674 219.725C157.793 219.725 175.365 208.828 184.797 192.621H181.026C171.947 206.972 155.925 216.503 137.674 216.503C119.423 216.503 103.401 206.972 94.3224 192.621H90.5508C99.9833 208.828 117.555 219.725 137.674 219.725Z" fill="#07171D"/>
<path d="M228.225 219.725C248.344 219.725 265.916 208.828 275.348 192.621H271.577C262.498 206.972 246.476 216.503 228.225 216.503C209.974 216.503 193.951 206.972 184.873 192.621H181.102C190.534 208.828 208.106 219.725 228.225 219.725Z" fill="#07171D"/>
<path d="M318.776 219.725C338.895 219.725 356.466 208.828 365.899 192.621H362.127C353.049 206.972 337.027 216.503 318.776 216.503C300.525 216.503 284.502 206.972 275.424 192.621H271.652C281.085 208.828 298.656 219.725 318.776 219.725Z" fill="#07171D"/>
<path d="M409.326 219.725C429.446 219.725 447.017 208.828 456.45 192.621H452.678C443.6 206.972 427.577 216.503 409.326 216.503C391.076 216.503 375.053 206.972 365.975 192.621H362.203C371.636 208.828 389.207 219.725 409.326 219.725Z" fill="#07171D"/>
<path d="M499.876 219.725C519.996 219.725 537.567 208.828 547 192.621H543.228C534.15 206.972 518.127 216.503 499.876 216.503C481.625 216.503 465.603 206.972 456.525 192.621H452.753C462.185 208.828 479.757 219.725 499.876 219.725Z" fill="#07171D"/>
<path d="M590.427 219.725C610.546 219.725 628.118 208.828 637.55 192.621H633.779C624.7 206.972 608.678 216.503 590.427 216.503C572.176 216.503 556.154 206.972 547.075 192.621H543.304C552.736 208.828 570.308 219.725 590.427 219.725Z" fill="#07171D"/>
<path d="M680.978 219.725C701.097 219.725 718.669 208.828 728.101 192.621H724.329C715.251 206.972 699.229 216.503 680.978 216.503C662.727 216.503 646.704 206.972 637.626 192.621H633.854C643.287 208.828 660.859 219.725 680.978 219.725Z" fill="#07171D"/>
</g>
<g opacity="0.1">
<path d="M47.1233 251.83C67.2426 251.83 84.8141 240.934 94.2466 224.727H90.475C81.3967 239.078 65.3742 248.608 47.1233 248.608C28.8724 248.608 12.8499 239.078 3.77167 224.727H0C9.43247 240.934 27.004 251.83 47.1233 251.83Z" fill="#07171D"/>
<path d="M137.674 251.83C157.793 251.83 175.365 240.934 184.797 224.727H181.026C171.947 239.078 155.925 248.608 137.674 248.608C119.423 248.608 103.401 239.078 94.3224 224.727H90.5508C99.9833 240.934 117.555 251.83 137.674 251.83Z" fill="#07171D"/>
<path d="M228.225 251.83C248.344 251.83 265.916 240.934 275.348 224.727H271.577C262.498 239.078 246.476 248.608 228.225 248.608C209.974 248.608 193.951 239.078 184.873 224.727H181.102C190.534 240.934 208.106 251.83 228.225 251.83Z" fill="#07171D"/>
<path d="M318.776 251.83C338.895 251.83 356.466 240.934 365.899 224.727H362.127C353.049 239.078 337.027 248.608 318.776 248.608C300.525 248.608 284.502 239.078 275.424 224.727H271.652C281.085 240.934 298.656 251.83 318.776 251.83Z" fill="#07171D"/>
<path d="M409.326 251.83C429.446 251.83 447.017 240.934 456.45 224.727H452.678C443.6 239.078 427.577 248.608 409.326 248.608C391.076 248.608 375.053 239.078 365.975 224.727H362.203C371.636 240.934 389.207 251.83 409.326 251.83Z" fill="#07171D"/>
<path d="M499.876 251.83C519.996 251.83 537.567 240.934 547 224.727H543.228C534.15 239.078 518.127 248.608 499.876 248.608C481.625 248.608 465.603 239.078 456.525 224.727H452.753C462.185 240.934 479.757 251.83 499.876 251.83Z" fill="#07171D"/>
<path d="M590.427 251.83C610.546 251.83 628.118 240.934 637.55 224.727H633.779C624.7 239.078 608.678 248.608 590.427 248.608C572.176 248.608 556.154 239.078 547.075 224.727H543.304C552.736 240.934 570.308 251.83 590.427 251.83Z" fill="#07171D"/>
<path d="M680.978 251.83C701.097 251.83 718.669 240.934 728.101 224.727H724.329C715.251 239.078 699.229 248.608 680.978 248.608C662.727 248.608 646.704 239.078 637.626 224.727H633.854C643.287 240.934 660.859 251.83 680.978 251.83Z" fill="#07171D"/>
</g>
<g opacity="0.1">
<path d="M47.1233 283.932C67.2426 283.932 84.8141 273.035 94.2466 256.828H90.475C81.3967 271.179 65.3742 280.71 47.1233 280.71C28.8724 280.71 12.8499 271.179 3.77167 256.828H0C9.43247 273.035 27.004 283.932 47.1233 283.932Z" fill="#07171D"/>
<path d="M137.674 283.932C157.793 283.932 175.365 273.035 184.797 256.828H181.026C171.947 271.179 155.925 280.71 137.674 280.71C119.423 280.71 103.401 271.179 94.3224 256.828H90.5508C99.9833 273.035 117.555 283.932 137.674 283.932Z" fill="#07171D"/>
<path d="M228.225 283.932C248.344 283.932 265.916 273.035 275.348 256.828H271.577C262.498 271.179 246.476 280.71 228.225 280.71C209.974 280.71 193.951 271.179 184.873 256.828H181.102C190.534 273.035 208.106 283.932 228.225 283.932Z" fill="#07171D"/>
<path d="M318.776 283.932C338.895 283.932 356.466 273.035 365.899 256.828H362.127C353.049 271.179 337.027 280.71 318.776 280.71C300.525 280.71 284.502 271.179 275.424 256.828H271.652C281.085 273.035 298.656 283.932 318.776 283.932Z" fill="#07171D"/>
<path d="M409.326 283.932C429.446 283.932 447.017 273.035 456.45 256.828H452.678C443.6 271.179 427.577 280.71 409.326 280.71C391.076 280.71 375.053 271.179 365.975 256.828H362.203C371.636 273.035 389.207 283.932 409.326 283.932Z" fill="#07171D"/>
<path d="M499.876 283.932C519.996 283.932 537.567 273.035 547 256.828H543.228C534.15 271.179 518.127 280.71 499.876 280.71C481.625 280.71 465.603 271.179 456.525 256.828H452.753C462.185 273.035 479.757 283.932 499.876 283.932Z" fill="#07171D"/>
<path d="M590.427 283.932C610.546 283.932 628.118 273.035 637.55 256.828H633.779C624.7 271.179 608.678 280.71 590.427 280.71C572.176 280.71 556.154 271.179 547.075 256.828H543.304C552.736 273.035 570.308 283.932 590.427 283.932Z" fill="#07171D"/>
<path d="M680.978 283.932C701.097 283.932 718.669 273.035 728.101 256.828H724.329C715.251 271.179 699.229 280.71 680.978 280.71C662.727 280.71 646.704 271.179 637.626 256.828H633.854C643.287 273.035 660.859 283.932 680.978 283.932Z" fill="#07171D"/>
</g>
<g opacity="0.1">
<path d="M775.123 27.1036C795.243 27.1036 812.814 16.2073 822.247 0H818.475C809.397 14.351 793.374 23.8819 775.123 23.8819C756.872 23.8819 740.85 14.351 731.772 0H728C737.432 16.2073 755.004 27.1036 775.123 27.1036Z" fill="#07171D"/>
<path d="M865.674 27.1036C885.793 27.1036 903.365 16.2073 912.797 0H909.026C899.947 14.351 883.925 23.8819 865.674 23.8819C847.423 23.8819 831.401 14.351 822.322 0H818.551C827.983 16.2073 845.555 27.1036 865.674 27.1036Z" fill="#07171D"/>
</g>
<g opacity="0.1">
<path d="M775.123 59.2091C795.243 59.2091 812.814 48.3127 822.247 32.1055H818.475C809.397 46.4565 793.374 55.9874 775.123 55.9874C756.872 55.9874 740.85 46.4565 731.772 32.1055H728C737.432 48.3127 755.004 59.2091 775.123 59.2091Z" fill="#07171D"/>
<path d="M865.674 59.2091C885.793 59.2091 903.365 48.3127 912.797 32.1055H909.026C899.947 46.4565 883.925 55.9874 865.674 55.9874C847.423 55.9874 831.401 46.4565 822.322 32.1055H818.551C827.983 48.3127 845.555 59.2091 865.674 59.2091Z" fill="#07171D"/>
</g>
<g opacity="0.1">
<path d="M775.123 91.3106C795.243 91.3106 812.814 80.4143 822.247 64.207H818.475C809.397 78.5581 793.374 88.0889 775.123 88.0889C756.872 88.0889 740.85 78.5581 731.772 64.207H728C737.432 80.4143 755.004 91.3106 775.123 91.3106Z" fill="#07171D"/>
<path d="M865.674 91.3106C885.793 91.3106 903.365 80.4143 912.797 64.207H909.026C899.947 78.5581 883.925 88.0889 865.674 88.0889C847.423 88.0889 831.401 78.5581 822.322 64.207H818.551C827.983 80.4143 845.555 91.3106 865.674 91.3106Z" fill="#07171D"/>
</g>
<g opacity="0.1">
<path d="M775.123 123.416C795.243 123.416 812.814 112.52 822.247 96.3125H818.475C809.397 110.664 793.374 120.194 775.123 120.194C756.872 120.194 740.85 110.664 731.772 96.3125H728C737.432 112.52 755.004 123.416 775.123 123.416Z" fill="#07171D"/>
<path d="M865.674 123.416C885.793 123.416 903.365 112.52 912.797 96.3125H909.026C899.947 110.664 883.925 120.194 865.674 120.194C847.423 120.194 831.401 110.664 822.322 96.3125H818.551C827.983 112.52 845.555 123.416 865.674 123.416Z" fill="#07171D"/>
</g>
<g opacity="0.1">
<path d="M775.123 155.518C795.243 155.518 812.814 144.621 822.247 128.414H818.475C809.397 142.765 793.374 152.296 775.123 152.296C756.872 152.296 740.85 142.765 731.772 128.414H728C737.432 144.621 755.004 155.518 775.123 155.518Z" fill="#07171D"/>
<path d="M865.674 155.518C885.793 155.518 903.365 144.621 912.797 128.414H909.026C899.947 142.765 883.925 152.296 865.674 152.296C847.423 152.296 831.401 142.765 822.322 128.414H818.551C827.983 144.621 845.555 155.518 865.674 155.518Z" fill="#07171D"/>
</g>
<g opacity="0.1">
<path d="M775.123 187.623C795.243 187.623 812.814 176.727 822.247 160.52H818.475C809.397 174.871 793.374 184.401 775.123 184.401C756.872 184.401 740.85 174.871 731.772 160.52H728C737.432 176.727 755.004 187.623 775.123 187.623Z" fill="#07171D"/>
<path d="M865.674 187.623C885.793 187.623 903.365 176.727 912.797 160.52H909.026C899.947 174.871 883.925 184.401 865.674 184.401C847.423 184.401 831.401 174.871 822.322 160.52H818.551C827.983 176.727 845.555 187.623 865.674 187.623Z" fill="#07171D"/>
</g>
<g opacity="0.1">
<path d="M775.123 219.725C795.243 219.725 812.814 208.828 822.247 192.621H818.475C809.397 206.972 793.374 216.503 775.123 216.503C756.872 216.503 740.85 206.972 731.772 192.621H728C737.432 208.828 755.004 219.725 775.123 219.725Z" fill="#07171D"/>
<path d="M865.674 219.725C885.793 219.725 903.365 208.828 912.797 192.621H909.026C899.947 206.972 883.925 216.503 865.674 216.503C847.423 216.503 831.401 206.972 822.322 192.621H818.551C827.983 208.828 845.555 219.725 865.674 219.725Z" fill="#07171D"/>
</g>
<g opacity="0.1">
<path d="M775.123 251.83C795.243 251.83 812.814 240.934 822.247 224.727H818.475C809.397 239.078 793.374 248.608 775.123 248.608C756.872 248.608 740.85 239.078 731.772 224.727H728C737.432 240.934 755.004 251.83 775.123 251.83Z" fill="#07171D"/>
<path d="M865.674 251.83C885.793 251.83 903.365 240.934 912.797 224.727H909.026C899.947 239.078 883.925 248.608 865.674 248.608C847.423 248.608 831.401 239.078 822.322 224.727H818.551C827.983 240.934 845.555 251.83 865.674 251.83Z" fill="#07171D"/>
</g>
<g opacity="0.1">
<path d="M775.123 283.932C795.243 283.932 812.814 273.035 822.247 256.828H818.475C809.397 271.179 793.374 280.71 775.123 280.71C756.872 280.71 740.85 271.179 731.772 256.828H728C737.432 273.035 755.004 283.932 775.123 283.932Z" fill="#07171D"/>
<path d="M865.674 283.932C885.793 283.932 903.365 273.035 912.797 256.828H909.026C899.947 271.179 883.925 280.71 865.674 280.71C847.423 280.71 831.401 271.179 822.322 256.828H818.551C827.983 273.035 845.555 283.932 865.674 283.932Z" fill="#07171D"/>
</g>
</svg>
