<svg width="24" height="23" viewBox="0 0 24 23" fill="none" xmlns="http://www.w3.org/2000/svg">
<g clip-path="url(#clip0_134_850)">
<path d="M9.68359 21.2374C9.68359 21.9216 9.14251 22.4591 8.49609 22.4591C7.84968 22.4591 7.30859 21.9216 7.30859 21.2374C7.30859 20.5531 7.84968 20.0156 8.49609 20.0156C9.14251 20.0156 9.68359 20.5531 9.68359 21.2374Z" fill="#BDBDBD" stroke="#F8F8F8"/>
<path d="M19.9375 21.2374C19.9375 21.9216 19.3964 22.4591 18.75 22.4591C18.1036 22.4591 17.5625 21.9216 17.5625 21.2374C17.5625 20.5531 18.1036 20.0156 18.75 20.0156C19.3964 20.0156 19.9375 20.5531 19.9375 21.2374Z" fill="#BDBDBD" stroke="white"/>
<path d="M22.9164 2.89093L22.9165 2.89082C22.8925 2.8606 22.8629 2.83697 22.8302 2.82095C22.7979 2.80514 22.7632 2.79694 22.7283 2.79653H7.79944L7.9684 3.32696H21.7479H22.3687L22.2364 3.93349L20.2339 13.1161L20.1481 13.5096H19.7454H8.49542H8.12678L8.01778 13.1574L4.59109 2.08733C4.59099 2.08699 4.59088 2.08666 4.59077 2.08632C4.5775 2.04482 4.55495 2.0081 4.52586 1.97887C4.49659 1.94945 4.4616 1.9285 4.42427 1.91688L4.42332 1.91658L1.34833 0.952408C1.34833 0.952407 1.34833 0.952406 1.34832 0.952405C1.31754 0.942756 1.28544 0.939444 1.2537 0.942515C1.22196 0.945587 1.19073 0.955035 1.16179 0.970685C1.10331 1.0023 1.0566 1.05807 1.03542 1.12837C1.01418 1.19889 1.02149 1.27509 1.05483 1.3393C1.08798 1.40314 1.14292 1.44792 1.20486 1.46738C1.20491 1.4674 1.20495 1.46741 1.205 1.46742L3.89711 2.30904L4.14767 2.38737L4.22546 2.6381L7.66796 13.7338L7.76681 14.0524L7.51058 14.266L6.2999 15.2752L6.23324 15.3433C6.01054 15.6109 5.88333 15.95 5.87513 16.3044C5.86685 16.6625 5.98075 17.0113 6.19547 17.2911C6.35061 17.4824 6.5465 17.6334 6.76716 17.733C6.98931 17.8333 7.23088 17.8789 7.4727 17.8667L7.4853 17.8661H7.49792H20.0154C20.0784 17.8661 20.141 17.8406 20.1887 17.792C20.2367 17.743 20.2654 17.6744 20.2654 17.6009C20.2654 17.5273 20.2367 17.4588 20.1887 17.4098C20.141 17.3611 20.0784 17.3357 20.0154 17.3357H7.37792H7.36921L7.3605 17.3354C7.18629 17.3293 7.01721 17.2775 6.86963 17.1857C6.72212 17.094 6.60145 16.9658 6.51832 16.8143M22.9164 2.89093L6.51832 16.8143M22.9164 2.89093L22.9248 2.90094C22.9503 2.93134 22.9692 2.968 22.9795 3.00835C22.9894 3.04745 22.9907 3.08843 22.9834 3.12818M22.9164 2.89093L22.9834 3.12818M6.51832 16.8143C6.43522 16.6629 6.39214 16.4929 6.39258 16.3207C6.39301 16.1484 6.43696 15.9786 6.52084 15.8276L6.56516 15.7478L6.63482 15.6888L8.44232 14.1584L8.58217 14.04H8.76542H20.3454H20.3579L20.3579 14.0402C20.4129 14.0415 20.468 14.0235 20.5137 13.9872C20.5596 13.9506 20.5935 13.8974 20.6072 13.8354L20.6073 13.8348L22.9834 3.12818M6.51832 16.8143L22.9834 3.12818" fill="white" stroke="white"/>
</g>
<defs>
<clipPath id="clip0_134_850">
<rect width="24" height="22.9565" fill="white"/>
</clipPath>
</defs>
</svg>
