<svg xmlns="http://www.w3.org/2000/svg" width="10" height="13" viewBox="0 0 10 13">
<path fill-rule="evenodd" clip-rule="evenodd" d="M10 5.44361C10 8.31503 5.82496 12.2405 5.34886 12.6785C5.1521 12.8599 4.84884 12.8589 4.65322 12.6764C4.17504 12.2405 0 8.31498 0 5.44356C0 2.43711 2.23853 0 4.99997 0C7.76126 0 10 2.43724 10 5.44361ZM7.27274 5.10721C7.27274 6.38927 6.25519 7.42864 5.00003 7.42864C3.74486 7.42864 2.72731 6.38927 2.72731 5.10721C2.72731 3.82514 3.74486 2.78577 5.00003 2.78577C6.25519 2.78577 7.27274 3.82514 7.27274 5.10721Z"/>
</svg>