<?xml version="1.0" encoding="utf-8"?><svg width="148" height="31" fill="none" xmlns="http://www.w3.org/2000/svg" viewBox="0 0 148 31"><g opacity=".4" fill="currentColor"><path d="M7.403 8.338h2.036v14.307H7.403V8.338zM18.13 10.5h-5.487V8.338h14.002V10.5h-5.914v12.146h-2.133V10.499h-.468z" stroke="currentColor"/><path d="M42.953 10.915V7.868h-10.04c-3.112 0-4.307 1.815-4.307 4.744 0 2.93 1.716 4.3 4.307 4.3h6.439c1.2 0 1.236 1.19 1.236 1.903 0 .713-.276 1.48-1.243 1.48H28.991v2.82h10.354c2.591 0 4.308-1.371 4.308-4.3 0-2.93-1.192-4.722-4.304-4.722l-1.561-.001h-4.875c-.966 0-1.242-.766-1.242-1.48s0-1.697 1.201-1.697h10.08z"/><path d="M69.45 8.33v2.178H59.327c-.433 0-.806.024-1.117.094-.317.071-.601.198-.821.426-.22.229-.333.513-.393.815-.06.297-.075.645-.075 1.032V18.5c0 .677.181 1.268.633 1.68.442.404 1.062.56 1.773.56H67.369v-4.298h-3.391v-1.89h5.465v8.093H58.98c-2.101 0-3.112-.386-3.62-.9-.5-.508-.622-1.252-.622-2.327V11.9c0-1.318.147-2.146.66-2.679.516-.534 1.519-.891 3.582-.891h10.47zM74.961 18.111v4.534h-2.038V8.354h9.77c1.782 0 2.82.534 3.41 1.123.603.6.782 1.294.782 1.672v4.049a2.08 2.08 0 01-.692 1.541c-.526.482-1.47.903-3.121.903h-1.02l.664.775 3.618 4.228h-2.747l-3.97-4.832-.16-.195-.25.026a4.312 4.312 0 01-.342.004l-.163-.002c-.121-.002-.248-.004-.357-.004h-3.384v.47zm.469-7.938h-.469V15.961h7.732c.92 0 1.505-.308 1.819-.811.275-.442.274-.946.274-1.19V11.916v-.012c0-.168 0-.617-.293-1.02-.322-.441-.897-.71-1.8-.71H75.43zM94.657 8.354h5.899c2.269 0 4.267 1.84 4.267 4.054v6.356c0 2.195-1.978 3.916-4.267 3.916h-5.899c-2.294 0-4.3-1.725-4.3-3.916v-6.356c0-2.21 2.025-4.054 4.3-4.054zm5.899 12.557c.673 0 1.239-.378 1.619-.852.381-.475.622-1.099.622-1.708v-5.53c0-.606-.238-1.252-.613-1.749-.372-.492-.939-.914-1.628-.914h-5.899c-.686 0-1.253.422-1.625.914-.375.496-.617 1.142-.617 1.748v5.531c0 .61.245 1.235.626 1.708.38.473.946.852 1.616.852h5.899zM120.891 17.744v-9.39h2.14v10.402c0 2.143-1.755 3.89-3.937 3.89h-6.863c-2.181 0-3.936-1.747-3.936-3.89V8.347l2.097.006v9.399c0 1.073.203 1.876.773 2.382.555.492 1.346.593 2.213.593h4.776c.872 0 1.612-.153 2.107-.694.486-.528.63-1.315.63-2.289z" stroke="currentColor"/><path d="M129.769 15.23c0 .147.008.286.033.425h-.033v-.425zM129.802 10.627a2.368 2.368 0 00-.033.424v-.424h.033z"/><path d="M129.769 15.23c0 .147.008.286.033.425h-.033v-.425zM129.802 10.627a2.368 2.368 0 00-.033.424v-.424h.033z"/><path d="M129.063 17.96h-.469v4.685h-2.091V8.322h10.133c2.715 0 3.961 1.664 3.961 3.138v3.517c0 1.43-1.502 2.983-3.961 2.983h-7.573zm-.469-2.305v.47h8.042c1.185 0 2.15-.947 2.15-2.135v-1.698a2.138 2.138 0 00-2.15-2.135h-8.042V15.655z" stroke="currentColor"/></g></svg>