<?xml version="1.0" encoding="utf-8"?><svg width="10" height="16" fill="none" xmlns="http://www.w3.org/2000/svg" viewBox="0 0 10 16"><path fill-rule="evenodd" clip-rule="evenodd" d="M4.326.024c-.92.12-1.537.316-2.238.859a3.91 3.91 0 00-.76.776 4.277 4.277 0 00-.558.994c-.542 1.416-.249 2.84.61 4.023.377.512 1.183 1.107 1.778 1.31.595.204 1.077.302 1.77.264 2.908-.18 4.731-3.344 3.36-6.019a4.26 4.26 0 00-.407-.625C7.121.566 5.576-.142 4.326.024zm.015 2.433c-.964.196-1.545 1.04-1.401 1.951.135.837.949 1.597 1.98 1.417 1.5-.264 1.892-2.17.762-3.029-.317-.24-.829-.444-1.341-.339zM2.518 15.475c.18-.18 2.004-2.011 2.11-2.08.112.069.27.25.376.355l1.816 1.823c.248.256.542.437 1.077.414.407-.105.708-.264.896-.618.06-.105.113-.233.136-.369.128-.7-.332-1.07-.61-1.356-.144-.143-1.936-1.898-2.004-2.011a8.058 8.058 0 002.102-.836c.346-.189.602-.347.738-.739a1.209 1.209 0 00-1.16-1.634c-.475.015-.686.256-1.032.422-1.582.73-3.187.738-4.746-.046-.324-.165-.61-.421-1.078-.391-.896.045-1.356.979-1.04 1.702.167.37.415.505.762.7a7.78 7.78 0 002.086.822c-.067.105-1.89 1.898-2.034 2.041-.293.287-.738.648-.595 1.372.219 1.13 1.401 1.235 2.2.429z" fill="#fff"/></svg>