<?xml version="1.0" encoding="utf-8"?><svg width="24" height="15" fill="none" xmlns="http://www.w3.org/2000/svg" viewBox="0 0 24 15"><path d="M11.917 11a3.667 3.667 0 110-7.333 3.667 3.667 0 010 7.333z" fill="#1B1F22"/><path fill-rule="evenodd" clip-rule="evenodd" d="M23.833 7.333C22 11 17.417 14.667 11.917 14.667S1.833 11 0 7.333C1.833 3.667 6.417 0 11.917 0S22 3.667 23.833 7.333zM11.917 11c3.09 0 5.867-1.679 7.542-3.667-1.675-1.988-4.452-3.666-7.542-3.666S6.05 5.345 4.375 7.333C6.05 9.321 8.827 11 11.917 11z" fill="#1B1F22"/></svg>