<?xml version="1.0" encoding="utf-8"?><svg width="171" height="153" fill="none" xmlns="http://www.w3.org/2000/svg" viewBox="0 0 171 153"><path d="M80.542 33.127a2.958 2.958 0 002.953-2.962 2.958 2.958 0 00-2.953-2.962 2.958 2.958 0 00-2.952 2.962 2.958 2.958 0 002.952 2.962zM87.3 54.575a27.255 27.255 0 01-4.432-5.813l-2.32-4.068-2.32 4.068a27.593 27.593 0 01-4.432 5.813 38.26 38.26 0 01-3.306-15.63c0-9.99 3.805-19.091 10.052-25.917a38.231 38.231 0 0110.07 25.917 38.453 38.453 0 01-3.312 15.63zm-6.758 10.293a38.521 38.521 0 01-4.13-5.4 32.77 32.77 0 004.13-4.52 32.783 32.783 0 004.13 4.52 38.07 38.07 0 01-4.13 5.4zm-26.01 3.055c-1.966 0-3.886-.174-5.76-.506a41.353 41.353 0 0010.662 9.223 38.051 38.051 0 0017.228-8.077 43.836 43.836 0 01-4.508-5.819 32.416 32.416 0 01-17.622 5.18zm52.025-5.36c3.655 0 7.147-.72 10.331-2.03a41.196 41.196 0 004.768-19.29C121.656 18.464 103.251 0 80.542 0c-22.71 0-41.108 18.463-41.108 41.238 0 6.97 1.722 13.535 4.768 19.29a27.118 27.118 0 0010.33 2.03 27.07 27.07 0 0014.989-4.498 43.631 43.631 0 01-4.38-19.12c0-12.47 5.21-23.724 13.556-31.684l1.84-1.757 1.838 1.751c8.353 7.96 13.573 19.202 13.573 31.684a43.632 43.632 0 01-4.38 19.12 27.016 27.016 0 0014.989 4.51zm5.755 4.854a41.273 41.273 0 01-10.668 9.223 38.052 38.052 0 01-17.227-8.077 43.836 43.836 0 004.507-5.819 32.387 32.387 0 0017.622 5.185 33.52 33.52 0 005.766-.512zm-31.77 15.065c4.78 0 9.362-.815 13.631-2.322a43.522 43.522 0 01-13.631-7.867 43.521 43.521 0 01-13.631 7.867 41.018 41.018 0 0013.631 2.322zM159.329 144.877v-2.368h-1.363c-.499 0-.882.099-1.143.291-.261.186-.394.471-.394.843 0 .14.023.285.075.437.058.145.145.273.261.395.122.123.285.216.482.291.197.076.441.111.719.111h1.363zm-4.281 2.409c.215-.326.441-.617.685-.873a2.69 2.69 0 01.812-.599 4.226 4.226 0 01-.708-.344 2.366 2.366 0 01-.545-.477 2.227 2.227 0 01-.342-.622 2.69 2.69 0 01-.116-.815c0-.378.087-.716.261-1.018.185-.303.417-.559.707-.768a3.373 3.373 0 011.004-.495 3.918 3.918 0 011.154-.169h2.912v7.867h-1.554v-2.874h-.447c-.209 0-.4.017-.598.058a2.117 2.117 0 00-1.044.588 3.306 3.306 0 00-.475.599l-1.033 1.624h-1.839l1.166-1.682zm-7.604-4.777v4.87c.487.233.969.349 1.462.349a2.419 2.419 0 001.792-.756c.22-.233.394-.512.522-.838.122-.326.186-.681.186-1.059 0-.408-.064-.768-.198-1.088a2.166 2.166 0 00-.539-.803 2.354 2.354 0 00-.812-.507 2.684 2.684 0 00-1.004-.18h-1.409v.012zm1.137-1.403c1.427 0 2.517.344 3.277 1.024.76.681 1.143 1.67 1.143 2.968 0 .594-.099 1.141-.302 1.635a3.66 3.66 0 01-.824 1.274 3.782 3.782 0 01-1.258.833 4.298 4.298 0 01-1.595.29c-.256 0-.505-.029-.754-.087a4.56 4.56 0 01-.824-.267V153h-1.555v-11.894h2.692zm-8.707 1.246c-.365 0-.702.064-1.015.197a2.492 2.492 0 00-1.334 1.368c-.122.32-.186.669-.186 1.041 0 .414.064.798.18 1.135.122.343.296.634.516.879a2.452 2.452 0 001.839.756c.406 0 .777-.064 1.102-.186.331-.134.609-.314.836-.547.237-.239.411-.53.539-.861.122-.344.186-.728.186-1.152 0-.384-.07-.734-.209-1.054a2.458 2.458 0 00-.551-.832 2.525 2.525 0 00-.847-.547 2.797 2.797 0 00-1.056-.197zm.018-1.403c.614 0 1.183.099 1.699.297.522.198.969.477 1.346.838a3.7 3.7 0 01.887 1.268c.209.489.314 1.025.314 1.606 0 .623-.111 1.187-.314 1.699a3.745 3.745 0 01-.87 1.316 3.716 3.716 0 01-1.334.843 4.797 4.797 0 01-1.723.297 4.402 4.402 0 01-1.659-.308 4.178 4.178 0 01-1.316-.862 4.128 4.128 0 01-.853-1.315 4.387 4.387 0 01-.307-1.675c0-.565.104-1.089.313-1.572.209-.488.499-.913.864-1.274a4.02 4.02 0 011.317-.855 4.44 4.44 0 011.636-.303zm-12.367.157l2.424 4.859 2.309-4.859h1.566l.563 7.867h-1.468l-.487-5.359-2.477 5.359-2.656-5.411-.401 5.411h-1.467l.533-7.867h1.561zm-10.383 2.822l-4.519 5.197h-.876v-8.019h1.555v5.359l4.559-5.359h.835v7.867h-1.554v-5.045zm-11.317.35c.342 0 .632-.094.876-.274.243-.18.464-.454.655-.815l.47-.872c.128-.239.255-.437.383-.588.133-.157.267-.285.412-.378.145-.093.307-.152.487-.186.174-.041.377-.059.603-.059h.337v1.403h-.348c-.18 0-.325.046-.43.145a1.766 1.766 0 00-.29.384l-.4.716a2.849 2.849 0 01-.29.448 2.201 2.201 0 01-.301.308 1.537 1.537 0 01-.319.204 4.614 4.614 0 01-.378.163c.192.058.372.134.528.233.163.093.308.209.453.36.151.146.296.32.435.53.145.209.296.46.452.751l1.189 2.222h-1.705l-1.061-2.135c-.256-.489-.534-.838-.847-1.036-.314-.198-.621-.297-.923-.297h-.197v3.468h-1.549v-7.867h1.549v3.172h.209zm-7.866 1.28v2.007h1.416c.191 0 .371-.017.54-.052.162-.041.307-.099.428-.181.116-.087.209-.192.279-.314a.999.999 0 00.104-.471.732.732 0 00-.133-.436 1.009 1.009 0 00-.389-.309 1.771 1.771 0 00-.568-.186 3.83 3.83 0 00-.714-.058h-.963zm0-3.049v2.019h1.166c.435 0 .772-.082 1.021-.25.255-.169.377-.466.377-.891a.625.625 0 00-.127-.401.908.908 0 00-.331-.274 1.348 1.348 0 00-.452-.151 2.307 2.307 0 00-.488-.052H97.96zm-1.548 6.464v-7.867h2.964c.429 0 .806.053 1.142.152.343.099.627.238.859.424.244.181.423.402.545.658.128.256.197.541.197.844 0 .227-.034.436-.104.634-.07.186-.157.355-.261.506-.11.151-.232.279-.377.384a2.012 2.012 0 01-.418.268c.174.081.348.169.505.273.162.099.307.216.435.361.122.14.226.308.302.506.069.187.11.413.11.669 0 .274-.047.542-.145.803a1.803 1.803 0 01-.447.699 2.274 2.274 0 01-.829.494c-.337.123-.749.187-1.242.187h-3.236v.005zm-4.014-3.892c-.331.116-.644.232-.952.349-.295.122-.556.25-.783.395-.226.14-.406.303-.54.478a.99.99 0 00-.196.616c0 .157.023.309.08.443a1.056 1.056 0 00.58.581c.146.053.297.076.453.076.244 0 .482-.058.702-.169a2.97 2.97 0 00.656-.471v-2.298zm0-.856v-.419c0-.494-.116-.849-.348-1.059-.232-.215-.586-.326-1.068-.326-.423 0-.852.105-1.276.315-.423.203-.818.535-1.195.983v-1.699c.61-.716 1.474-1.071 2.599-1.071.394 0 .771.053 1.12.152.347.104.643.261.904.471.256.209.459.483.604.814.15.326.22.71.22 1.153v4.044c0 .145.023.256.07.314a.284.284 0 00.22.087.815.815 0 00.342-.11c.151-.076.308-.175.493-.309v.949c-.18.122-.336.221-.47.296a3.522 3.522 0 01-.365.181 1.602 1.602 0 01-.336.093 1.494 1.494 0 01-.331.035c-.342 0-.61-.058-.806-.181-.186-.128-.314-.331-.395-.622a3.691 3.691 0 01-1.038.605 3.118 3.118 0 01-1.067.198c-.29 0-.551-.053-.79-.151a2.1 2.1 0 01-.608-.425 1.915 1.915 0 01-.395-.605 2.085 2.085 0 01-.133-.734c0-.36.07-.663.197-.913.128-.25.313-.466.545-.652.232-.186.51-.355.841-.494.331-.146.697-.286 1.097-.425l1.369-.495zm-7.593-1.716v6.464h-1.56v-6.464h-2.75v-1.403h7.06v1.403h-2.75zm-5.25 6.162c-.133.064-.29.122-.47.18-.18.053-.377.099-.585.134-.21.047-.43.081-.65.105a5.882 5.882 0 01-.627.035 4.34 4.34 0 01-1.606-.291 3.789 3.789 0 01-1.265-.815 3.778 3.778 0 01-.818-1.239 4.166 4.166 0 01-.296-1.589c0-.652.093-1.233.273-1.751.186-.524.441-.972.777-1.333a3.313 3.313 0 011.218-.855 4.16 4.16 0 011.607-.297c.227 0 .441.012.627.041.197.023.382.058.557.105.18.046.36.104.533.168.174.07.354.146.546.233v1.658a4.574 4.574 0 00-.627-.366 2.906 2.906 0 00-.545-.239 2.318 2.318 0 00-.5-.128 3.49 3.49 0 00-.492-.035c-.348 0-.673.064-.969.198a1.983 1.983 0 00-.76.541 2.5 2.5 0 00-.493.838 3.22 3.22 0 00-.168 1.088c0 .413.064.78.186 1.106.121.32.301.588.54.815.231.221.51.395.834.512.331.122.697.18 1.097.18.33 0 .66-.041.992-.128.33-.087.69-.215 1.084-.396v1.525zm-11.914-6.319a2.463 2.463 0 00-1.816.744c-.226.227-.4.501-.533.821-.122.32-.186.669-.186 1.041 0 .414.064.798.18 1.135.122.343.302.634.522.879.226.238.493.424.8.558a2.59 2.59 0 001.033.198c.406 0 .777-.064 1.108-.186.33-.134.609-.314.835-.547.232-.239.406-.53.54-.861.121-.344.185-.728.185-1.152 0-.384-.064-.734-.209-1.054a2.454 2.454 0 00-.55-.832 2.518 2.518 0 00-.848-.547 2.828 2.828 0 00-1.061-.197zm.017-1.403c.615 0 1.184.099 1.7.297.522.198.969.477 1.346.838.382.355.672.774.887 1.268.209.489.313 1.025.313 1.606 0 .623-.104 1.187-.313 1.699a3.742 3.742 0 01-.87 1.316 3.77 3.77 0 01-1.334.843 4.799 4.799 0 01-1.723.297 4.4 4.4 0 01-1.659-.308 4.086 4.086 0 01-1.31-.862 4.05 4.05 0 01-.86-1.315 4.502 4.502 0 01-.3-1.675c0-.565.104-1.089.312-1.572a3.97 3.97 0 01.865-1.274 4.084 4.084 0 011.316-.855 4.389 4.389 0 011.63-.303zm-7.215 6.622l-1.868-4.131-1.897 4.131h3.764zm2.273 3.171h-1.537v-1.769h-5.214v1.769H54.42v-3.171h.65l3.179-6.616h.87l2.952 6.616h.639v3.171h.005zm-13.944-2.071a3.79 3.79 0 01-.47.18 5.02 5.02 0 01-.586.134 5.88 5.88 0 01-.65.105 5.882 5.882 0 01-.626.035 4.318 4.318 0 01-1.607-.291 3.676 3.676 0 01-1.264-.815 3.676 3.676 0 01-.812-1.239 4.166 4.166 0 01-.296-1.589c0-.652.093-1.233.272-1.751.18-.524.447-.972.778-1.333a3.313 3.313 0 011.218-.855 4.14 4.14 0 011.607-.297c.226 0 .44.012.626.041.197.023.383.058.557.105.18.046.36.104.54.168.173.07.353.146.545.233v1.658a4.941 4.941 0 00-.627-.366 3.08 3.08 0 00-.545-.239 2.316 2.316 0 00-.499-.128 3.43 3.43 0 00-.493-.035c-.348 0-.673.064-.969.198a1.983 1.983 0 00-.76.541 2.5 2.5 0 00-.493.838 3.223 3.223 0 00-.168 1.088c0 .413.064.78.186 1.106.122.32.301.588.533.815.232.221.51.395.836.512.33.122.696.18 1.096.18.33 0 .661-.041.992-.128a6.68 6.68 0 001.085-.396v1.525h-.006zm-9.675-4.743l-4.513 5.197H33.7v-8.019h1.554v5.359l4.56-5.359h.835v7.867h-1.554v-5.045zm-11.561 1.63v2.007h1.415c.198 0 .377-.017.54-.052.162-.041.301-.099.423-.181.116-.087.21-.192.285-.314.063-.134.104-.285.104-.471a.699.699 0 00-.14-.436.984.984 0 00-.382-.309 1.764 1.764 0 00-.574-.186 3.807 3.807 0 00-.708-.058h-.963zm0-3.049v2.019h1.172c.429 0 .771-.082 1.02-.25.25-.169.378-.466.378-.891a.66.66 0 00-.128-.401.917.917 0 00-.336-.274 1.276 1.276 0 00-.447-.151 2.348 2.348 0 00-.487-.052h-1.172zm-1.555 6.464v-7.867h2.965c.429 0 .812.053 1.142.152.343.099.627.238.859.424.238.181.417.402.54.658.133.256.196.541.196.844 0 .227-.029.436-.098.634-.07.186-.163.355-.267.506a1.68 1.68 0 01-.371.384 2.79 2.79 0 01-.418.268c.174.081.342.169.499.273.162.099.307.216.44.361.123.14.221.308.297.506.075.187.116.413.116.669 0 .274-.053.542-.145.803a1.817 1.817 0 01-.453.699 2.296 2.296 0 01-.823.494c-.337.123-.755.187-1.242.187h-3.236v.005zm-7.244-6.464v4.87c.487.233.968.349 1.467.349a2.47 2.47 0 001.004-.198 2.46 2.46 0 001.31-1.396c.122-.326.186-.681.186-1.059 0-.408-.064-.768-.197-1.088a2.174 2.174 0 00-.54-.803 2.3 2.3 0 00-.812-.507 2.68 2.68 0 00-1.003-.18h-1.415v.012zm1.142-1.403c1.427 0 2.518.344 3.278 1.024.76.681 1.142 1.67 1.142 2.968 0 .594-.098 1.141-.301 1.635a3.67 3.67 0 01-.824 1.274 3.783 3.783 0 01-1.259.833 4.3 4.3 0 01-1.595.29c-.255 0-.505-.029-.754-.087a4.58 4.58 0 01-.824-.267V153h-1.554v-11.894h2.691zm-5.945 3.137c-.024-.6-.197-1.071-.522-1.42-.32-.349-.76-.524-1.311-.524-.604 0-1.08.169-1.433.506-.348.338-.574.815-.679 1.438h3.945zm-3.985 1.035c.255 1.572 1.13 2.363 2.633 2.363.488 0 .946-.082 1.386-.25.441-.163.9-.396 1.358-.693v1.507a6.902 6.902 0 01-.708.413 4.54 4.54 0 01-.72.291 4.52 4.52 0 01-.782.163c-.279.041-.58.058-.917.058-.609 0-1.148-.116-1.618-.343a3.65 3.65 0 01-1.195-.931 4.204 4.204 0 01-.737-1.332 5.12 5.12 0 01-.249-1.571c0-.6.087-1.141.261-1.636a3.7 3.7 0 01.76-1.256 3.24 3.24 0 011.16-.809 3.729 3.729 0 011.48-.291c.527 0 .991.093 1.409.273a2.75 2.75 0 011.073.803c.296.361.522.809.678 1.35.163.541.244 1.176.244 1.897H9.948v-.006zm-2.889 3.393a3.188 3.188 0 01-.47.18c-.18.053-.377.099-.586.134a5.968 5.968 0 01-1.27.14 4.37 4.37 0 01-1.612-.291 3.706 3.706 0 01-1.26-.815 3.777 3.777 0 01-.817-1.239 4.278 4.278 0 01-.29-1.589c0-.652.093-1.233.273-1.751.18-.524.44-.972.771-1.333a3.334 3.334 0 011.224-.855 4.139 4.139 0 011.607-.297c.226 0 .44.012.626.041.197.023.377.058.551.105.186.046.36.104.54.168.174.07.353.146.54.233v1.658a4.903 4.903 0 00-.622-.366 3.277 3.277 0 00-.545-.239 2.364 2.364 0 00-.504-.128 3.371 3.371 0 00-.494-.035c-.353 0-.672.064-.974.198a2.075 2.075 0 00-.76.541 2.561 2.561 0 00-.493.838 3.223 3.223 0 00-.168 1.088c0 .413.064.78.191 1.106a2.25 2.25 0 001.375 1.327c.33.122.696.18 1.096.18.33 0 .662-.041.992-.128a6.836 6.836 0 001.08-.396v1.525zM19.472 103.725v5.592c-1.873-.919-5.255-2.636-8.724-2.636-3.979 0-4.1 1.956-4.1 2.235 0 1.635 2.668 2.595 6.571 3.997 3.423 1.24 7.483 3.317 7.483 8.589 0 6.313-6.572 8.071-10.632 8.071-4.583 0-8.916-2.159-9.6-2.636v-5.871c2.35 1.477 5.458 3.398 9.437 3.398.876 0 4.06-.041 4.06-2.479 0-1.798-1.554-2.357-5.133-3.596C4.936 117.021 0 115.107 0 109.352c0-4.154 3.463-7.75 10.273-7.75 2.146.005 4.855.244 9.2 2.123zM45.199 101.961l-8.353 12.784 11.538 14.46h-8.48l-10.059-12.784v12.784h-6.81v-27.244h6.81v12.347l7.906-12.347H45.2zM73.973 101.961l-10.707 14.5v12.744H56.45v-12.744l-10.708-14.5h8.162l5.974 8.554 5.969-8.554h8.126zM101.638 101.961v5.155H90.513v5.755h11.125v5.15H90.513v11.184h-6.845v-27.244h17.97zM111.776 101.969h-6.85v27.243h6.85v-27.243zM133.994 103.726v5.591c-1.874-.919-5.255-2.635-8.724-2.635-3.979 0-4.101 1.955-4.101 2.234 0 1.635 2.674 2.595 6.572 3.998 3.422 1.239 7.483 3.316 7.483 8.588 0 6.314-6.567 8.071-10.633 8.071-4.582 0-8.915-2.159-9.594-2.636v-5.871c2.349 1.478 5.453 3.398 9.432 3.398.876 0 4.066-.041 4.066-2.479 0-1.798-1.555-2.357-5.139-3.596-3.904-1.356-8.84-3.276-8.84-9.025 0-4.155 3.468-7.751 10.272-7.751 2.164-.005 4.867.233 9.206 2.113zM161.042 101.961v27.244h-6.804v-11.021h-9.786v11.021h-6.85v-27.244h6.85v10.945h9.786v-10.945h6.804zM167.58 95.54c0-.146-.053-.25-.145-.309-.099-.058-.256-.087-.47-.087h-.203v.768h.209c.232 0 .394-.023.475-.075.087-.053.134-.152.134-.297zm1.293 2.176h-1.027l-.249-.564a2.534 2.534 0 00-.249-.454.513.513 0 00-.215-.186.666.666 0 00-.261-.041h-.11v1.24h-.957v-3.184h1.63c.255 0 .475.053.644.163.162.105.29.239.359.39.07.151.11.297.11.436a.807.807 0 01-.092.408.697.697 0 01-.192.238c-.069.053-.151.1-.232.146a.825.825 0 01.255.215c.07.082.157.245.267.495l.319.698z" fill="#fff"/><path d="M167.166 99.216a2.986 2.986 0 002.982-2.99 2.986 2.986 0 00-2.982-2.992 2.985 2.985 0 00-2.981 2.991 2.985 2.985 0 002.981 2.991zm3.834-2.99a3.842 3.842 0 01-3.84 3.845 3.842 3.842 0 01-3.84-3.846 3.842 3.842 0 013.84-3.846 3.842 3.842 0 013.84 3.846z" fill="#fff"/></svg>