<?xml version="1.0" encoding="utf-8"?><svg width="16" height="16" fill="none" xmlns="http://www.w3.org/2000/svg" viewBox="0 0 16 16"><g clip-path="url(#biclip0_1690_14154)"><path d="M8.033 12.815c-2.658 0-3.872-1.354-3.872-2.347a.861.861 0 01.909-.861c1.138 0 .84 1.707 2.963 1.707 1.086 0 1.723-.653 1.723-1.267 0-.369-.21-.79-.927-.96l-2.37-.597c-1.905-.485-2.237-1.544-2.237-2.526 0-2.04 1.865-2.777 3.64-2.777 1.636 0 3.58.904 3.58 2.126 0 .527-.44.809-.95.809-.973 0-.81-1.365-2.764-1.365-.972 0-1.483.456-1.483 1.094 0 .637.756.853 1.42.998l1.749.395c1.917.432 2.428 1.557 2.428 2.634 0 1.657-1.283 2.937-3.811 2.937h.002zm7.34-3.506a7.6 7.6 0 00.112-1.317A7.486 7.486 0 006.703.587 4.404 4.404 0 004.496 0 4.478 4.478 0 00.63 6.693a7.491 7.491 0 008.672 8.72c.67.386 1.431.588 2.205.587a4.478 4.478 0 003.864-6.69z" fill="#fff"/></g><defs><clipPath id="biclip0_1690_14154"><path fill="#fff" d="M0 0h16v16H0z"/></clipPath></defs></svg>