<?xml version="1.0" encoding="utf-8"?><svg width="16" height="10" fill="none" xmlns="http://www.w3.org/2000/svg" viewBox="0 0 16 10"><path d="M.54 0h1.892c.24 0 .426.16.506.373.24.693.773 2.211 1.385 3.25.826 1.359 1.36 1.865 1.705 1.812.347-.08.24-.986.24-1.705 0-.72.08-1.945-.266-2.504L5.469.453a.266.266 0 01.213-.426H8.72c.293 0 .533.24.533.532v3.864s.133.692.88-.027c.745-.72 1.545-2.052 2.21-3.41l.267-.64a.526.526 0 01.48-.32h1.971c.373 0 .64.374.506.72l-.213.56s-.72 1.438-1.465 2.45c-.746 1.04-.906 1.28-.8 1.546.107.266 2.025 2.051 2.505 2.904.133.24.24.453.346.64.187.345-.08.798-.48.798h-2.237a.516.516 0 01-.453-.266l-.213-.346s-1.359-1.599-2.185-2.105c-.852-.48-.826.213-.826.213v1.412c0 .586-.48 1.066-1.065 1.066h-.533s-2.93 0-5.275-3.49C.833 3.41.22 1.652.007.639A.547.547 0 01.54 0z" fill="#fff"/></svg>