<?xml version="1.0" encoding="utf-8"?><svg width="16" height="16" fill="none" xmlns="http://www.w3.org/2000/svg" viewBox="0 0 16 16"><path d="M15.67 4.151a2.005 2.005 0 00-1.41-1.41C13.008 2.398 8 2.398 8 2.398s-5.008 0-6.26.33A2.046 2.046 0 00.33 4.15C0 5.403 0 8 0 8s0 2.61.33 3.848a2.005 2.005 0 001.41 1.41c1.265.343 6.26.343 6.26.343s5.008 0 6.26-.33a2.004 2.004 0 001.41-1.41C16 10.61 16 8.013 16 8.013s.013-2.61-.33-3.862z" fill="#fff"/><path d="M6.404 10.399L10.57 8 6.404 5.602v4.797z" fill="#D3D3D3"/></svg>